<?xml version="1.0" encoding="UTF-8"?>
<!-- Generated by Pixelmator Pro 3.7 -->
<svg width="995" height="697" viewBox="0 0 995 697" xmlns="http://www.w3.org/2000/svg">
    <path id="Trazado" fill="#f2f2f2" stroke="none" d="M 812.688599 436.866821 L 171.850067 436.866821 C 162.741638 436.856567 155.360352 429.475281 155.350067 420.366821 L 155.350067 25.213013 C 155.357513 18.540039 160.765015 13.132324 167.437988 13.124634 L 816.891479 13.124634 C 823.679871 13.132385 829.180969 18.633606 829.188599 25.421997 L 829.188599 420.366821 C 829.178284 429.475281 821.796997 436.856506 812.688599 436.866821 Z"/>
    <path id="path1" fill="#ffffff" stroke="none" d="M 789.311279 413.5 L 192.066528 413.5 C 183.311554 413.5 176.188965 406.830078 176.188965 398.631836 L 176.188965 54.526855 C 176.188965 48.446777 181.466919 43.5 187.95459 43.5 L 793.228271 43.5 C 799.823486 43.5 805.188965 48.52832 805.188965 54.708496 L 805.188965 398.631836 C 805.189026 406.830078 798.066162 413.5 789.311279 413.5 Z"/>
    <path id="path2" fill="#cccccc" stroke="none" d="M 828.958862 24.269165 L 155.1185 24.269165 L 155.1185 15.868774 C 155.131714 6.730042 162.539825 -0.673462 171.678558 -0.68103 L 812.398804 -0.68103 C 821.537537 -0.673523 828.945679 6.730042 828.958862 15.868774 Z"/>
    <path id="path3" fill="#ffffff" stroke="none" d="M 189.497284 11.81897 C 189.497284 14.184631 187.579544 16.102417 185.213867 16.102417 C 182.848206 16.102417 180.93045 14.184631 180.93045 11.81897 C 180.93045 9.453308 182.848206 7.535583 185.213867 7.535583 C 187.579544 7.535583 189.497284 9.453308 189.497284 11.81897 Z"/>
    <path id="path4" fill="#ffffff" stroke="none" d="M 205.756104 11.81897 C 205.756104 14.184631 203.838348 16.102417 201.472687 16.102417 C 199.10701 16.102417 197.189255 14.184631 197.189255 11.81897 C 197.189255 9.453308 199.10701 7.535583 201.472687 7.535583 C 203.838348 7.535583 205.756104 9.453308 205.756104 11.81897 Z"/>
    <path id="path5" fill="#ffffff" stroke="none" d="M 222.014893 11.81897 C 222.014893 14.184631 220.097153 16.102417 217.731476 16.102417 C 215.365814 16.102417 213.448059 14.184631 213.448059 11.81897 C 213.448059 9.453308 215.365814 7.535583 217.731476 7.535583 C 220.097153 7.535583 222.014893 9.453308 222.014893 11.81897 Z"/>
    <path id="path6" fill="#cccccc" stroke="none" d="M 723.572754 355.788086 L 260.734253 355.788086 C 251.073822 355.77713 243.245239 347.948517 243.234253 338.288086 L 243.234253 115.134277 C 243.24234 107.909302 249.097198 102.05426 256.322174 102.045898 L 727.775635 102.045898 C 735.116028 102.054321 741.064453 108.002869 741.072754 115.343262 L 741.072754 338.288086 C 741.061829 347.948547 733.233215 355.777161 723.572754 355.788086 Z M 256.322174 104.045898 C 250.201202 104.052917 245.240997 109.013306 245.234253 115.134277 L 245.234253 338.288086 C 245.243866 346.844513 252.177826 353.778473 260.734253 353.788086 L 723.572754 353.788086 C 732.12915 353.778412 739.06311 346.844482 739.072754 338.288086 L 739.072754 115.343262 C 739.065796 109.106873 734.012024 104.052979 727.775635 104.045898 Z"/>
    <path id="path7" fill="#f2f2f2" stroke="none" d="M 276.734283 338.288086 L 707.572815 338.288086 C 716.409363 338.288086 723.572815 331.124634 723.572815 322.288086 L 723.572815 135.740234 C 723.572815 126.903687 716.409363 119.740234 707.572815 119.740234 L 276.734283 119.740234 C 267.897736 119.740234 260.734283 126.903687 260.734283 135.740234 L 260.734283 322.288086 C 260.734283 331.124634 267.897736 338.288086 276.734283 338.288086 Z"/>
    <path id="path8" fill="#cccccc" stroke="none" d="M 334.653534 165.01416 C 334.653534 169.984741 330.624115 174.01416 325.653534 174.01416 C 320.682983 174.01416 316.653534 169.984741 316.653534 165.01416 C 316.653534 160.043579 320.682983 156.01416 325.653534 156.01416 C 330.624115 156.01416 334.653534 160.043579 334.653534 165.01416 Z"/>
    <path id="path9" fill="#cccccc" stroke="none" d="M 334.653534 199.01416 C 334.653534 203.984741 330.624115 208.01416 325.653534 208.01416 C 320.682983 208.01416 316.653534 203.984741 316.653534 199.01416 C 316.653534 194.04361 320.682983 190.01416 325.653534 190.01416 C 330.624115 190.01416 334.653534 194.04361 334.653534 199.01416 Z"/>
    <path id="path10" fill="#cccccc" stroke="none" d="M 334.653534 233.01416 C 334.653534 237.984741 330.624115 242.01416 325.653534 242.01416 C 320.682983 242.01416 316.653534 237.984741 316.653534 233.01416 C 316.653534 228.04361 320.682983 224.01416 325.653534 224.01416 C 330.624115 224.01416 334.653534 228.04361 334.653534 233.01416 Z"/>
    <path id="path11" fill="#cccccc" stroke="none" d="M 334.653534 267.01416 C 334.653534 271.984711 330.624115 276.01416 325.653534 276.01416 C 320.682983 276.01416 316.653534 271.984711 316.653534 267.01416 C 316.653534 262.04361 320.682983 258.01416 325.653534 258.01416 C 330.624115 258.01416 334.653534 262.04361 334.653534 267.01416 Z"/>
    <path id="path12" fill="#cccccc" stroke="none" d="M 666.653564 166.01416 L 370.653534 166.01416 C 370.101257 166.01416 369.653534 165.566467 369.653534 165.01416 C 369.653534 164.461914 370.101257 164.01416 370.653534 164.01416 L 666.653564 164.01416 C 667.205811 164.01416 667.653564 164.461914 667.653564 165.01416 C 667.653564 165.566467 667.205811 166.01416 666.653564 166.01416 Z"/>
    <path id="path13" fill="#cccccc" stroke="none" d="M 666.653564 200.01416 L 370.653534 200.01416 C 370.101257 200.01416 369.653534 199.566437 369.653534 199.01416 C 369.653534 198.461884 370.101257 198.01416 370.653534 198.01416 L 666.653564 198.01416 C 667.205811 198.01416 667.653564 198.461884 667.653564 199.01416 C 667.653564 199.566437 667.205811 200.01416 666.653564 200.01416 Z"/>
    <path id="path14" fill="#cccccc" stroke="none" d="M 666.653564 234.01416 L 370.653534 234.01416 C 370.101257 234.01416 369.653534 233.566437 369.653534 233.01416 C 369.653534 232.461884 370.101257 232.01416 370.653534 232.01416 L 666.653564 232.01416 C 667.205811 232.01416 667.653564 232.461884 667.653564 233.01416 C 667.653564 233.566437 667.205811 234.01416 666.653564 234.01416 Z"/>
    <path id="path15" fill="#cccccc" stroke="none" d="M 666.653564 268.01416 L 370.653534 268.01416 C 370.101257 268.01416 369.653534 267.566437 369.653534 267.01416 C 369.653534 266.461884 370.101257 266.01416 370.653534 266.01416 L 666.653564 266.01416 C 667.205811 266.01416 667.653564 266.461884 667.653564 267.01416 C 667.653564 267.566437 667.205811 268.01416 666.653564 268.01416 Z"/>
    <path id="path16" fill="#7c86ff" stroke="none" d="M 426.653564 302.01416 L 397.653534 302.01416 C 394.893433 302.010956 392.656738 299.774261 392.653534 297.01416 L 392.653534 270.01416 C 392.656738 267.254059 394.893433 265.017365 397.653534 265.01416 L 426.653564 265.01416 C 429.413635 265.017365 431.65033 267.254059 431.653564 270.01416 L 431.653564 297.01416 C 431.65033 299.774261 429.413635 302.010956 426.653564 302.01416 Z"/>
    <path id="path17" fill="#7c86ff" stroke="none" d="M 491.653564 302.01416 L 462.653564 302.01416 C 459.893433 302.011017 457.656677 299.774292 457.653564 297.01416 L 457.653564 236.01416 C 457.656677 233.254059 459.893433 231.017334 462.653564 231.01416 L 491.653564 231.01416 C 494.413635 231.017334 496.650391 233.254059 496.653564 236.01416 L 496.653564 297.01416 C 496.650391 299.774292 494.413635 302.011017 491.653564 302.01416 Z"/>
    <path id="path18" fill="#7c86ff" stroke="none" d="M 557.653564 302.01416 L 528.653564 302.01416 C 525.893433 302.011017 523.656677 299.774292 523.653564 297.01416 L 523.653564 202.01416 C 523.656677 199.254059 525.893433 197.017334 528.653564 197.01416 L 557.653564 197.01416 C 560.413635 197.017334 562.650391 199.254059 562.653564 202.01416 L 562.653564 297.01416 C 562.650391 299.774292 560.413635 302.011017 557.653564 302.01416 Z"/>
    <path id="path19" fill="#7c86ff" stroke="none" d="M 625.653564 302.01416 L 596.653564 302.01416 C 593.893433 302.011017 591.656677 299.774292 591.653564 297.01416 L 591.653564 169.01416 C 591.656677 166.254089 593.893433 164.017334 596.653564 164.01416 L 625.653564 164.01416 C 628.413635 164.017334 630.650391 166.254089 630.653564 169.01416 L 630.653564 297.01416 C 630.650391 299.774292 628.413635 302.011017 625.653564 302.01416 Z"/>
    <path id="path20" fill="#3f3d56" stroke="none" d="M 666.653564 302.01416 L 370.653534 302.01416 C 370.101257 302.01416 369.653534 301.566437 369.653534 301.01416 C 369.653534 300.461884 370.101257 300.01416 370.653534 300.01416 L 666.653564 300.01416 C 667.205811 300.01416 667.653564 300.461884 667.653564 301.01416 C 667.653564 301.566437 667.205811 302.01416 666.653564 302.01416 Z"/>
    <path id="path21" fill="#ffb8b8" stroke="none" d="M 796.701294 488.561768 C 798.341675 486.078735 800.99762 484.449829 803.954529 484.113403 C 806.911377 483.776917 809.865417 484.767395 812.021729 486.81842 L 843.776917 470.429749 L 841.802063 488.894165 L 811.949585 501.626282 C 808.181213 505.096619 802.412842 505.199951 798.522583 501.866882 C 794.632324 498.533752 793.849854 492.817749 796.701294 488.561768 Z"/>
    <path id="path22" fill="#3f3d56" stroke="none" d="M 824.024292 495.448059 C 823.303406 494.882935 822.771912 494.11145 822.50061 493.236572 L 819.974915 485.077209 C 819.419067 483.266296 820.052795 481.301025 821.561768 480.155945 L 847.299438 460.715576 L 875.1745 409.003296 C 878.350769 404.912262 883.468384 402.826599 888.599426 403.532013 C 893.730469 404.237396 898.095398 407.626709 900.049805 412.423096 C 902.004272 417.219543 901.251282 422.694275 898.074524 426.784912 L 882.216003 460.255371 C 877.404358 470.414551 869.066345 478.480164 858.752991 482.951843 L 828.59021 496.034546 C 827.417053 496.542664 826.083252 496.528381 824.921265 495.995239 C 824.601746 495.848877 824.300659 495.665222 824.024292 495.448059 Z"/>
    <path id="path23" fill="#ffb8b8" stroke="none" d="M 923.336304 362.860168 C 923.336304 376.424866 912.339966 387.421204 898.775269 387.421204 C 885.210632 387.421204 874.214233 376.424866 874.214233 362.860168 C 874.214233 349.295502 885.210632 338.299133 898.775269 338.299133 C 912.339966 338.299133 923.336304 349.295502 923.336304 362.860168 Z"/>
    <path id="path24" fill="#ffb8b8" stroke="none" d="M 888.812012 685.055969 L 876.552979 685.054993 L 870.721985 637.766968 L 888.817017 637.767944 L 888.812012 685.055969 Z"/>
    <path id="path25" fill="#2f2e41" stroke="none" d="M 867.795288 681.551697 L 891.439148 681.551697 L 891.439148 681.551697 L 891.439148 696.438538 L 891.439148 696.438538 L 852.908447 696.438538 L 852.908447 696.438538 L 852.908447 696.438538 C 852.908447 692.490295 854.476868 688.703735 857.268677 685.911926 C 860.060486 683.120117 863.847046 681.551697 867.795288 681.551697 Z"/>
    <path id="path26" fill="#ffb8b8" stroke="none" d="M 928.812012 685.057983 L 916.552979 685.056946 L 910.721985 637.767944 L 928.817017 637.769958 L 928.812012 685.057983 Z"/>
    <path id="path27" fill="#2f2e41" stroke="none" d="M 907.795288 681.553467 L 931.439148 681.553467 L 931.439148 681.553467 L 931.439148 696.440369 L 931.439148 696.440369 L 892.908447 696.440369 L 892.908447 696.440369 L 892.908447 696.440369 C 892.908447 692.492126 894.476868 688.705566 897.268677 685.913757 C 900.060486 683.121948 903.847046 681.553467 907.795288 681.553467 Z"/>
    <path id="path28" fill="#2f2e41" stroke="none" d="M 929.708008 673.058472 L 915.341064 673.0578 C 913.307739 673.054932 911.528015 671.691162 910.99646 669.728516 L 890.316895 593.027405 C 890.25 592.779846 890.006714 592.622925 889.753601 592.664246 C 889.500549 592.705505 889.319702 592.931519 889.3349 593.1875 L 893.512268 665.929871 C 893.587158 667.231201 893.093994 668.501099 892.1604 669.410767 C 891.226807 670.320435 889.94458 670.780518 888.64563 670.671875 L 872.497986 669.325378 C 870.365295 669.142761 868.654297 667.486938 868.401978 665.361328 L 853.691406 512.616455 L 859.38269 516.031799 L 912.71167 506.9776 L 934.168945 667.963928 C 934.340088 669.249695 933.948242 670.546814 933.09375 671.522705 C 932.239258 672.498535 931.005249 673.058289 929.70813 673.058472 Z"/>
    <path id="path29" fill="#3f3d56" stroke="none" d="M 871.526855 528.738403 C 865.64325 528.691284 859.879639 527.069092 854.835205 524.040405 C 853.244385 523.098083 852.395874 521.27533 852.698914 519.451416 C 854.574463 507.965149 864.382813 449.043762 873.306946 416.922058 C 876.941589 403.839233 884.978271 396.792725 897.193848 395.978821 C 915.06189 394.806824 930.943726 408.786041 932.597412 427.178711 C 935.514893 459.627075 923.664185 505.729065 918.433655 524.04425 C 918.021973 525.480591 916.923645 526.618591 915.502808 527.080933 C 914.08197 527.543274 912.524231 527.269592 911.34613 526.350586 L 900.684631 518.057129 C 899.330811 517.022644 897.431519 517.101807 896.168518 518.245361 C 887.182251 526.26062 878.645996 528.738708 871.526855 528.738403 Z"/>
    <path id="path30" fill="#000000" stroke="none" opacity="0.2" d="M 906.786987 443.057007 L 915.786011 481.057983 L 902.783997 513.056946 L 911.786011 482.057983 L 906.786987 443.057007 Z"/>
    <path id="path31" fill="#2f2e41" stroke="none" d="M 912.7901 383.057678 C 914.974854 383.098297 917.146057 382.705597 919.178101 381.902191 C 920.072266 381.557678 921.000427 381.274506 921.892822 380.929749 C 929.774658 377.88501 934.967041 369.491272 935.153442 361.043854 C 935.339722 352.596436 930.965454 344.397217 924.469727 338.993561 C 917.97406 333.589905 909.560303 330.81543 901.135254 330.173553 C 892.060059 329.482147 881.840942 331.783112 876.76947 339.340698 C 875.419495 341.352417 874.475342 343.793182 875.275085 346.22226 C 875.514648 346.955261 875.942505 347.612518 876.515808 348.128235 C 878.780396 350.14325 881.038269 348.628326 883.346924 348.494598 C 886.520203 348.31076 889.370239 350.879425 890.39447 353.888458 C 891.418701 356.897461 890.967651 360.210083 890.140381 363.279114 C 889.510193 365.125854 889.112854 367.044006 888.957642 368.989136 C 888.821777 370.972198 889.721497 372.884399 891.335938 374.043945 C 893.318787 375.242615 895.922852 374.549042 897.906921 373.352478 C 899.891052 372.155914 901.605469 370.492188 903.748657 369.611694 C 905.891846 368.731232 908.771118 368.926697 910.018433 370.879272 C 910.414856 371.589752 910.683105 372.364471 910.810974 373.167938 C 911.929016 378.262817 911.672058 377.962769 912.7901 383.057678 Z"/>
    <path id="path32" fill="#e6e6e6" stroke="none" d="M 874.721252 650.750671 L 720.925354 597.18988 C 715.430542 595.269287 712.527283 589.263306 714.435486 583.76416 L 754.401123 469.005676 C 755.808105 464.980103 760.20813 462.853027 764.236877 464.250916 L 923.232056 519.622375 C 927.327148 521.053772 929.490845 525.529968 928.068726 529.628357 L 888.146973 644.260803 C 886.22644 649.755615 880.220398 652.658875 874.721252 650.750671 Z"/>
    <path id="path33" fill="#ffffff" stroke="none" d="M 734.049316 590.59491 L 868.533142 637.430054 C 873.866028 639.287292 879.694763 636.469727 881.552002 631.136841 L 913.823975 538.470154 C 915.681213 533.137268 912.863647 527.308533 907.530762 525.451294 L 773.046936 478.616089 C 767.71405 476.758911 761.885315 479.576477 760.028076 484.909363 L 727.756042 577.57605 C 726.864197 580.136963 727.026184 582.947327 728.206421 585.388855 C 729.386597 587.830322 731.488403 589.703003 734.049316 590.59491 Z"/>
    <path id="path34" fill="#7c86ff" stroke="none" d="M 767.820007 525.488342 L 761.159729 523.168823 C 760.407959 522.906067 760.010803 522.084412 760.271851 521.332092 L 762.59137 514.671814 C 762.854065 513.920044 763.675781 513.522827 764.428101 513.783875 L 771.088379 516.103394 C 771.840149 516.36615 772.237366 517.187866 771.976257 517.940186 L 769.656799 524.600464 C 769.394043 525.352234 768.572327 525.74939 767.820007 525.488342 Z"/>
    <path id="path35" fill="#3f3d56" stroke="none" d="M 761.810364 542.744507 L 755.150146 540.424988 C 754.398376 540.162231 754.00116 539.340576 754.262207 538.588196 L 756.581726 531.927917 C 756.844482 531.176208 757.666138 530.778992 758.418518 531.040039 L 765.078796 533.359558 C 765.830505 533.622314 766.227722 534.44397 765.966675 535.19635 L 763.647156 541.856567 C 763.384399 542.608337 762.562744 543.005554 761.810364 542.744507 Z"/>
    <path id="path36" fill="#cccccc" stroke="none" d="M 755.800781 560.000671 L 749.140503 557.681152 C 748.388733 557.418396 747.991577 556.596741 748.252625 555.84436 L 750.572144 549.184082 C 750.834839 548.432373 751.656555 548.035156 752.408875 548.296204 L 759.069153 550.615723 C 759.820923 550.878479 760.21814 551.700134 759.957031 552.452515 L 757.637573 559.112793 C 757.374817 559.864502 756.553101 560.261719 755.800781 560.000671 Z"/>
    <path id="path37" fill="#cccccc" stroke="none" d="M 812.57428 537.340393 L 780.483887 526.164612 C 779.99585 525.996094 779.635132 525.57959 779.537903 525.072571 C 779.440735 524.565491 779.621948 524.045166 780.013062 523.708191 C 780.404236 523.371155 780.945618 523.26886 781.432739 523.439941 L 813.523132 534.615723 C 814.011169 534.784241 814.371887 535.200684 814.469055 535.707764 C 814.566223 536.214844 814.38501 536.735168 813.993896 537.072144 C 813.602783 537.40918 813.061401 537.511475 812.57428 537.340393 Z"/>
    <path id="path38" fill="#cccccc" stroke="none" d="M 806.564636 554.596558 L 774.474243 543.420776 C 773.721863 543.158752 773.324341 542.336365 773.586365 541.583984 C 773.848389 540.831604 774.670715 540.434082 775.423157 540.696106 L 807.51355 551.871887 C 808.001282 552.040588 808.361816 552.457031 808.458862 552.963928 C 808.555908 553.470825 808.374756 553.990967 807.983826 554.327942 C 807.592896 554.664917 807.051697 554.767334 806.564636 554.596558 Z"/>
    <path id="path39" fill="#cccccc" stroke="none" d="M 800.554993 571.852722 L 768.4646 560.676941 C 767.712219 560.414917 767.314697 559.592529 767.576721 558.840149 C 767.838745 558.087769 768.661072 557.690247 769.413513 557.952271 L 801.503906 569.128052 C 802.256287 569.390076 802.653809 570.212402 802.391785 570.964783 C 802.129761 571.717224 801.307373 572.114746 800.554993 571.852722 Z"/>
    <path id="path40" fill="#7c86ff" stroke="none" d="M 885.953735 581.202087 C 886.187439 580.641296 886.407654 580.071411 886.610107 579.490112 C 892.1026 563.718811 883.77002 546.481201 867.998779 540.988647 L 857.450989 571.275757 Z"/>
    <path id="path41" fill="#3f3d56" stroke="none" d="M 854.383545 573.118408 L 864.931274 542.831299 C 849.385071 537.416504 832.363586 545.432678 826.635864 560.866333 C 820.908142 576.299988 828.578857 593.479919 843.893677 599.51825 C 859.208496 605.55658 876.539856 598.234436 882.886292 583.044739 Z"/>
    <path id="path42" fill="#ffb8b8" stroke="none" d="M 892.14502 529.671814 C 891.903442 526.705688 892.988098 523.784851 895.107117 521.695374 C 897.226135 519.605835 900.161865 518.562256 903.124329 518.845398 L 917.99762 486.352905 L 927.838501 502.100647 L 912.20575 530.541809 C 911.382202 535.598022 906.906982 539.239136 901.78894 539.017151 C 896.670898 538.795227 892.527771 534.780334 892.14502 529.671814 Z"/>
    <path id="path43" fill="#3f3d56" stroke="none" d="M 917.894287 518.228821 C 916.978271 518.228943 916.083984 517.94989 915.330627 517.428894 L 908.307861 512.5672 C 906.752991 511.485352 906.038818 509.547852 906.519531 507.715576 L 914.774597 476.535278 L 904.795837 418.642273 C 904.764587 413.459167 907.502991 408.653717 911.97821 406.038635 C 916.453369 403.423553 921.984253 403.39679 926.484497 405.968445 C 930.984741 408.5401 933.769653 413.318848 933.788452 418.502014 L 941.965332 454.625427 C 944.448608 465.588745 942.865112 477.080872 937.509521 486.964111 L 921.848999 515.872498 C 921.239441 516.996277 920.181091 517.808167 918.937744 518.105774 C 918.596008 518.187805 918.245789 518.229065 917.894287 518.228821 Z"/>
    <path id="path44" fill="#a0616a" stroke="none" d="M 490.540985 684.557983 L 502.800995 684.556946 L 508.632996 637.269958 L 490.539001 637.269958 L 490.540985 684.557983 Z"/>
    <path id="path45" fill="#2f2e41" stroke="none" d="M 487.414001 680.55542 L 511.5578 680.554443 L 511.558777 680.554443 C 515.639526 680.554321 519.553162 682.175293 522.438721 685.060791 C 525.32428 687.946289 526.945313 691.859924 526.945251 695.940674 L 526.945251 696.440674 L 487.414734 696.442139 Z"/>
    <path id="path46" fill="#a0616a" stroke="none" d="M 441.540985 684.557983 L 453.800995 684.556946 L 459.632996 637.269958 L 441.539001 637.269958 L 441.540985 684.557983 Z"/>
    <path id="path47" fill="#2f2e41" stroke="none" d="M 438.414001 680.55542 L 462.5578 680.554443 L 462.558777 680.554443 C 466.639526 680.554321 470.553162 682.175293 473.438721 685.060791 C 476.32428 687.946289 477.945313 691.859924 477.945251 695.940674 L 477.945251 696.440674 L 438.414734 696.442139 Z"/>
    <path id="path48" fill="#a0616a" stroke="none" d="M 517.549194 332.615967 C 517.549194 346.180664 506.552887 357.177002 492.98819 357.177002 C 479.423523 357.177002 468.427155 346.180664 468.427155 332.615967 C 468.427155 319.0513 479.423523 308.054932 492.98819 308.054932 C 506.552887 308.054932 517.549194 319.0513 517.549194 332.615967 Z"/>
    <path id="path49" fill="#2f2e41" stroke="none" d="M 509.504639 674.351868 L 486.753906 674.351868 C 485.550964 674.351746 484.398193 673.870056 483.552795 673.014343 C 482.707397 672.158569 482.239807 671 482.254395 669.79718 L 483.576355 561.76593 C 483.586365 560.969177 482.971741 560.30365 482.176697 560.250366 C 481.381653 560.197144 480.683716 560.77478 480.587341 561.565735 L 467.34668 670.395813 C 467.069946 672.653137 465.15387 674.350037 462.879639 674.351868 L 439.9104 674.351868 C 438.655945 674.35199 437.458435 673.82843 436.606628 672.907532 C 435.754883 671.986572 435.326233 670.751892 435.424072 669.501282 L 450.591553 475.426086 L 451.003906 475.381165 L 523.632813 467.537415 L 513.999756 670.065735 C 513.888123 672.466431 511.907898 674.354614 509.504639 674.351868 Z"/>
    <path id="path50" fill="#3f3d56" stroke="none" d="M 451.475586 487.340149 C 449.049988 487.334595 447.06604 485.406189 446.991699 482.98175 C 446.595215 470.710266 445.915771 428.249329 453.81366 397.076477 C 458.239197 379.591949 473.589539 367.066101 491.606384 366.23761 L 491.606384 366.23761 C 509.320007 365.270264 525.662231 375.755859 532.164978 392.261047 C 545.440369 425.964172 557.982849 467.507141 542.345886 474.022766 C 521.851013 482.561829 467.822449 486.368469 451.751648 487.33136 C 451.659159 487.337219 451.567139 487.340149 451.475586 487.340149 Z"/>
    <path id="path51" fill="#a0616a" stroke="none" d="M 545.346863 307.791931 C 545.732788 308.188477 546.149414 308.553986 546.592834 308.88504 L 544.014587 358.411224 L 533.290344 363.901733 L 539.461121 381.169495 L 559.390869 373.294617 C 562.698059 371.987823 564.745728 368.654846 564.416626 365.114075 L 559.195496 308.934601 C 562.693665 306.324615 564.211853 301.822327 563.008484 297.626953 C 561.805054 293.43161 558.131226 290.418579 553.781433 290.059662 C 549.431702 289.700745 545.31366 292.070831 543.438904 296.012238 C 541.564087 299.953613 542.323792 304.64386 545.346863 307.791931 Z"/>
    <path id="path52" fill="#3f3d56" stroke="none" d="M 544.218079 360.254761 L 551.762207 381.693665 C 552.196594 382.928009 552.072144 384.290283 551.421326 385.425476 C 550.770508 386.560669 549.657837 387.356384 548.373169 387.605225 L 526.127747 391.913055 C 519.616516 394.163574 512.512024 390.720367 510.244263 384.215118 C 507.976563 377.709839 511.400879 370.596283 517.900146 368.31131 L 537.87384 357.768311 C 539.031189 357.157837 540.396973 357.08136 541.615295 357.558868 C 542.833557 358.036346 543.783691 359.020477 544.218079 360.254791 Z"/>
    <path id="path53" fill="#a0616a" stroke="none" d="M 438.960205 307.791931 C 438.57428 308.188477 438.157654 308.553986 437.714294 308.88504 L 440.292542 358.411224 L 451.016724 363.901733 L 444.846008 381.169495 L 424.91626 373.294617 C 421.60907 371.987823 419.561401 368.654846 419.890503 365.114075 L 425.111633 308.934601 C 421.613464 306.324615 420.095276 301.822327 421.298706 297.626953 C 422.502075 293.43161 426.175903 290.418579 430.525696 290.059662 C 434.875427 289.700745 438.993469 292.070831 440.868225 296.012238 C 442.743042 299.953613 441.983337 304.64386 438.960266 307.791931 Z"/>
    <path id="path54" fill="#3f3d56" stroke="none" d="M 442.692078 357.558746 C 443.910217 357.080719 445.276184 357.157227 446.433289 357.76828 L 466.406921 368.311279 C 472.906189 370.596252 476.330566 377.709808 474.062805 384.215088 C 471.795044 390.720337 464.690613 394.163544 458.179321 391.913055 L 435.933899 387.605225 C 434.649292 387.356354 433.53656 386.560669 432.885742 385.425446 C 432.234985 384.290253 432.110535 382.927979 432.544861 381.693665 L 440.08905 360.254761 C 440.522827 359.019989 441.473267 358.035614 442.692078 357.558746 Z"/>
    <path id="path55" fill="#2f2e41" stroke="none" d="M 502.527405 336.802551 C 502.263794 330.400543 505.811401 324.448608 511.567993 321.634888 C 519.033875 317.780823 523.723999 309.559753 521.668823 302.052795 C 519.038208 292.443909 505.960205 286.212067 495.363647 289.518005 C 492.49585 290.536133 489.730103 291.821564 487.102844 293.35733 L 480.179749 297.068329 C 477.222351 298.548859 474.37085 300.232178 471.645752 302.106171 C 463.332092 308.232574 459.013123 318.399292 460.375488 328.6362 C 461.738831 338.404877 468.136169 347.363617 476.893127 353.497192 C 480.242065 356.000061 484.110046 357.71933 488.211914 358.528259 C 492.409424 359.220337 497.082214 358.433807 500.151306 355.823486 C 504.947571 351.74411 504.452087 344.91275 502.900818 339.207123 C 502.695801 338.420197 502.57074 337.614594 502.527405 336.802551 Z"/>
    <path id="path56" fill="#e6e6e6" stroke="none" d="M 275.909698 514.57251 L 119.132553 578.889771 C 113.526428 581.182312 107.122528 578.504211 104.817368 572.90332 L 56.82547 455.920288 C 55.145874 451.813232 57.107758 447.121582 61.211044 445.432739 L 223.288147 378.941101 C 227.466339 377.232544 232.239075 379.228516 233.957031 383.402863 L 281.896179 500.257263 C 284.18869 505.863403 281.51062 512.267334 275.909698 514.57251 Z"/>
    <path id="path57" fill="#ffffff" stroke="none" d="M 124.811432 564.700806 L 261.90213 508.459778 C 267.338379 506.229614 269.937408 500.014709 267.707214 494.57843 L 228.954071 400.115479 C 226.723846 394.67923 220.508942 392.0802 215.072693 394.310425 L 77.981995 450.551392 C 75.371414 451.622375 73.293198 453.686584 72.204529 456.289795 C 71.115875 458.893066 71.105942 461.822205 72.176926 464.4328 L 110.930054 558.895752 C 112.001038 561.506287 114.065201 563.584534 116.668472 564.673218 C 119.271729 565.761841 122.200836 565.77179 124.811432 564.700806 Z"/>
    <path id="path58" fill="#e6e6e6" stroke="none" d="M 226.18103 426.703827 L 228.196548 425.876953 L 228.334366 426.212891 L 226.318848 427.039734 Z"/>
    <path id="path59" fill="#e6e6e6" stroke="none" d="M 222.247131 428.710144 L 218.175415 430.380554 L 218.037598 430.044617 L 222.109314 428.374207 Z M 214.103607 432.050964 L 210.031891 433.721375 L 209.894104 433.385498 L 213.96579 431.715088 Z M 205.960114 435.391846 L 201.888397 437.062256 L 201.75058 436.726318 L 205.822296 435.055908 Z M 197.816589 438.732666 L 193.744873 440.403076 L 193.607056 440.0672 L 197.678772 438.39679 Z M 189.673065 442.073547 L 185.601379 443.743958 L 185.463562 443.40802 L 189.535278 441.73761 Z M 181.529572 445.414429 L 177.457855 447.084839 L 177.320038 446.748901 L 181.391754 445.078491 Z M 173.386047 448.755249 L 169.314362 450.425659 L 169.176544 450.089783 L 173.24826 448.419373 Z M 165.242554 452.09613 L 161.170837 453.766541 L 161.03302 453.430603 L 165.104736 451.760193 Z M 157.09903 455.436951 L 153.027313 457.107361 L 152.889511 456.771484 L 156.961243 455.101074 Z M 148.955536 458.777832 L 144.883804 460.448242 L 144.746002 460.112305 L 148.817719 458.441895 Z M 140.811996 462.118713 L 136.74028 463.789124 L 136.602463 463.453186 L 140.674194 461.782776 Z M 132.668488 465.459534 L 128.596771 467.129944 L 128.458954 466.794006 L 132.530685 465.123596 Z M 124.524979 468.800415 L 120.453262 470.470825 L 120.315445 470.134888 L 124.387177 468.464478 Z M 116.38147 472.141235 L 112.309677 473.811707 L 112.17186 473.475769 L 116.243668 471.805298 Z M 108.237961 475.482117 L 104.166245 477.152527 L 104.028427 476.816589 L 108.100143 475.146179 Z M 100.094452 478.822937 L 96.022644 480.493408 L 95.884842 480.157471 L 99.956635 478.487061 Z"/>
    <path id="path60" fill="#e6e6e6" stroke="none" d="M 89.797615 482.654755 L 91.813133 481.827881 L 91.950943 482.163818 L 89.935432 482.990662 Z"/>
    <path id="path61" fill="#e6e6e6" stroke="none" d="M 172.821198 485.092957 L 174.836716 484.266113 L 174.974533 484.602051 L 172.959015 485.428894 Z"/>
    <path id="path62" fill="#e6e6e6" stroke="none" d="M 168.947662 487.074463 L 164.936371 488.720093 L 164.798584 488.384155 L 168.809845 486.738586 Z M 160.92511 490.365723 L 156.913849 492.011353 L 156.776031 491.675415 L 160.787292 490.029785 Z M 152.902573 493.656921 L 148.891296 495.302551 L 148.753479 494.966614 L 152.764755 493.321045 Z M 144.880005 496.948181 L 140.868729 498.593811 L 140.730927 498.257874 L 144.742188 496.612305 Z M 136.857483 500.239502 L 132.84613 501.885132 L 132.708313 501.549194 L 136.719666 499.903564 Z M 128.834854 503.530762 L 124.823578 505.176331 L 124.685776 504.840454 L 128.697037 503.194824 Z M 120.812317 506.82196 L 116.801041 508.46759 L 116.663223 508.131653 L 120.6745 506.486084 Z M 112.789764 510.11322 L 108.778503 511.758789 L 108.640686 511.422913 L 112.651962 509.777283 Z"/>
    <path id="path63" fill="#e6e6e6" stroke="none" d="M 102.613976 513.895264 L 104.629486 513.06842 L 104.767303 513.404358 L 102.751793 514.231201 Z"/>
    <path id="path64" fill="#e6e6e6" stroke="none" d="M 139.582245 515.997192 L 141.597748 515.170349 L 141.735565 515.506287 L 139.720062 516.33313 Z"/>
    <path id="path65" fill="#e6e6e6" stroke="none" d="M 135.593063 518.026245 L 131.466064 519.719299 L 131.328247 519.383362 L 135.455246 517.690308 Z M 127.339005 521.412415 L 123.212006 523.10553 L 123.074188 522.769592 L 127.201187 521.076477 Z M 119.085007 524.798584 L 114.957993 526.491699 L 114.82019 526.155762 L 118.947189 524.462708 Z"/>
    <path id="path66" fill="#e6e6e6" stroke="none" d="M 108.67762 528.67572 L 110.693146 527.848877 L 110.830956 528.184814 L 108.81543 529.011658 Z"/>
    <path id="path67" fill="#e6e6e6" stroke="none" d="M 149.930023 541.220459 L 151.945526 540.393616 L 152.083344 540.729553 L 150.067825 541.556396 Z"/>
    <path id="path68" fill="#e6e6e6" stroke="none" d="M 145.940857 543.249512 L 141.813843 544.942566 L 141.676041 544.606628 L 145.80304 542.913574 Z M 137.686783 546.635681 L 133.559784 548.328796 L 133.421982 547.992859 L 137.548981 546.299805 Z M 129.432785 550.021851 L 125.305786 551.714966 L 125.167984 551.379028 L 129.294983 549.685974 Z"/>
    <path id="path69" fill="#e6e6e6" stroke="none" d="M 119.025406 553.898987 L 121.040916 553.072144 L 121.178734 553.408081 L 119.163223 554.234924 Z"/>
    <path id="path70" fill="#7c86ff" stroke="none" d="M 130.632446 549.830872 L 246.807495 502.170349 C 252.661713 499.760986 255.460907 493.067444 253.064667 487.207825 L 229.59201 429.992004 L 229.365051 430.092773 L 200.855774 498.259766 L 179.711121 489.419922 C 178.920227 489.086609 178.018921 489.142883 177.275604 489.571899 C 176.725037 489.903259 176.299042 490.40686 176.063599 491.004761 L 161.122314 526.726379 L 145.662476 520.263977 C 144.98877 519.981995 144.230606 519.979309 143.554901 520.256531 C 142.879196 520.533752 142.34137 521.068115 142.059814 521.742004 C 141.960846 521.98468 132.428482 545.372559 130.632446 549.830872 Z"/>
    <path id="path71" fill="#3f3d56" stroke="none" d="M 130.274826 550.369629 L 129.93988 550.229553 L 141.894455 521.643127 C 142.553421 520.072021 144.359894 519.330933 145.932373 519.986633 L 161.086884 526.324097 L 175.943054 490.799194 C 176.60202 489.228088 178.408478 488.487 179.980988 489.142639 L 200.820251 497.857422 L 229.476074 429.334045 L 229.811035 429.474121 L 201.015106 498.332458 L 179.840912 489.4776 C 179.174622 489.198975 178.424896 489.196411 177.756714 489.47052 C 177.088531 489.744629 176.55661 490.27301 176.278015 490.939331 L 161.281738 526.799133 L 145.792313 520.321594 C 144.4048 519.743347 142.81105 520.397156 142.229401 521.783264 Z"/>
    <path id="path72" fill="#3f3d56" stroke="none" d="M 144.208282 515.338318 C 144.208282 516.742004 143.070374 517.879944 141.666672 517.879944 C 140.26297 517.879944 139.125046 516.742004 139.125046 515.338318 C 139.125046 513.934631 140.26297 512.796692 141.666672 512.796692 C 143.070374 512.796692 144.208282 513.934631 144.208282 515.338318 Z"/>
    <path id="path73" fill="#3f3d56" stroke="none" d="M 177.447235 484.434082 C 177.447235 485.837769 176.309311 486.975647 174.905624 486.975647 C 173.501923 486.975647 172.363998 485.837769 172.363998 484.434082 C 172.363998 483.030334 173.501923 481.892456 174.905624 481.892456 C 176.309311 481.892456 177.447235 483.030334 177.447235 484.434082 Z"/>
    <path id="path74" fill="#3f3d56" stroke="none" d="M 229.203918 425.955048 C 229.203918 427.358734 228.065994 428.496674 226.662292 428.496674 C 225.258606 428.496674 224.120682 427.358734 224.120682 425.955048 C 224.120682 424.551361 225.258606 423.413422 226.662292 423.413422 C 228.065994 423.413422 229.203918 424.551361 229.203918 425.955048 Z"/>
    <path id="path75" fill="#ffb8b8" stroke="none" d="M 84.401093 512.454346 C 87.07576 511.123352 89.023514 508.676025 89.72023 505.770874 C 90.416946 502.865723 89.791077 499.801147 88.011017 497.401794 L 95.559616 423.597534 L 79.246323 423.597534 L 73.247253 495.663635 C 69.32872 498.994263 68.520615 504.729431 71.366257 509.013184 C 74.211899 513.296936 79.811813 514.77533 84.401093 512.454346 Z"/>
    <path id="path76" fill="#ffb8b8" stroke="none" d="M 122.459686 359.78656 C 122.459686 372.533325 112.126396 382.866608 99.379631 382.866608 C 86.632866 382.866608 76.299568 372.533325 76.299568 359.78656 C 76.299568 347.039795 86.632866 336.706482 99.379631 336.706482 C 112.126396 336.706482 122.459686 347.039795 122.459686 359.78656 Z"/>
    <path id="path77" fill="#ff6584" stroke="none" d="M 103.724686 466.578796 C 101.825745 466.578247 100.16098 465.309631 99.656631 463.478882 C 97.80751 456.760559 92.996582 445.40155 85.357819 429.715698 C 81.871628 422.543945 81.612625 414.225098 84.645935 406.850372 C 87.67923 399.475647 93.716339 393.746429 101.239624 391.102997 L 101.239624 391.102997 C 108.361023 388.588501 116.196854 389.062378 122.963318 392.416809 C 129.729782 395.77124 134.851105 401.720764 137.161453 408.911011 C 143.082306 427.473816 142.796448 447.358032 142.398636 455.044495 C 142.29715 456.947205 140.938583 458.548401 139.077789 458.958435 L 104.631592 466.480652 C 104.33374 466.546143 104.029648 466.579041 103.724686 466.578796 Z"/>
    <path id="path78" fill="#ffb8b8" stroke="none" d="M 137.082001 685.743958 L 148.602005 685.743958 L 154.082993 641.306946 L 137.080002 641.307983 L 137.082001 685.743958 Z"/>
    <path id="path79" fill="#2f2e41" stroke="none" d="M 170.820938 696.440491 L 134.61351 696.442139 L 134.61351 696.442139 L 134.612885 682.452942 L 134.612885 682.452942 L 156.831085 682.451904 C 164.557129 682.451599 170.820587 688.714478 170.820938 696.440491 L 170.820938 696.440491 L 170.820938 696.440491 Z"/>
    <path id="path80" fill="#ffb8b8" stroke="none" d="M 21.882 670.813965 L 31.978001 676.363953 L 58.189999 640.065979 L 43.291 631.873962 L 21.882 670.813965 Z"/>
    <path id="path81" fill="#2f2e41" stroke="none" d="M 46.293938 696.442139 L 14.565427 678.998535 L 14.565427 678.998535 L 21.304979 666.739807 L 21.304979 666.739807 L 40.774757 677.443848 C 47.545071 681.166016 50.016087 689.671814 46.293938 696.442139 L 46.293938 696.442139 L 46.293938 696.442139 Z"/>
    <path id="path82" fill="#2f2e41" stroke="none" d="M 136.543625 661.079834 C 134.420029 661.078003 132.627258 659.501282 132.354187 657.395325 L 117.946411 546.370972 C 117.815781 545.363586 117.052536 544.55426 116.05455 544.364929 C 115.056564 544.175598 114.049927 544.649109 113.559402 545.538635 L 53.513702 654.478943 C 52.489731 656.3172 50.275177 657.129944 48.305191 656.390442 L 35.216995 651.403809 C 34.153519 650.998718 33.298218 650.182068 32.844452 649.138428 C 32.390686 648.094788 32.376755 646.912292 32.805817 645.858276 L 74.401001 543.677551 C 74.506317 543.41803 74.577728 543.145996 74.613434 542.868164 C 80.247284 499.262878 94.581665 477.088074 98.840607 471.330566 C 99.471909 470.471802 99.645752 469.359497 99.306595 468.348999 L 98.721115 466.59259 C 98.2453 465.174194 98.554794 463.609924 99.534882 462.479614 C 114.881439 444.999695 141.629883 454.538025 141.898346 454.63623 L 142.032333 454.68573 L 142.116333 454.800476 C 172.109283 495.933533 161.019806 629.532837 158.49234 655.89679 C 158.297546 657.942383 156.656738 659.549744 154.607574 659.702393 L 136.87207 661.067932 C 136.761795 661.076111 136.652359 661.079834 136.543625 661.079834 Z"/>
    <path id="path83" fill="#ffb8b8" stroke="none" d="M 189.106201 386.596497 C 188.990875 387.103516 188.91568 387.618866 188.881348 388.137726 L 148.514114 411.425415 L 138.702301 405.776917 L 128.242294 419.47052 L 144.640427 431.158142 C 147.361603 433.097595 151.036377 433.008057 153.659882 430.938354 L 195.285431 398.099701 C 199.131744 399.523468 203.457764 398.418671 206.15036 395.324951 C 208.842987 392.231232 209.340332 387.794159 207.399475 384.181061 C 205.458618 380.567993 201.484558 378.532837 197.418488 379.069702 C 193.352386 379.606598 190.042755 382.603485 189.106201 386.596497 Z"/>
    <path id="path84" fill="#ff6584" stroke="none" d="M 147.164597 412.528381 L 134.118027 429.437378 C 133.366852 430.410889 132.229156 431.009216 131.001373 431.076477 C 129.773605 431.143738 128.577347 430.673218 127.724365 429.787537 L 112.954742 414.4505 C 107.852203 410.467041 106.935257 403.105713 110.904678 397.992218 C 114.874084 392.878723 122.232834 391.941559 127.357224 395.896881 L 145.881546 406.255005 C 146.95459 406.855469 147.713135 407.89325 147.959518 409.097931 C 148.205902 410.302612 147.915726 411.554871 147.164597 412.528381 Z"/>
    <path id="path85" fill="#ff6584" stroke="none" d="M 96.597855 441.905518 L 75.580627 438.110535 C 74.37056 437.892029 73.315536 437.157654 72.690475 436.098755 C 72.065414 435.039856 71.932236 433.761292 72.325623 432.596313 L 79.139008 412.423401 C 80.325043 406.059296 86.437485 401.855194 92.804733 403.02417 C 99.171997 404.193176 103.392441 410.294373 102.240494 416.664734 L 101.575745 437.877869 C 101.53685 439.106873 100.964935 440.258118 100.009018 441.031555 C 99.053116 441.804993 97.807892 442.124023 96.597824 441.905518 Z"/>
    <path id="path86" fill="#2f2e41" stroke="none" d="M 103.032639 354.477844 C 108.964706 358.537842 116.753647 362.711273 122.812347 358.387726 C 126.70491 355.423462 128.178284 350.248413 126.430771 345.678375 C 123.529663 337.382141 115.558945 333.729767 107.936935 330.930145 C 98.028336 327.290619 87.239304 324.395203 77.010284 327.001678 C 66.78125 329.608124 57.741104 339.511841 59.587646 349.904968 C 61.072586 358.262878 68.956467 365.217346 67.837265 373.63205 C 66.710861 382.1008 57.186874 386.558502 48.778687 388.072052 C 40.370514 389.585602 30.961563 390.07193 24.918953 396.111389 C 17.21048 403.815826 19.135422 417.58667 26.388763 425.721008 C 33.64212 433.855347 44.587845 437.542542 55.194229 440.049194 C 69.247055 443.3703 84.446228 445.115662 97.792892 439.603943 C 111.139572 434.092224 121.525711 419.25531 117.659393 405.342621 C 116.026276 399.465912 112.179138 394.499329 108.461075 389.664154 C 104.743027 384.82901 100.978134 379.772827 99.559875 373.840607 C 98.377975 368.897095 99.252747 363.15744 102.531036 359.449219 C 103.754318 358.117645 103.979889 356.149353 103.089584 354.575531 Z"/>
</svg>
