<?xml version="1.0" encoding="UTF-8"?>
<!-- Generated by Pixelmator Pro 3.7 -->
<svg width="926" height="600" viewBox="0 0 926 600" xmlns="http://www.w3.org/2000/svg">
    <g id="Group249-copia">
        <path id="Path2957-370" fill="#2f2e41" stroke="none" d="M 590.249756 487.380798 L 607.173401 561.829468 L 617.985718 573.672485 L 625.785889 573.672485 L 593.633362 438.310486 L 592.043213 461.306641 L 592.043213 461.323059 Z"/>
        <path id="Path2958-371" fill="#2f2e41" stroke="none" d="M 508.817719 563.464233 L 608.083069 562.835449 L 616.897461 562.776672 L 623.180298 562.733215 L 630.499756 562.689758 L 630.558533 562.689758 C 631.620422 562.691772 632.638794 563.111877 633.39325 563.859131 L 645.753357 576.220398 C 646.027344 576.491516 646.249939 576.81012 646.410339 577.160645 C 646.487549 577.258789 646.551514 577.366638 646.600769 577.481445 C 647.144836 578.743896 647.024475 580.194458 646.279785 581.349915 C 645.535034 582.505432 644.263733 583.214233 642.889282 583.240173 L 514.296753 583.240173 C 512.721741 583.234741 511.289734 582.325623 510.614685 580.902588 L 509.606293 578.710754 L 507.532013 574.254211 L 505.181488 569.227661 C 504.930298 568.692627 504.80069 568.108704 504.80188 567.5177 C 504.813263 565.298401 506.600952 563.49762 508.820038 563.470093 Z"/>
        <path id="Path2959-372" fill="#000000" stroke="none" opacity="0.17" d="M 509.603973 578.698975 L 510.619385 580.899048 C 511.293274 582.317932 512.720154 583.225525 514.290894 583.234253 L 642.888123 583.234253 C 644.264221 583.21283 645.53833 582.504639 646.283081 581.347229 C 647.027771 580.189941 647.144409 578.736816 646.593689 577.475525 C 646.548096 577.359741 646.485046 577.251587 646.40686 577.154724 Z"/>
        <path id="Path2960-373" fill="#2f2e41" stroke="none" opacity="0.17" d="M 592.044312 461.306641 L 592.044312 461.323059 L 619.573486 573.677185 L 625.783508 573.677185 L 593.63446 438.310486 Z"/>
        <path id="Path2961-374" fill="#2f2e41" stroke="none" d="M 558.26062 481.892334 L 597.227295 185.425629 C 597.370361 184.314728 597.94812 183.305878 598.833862 182.62027 L 625.658936 149.044464 L 628.069397 147.188751 C 628.962646 146.51239 630.085449 146.213287 631.196777 146.35553 L 635.229004 146.896088 C 637.544067 147.196228 639.178589 149.314606 638.881714 151.630035 L 638.881714 151.630035 L 598.498901 458.806885 L 598.498901 458.820984 L 596.030884 477.610901 L 593.092712 499.921875 L 593.092712 499.951263 L 588.533936 534.665833 C 588.386963 535.869629 587.71936 536.948303 586.707581 537.616943 C 585.712708 538.302246 584.470764 538.525879 583.299316 538.230408 L 580.741943 537.587524 C 579.762573 537.335388 578.903503 536.745605 578.316284 535.92218 L 577.17627 534.300354 L 576.64978 533.541138 L 558.999817 484.885681 C 558.382935 484.017639 558.118774 482.947754 558.26062 481.892334 Z"/>
        <path id="Path2962-375" fill="#2f2e41" stroke="none" opacity="0.17" d="M 625.668335 149.045685 L 576.65094 533.546997 L 577.18335 534.299194 L 578.318604 535.916321 C 578.904785 536.741089 579.764221 537.331543 580.744324 537.582764 L 583.305237 538.226868 C 584.4776 538.517578 585.718323 538.295105 586.716614 537.615112 C 587.714905 536.93512 588.376282 535.862122 588.535095 534.664673 L 638.875854 151.634766 C 639.180054 149.318268 637.549011 147.193695 635.232544 146.889069 L 631.189697 146.35788 C 630.081726 146.208252 628.960144 146.509735 628.076477 147.194641 Z"/>
        <path id="Path2963-376" fill="#7c86ff" stroke="none" d="M 624.222839 160.042511 L 598.210938 197.169891 L 567.294739 432.406006 L 584.056213 465.658569 Z"/>
        <path id="Path2980-377" fill="#a7a7a7" stroke="none" d="M 592.59668 348.080444 L 592.59668 348.080444 C 592.504761 347.341003 591.839844 346.809601 591.098328 346.882904 L 365.684937 347.483459 C 364.945435 347.414429 364.285583 347.947113 364.197083 348.68457 L 364.197083 348.68457 C 364.289093 349.424072 364.953888 349.955383 365.695526 349.882141 L 591.108826 349.281616 C 591.848328 349.350616 592.508179 348.817932 592.59668 348.080444 Z"/>
        <path id="Path2981-378" fill="#7c86ff" stroke="none" d="M 532.985596 486.911865 L 542.556885 497.439728 C 543.463013 498.201691 544.72998 498.366028 545.800537 497.860474 C 547.388062 497.298584 548.800659 496.330566 549.897522 495.052826 C 556.737732 487.289001 564.417053 480.306946 572.794922 474.234375 C 574.170898 473.263916 575.268616 471.949829 575.978699 470.423096 C 576.566467 469.421021 576.538757 468.173096 575.906982 467.198181 C 575.811829 461.439453 572.566895 457.870178 566.261719 456.590332 C 565.155762 455.439758 562.659546 455.876953 560.420715 457.622192 C 551.213196 464.806213 542.559998 472.673706 534.534607 481.157776 C 532.56488 483.242737 531.898499 485.716614 532.985596 486.911865 Z"/>
        <path id="Path2982-379" fill="#ffffff" stroke="none" d="M 557.588318 464.25061 L 565.644653 473.11084 C 565.923218 473.416382 566.593079 473.260071 567.143127 472.75824 C 567.693115 472.256409 567.911743 471.606506 567.634338 471.299805 L 559.578003 462.439575 C 559.299438 462.133972 558.629578 462.290344 558.07959 462.792114 C 557.529541 463.293945 557.308594 463.945068 557.588318 464.25061 Z"/>
        <path id="Path2983-380" fill="#ffffff" stroke="none" d="M 549.631836 471.485474 L 557.688232 480.345703 C 557.966736 480.651306 558.636658 480.494934 559.186646 479.993103 C 559.736694 479.491333 559.955261 478.84137 559.677917 478.535828 L 551.621582 469.675598 C 551.343018 469.369995 550.673096 469.526367 550.123108 470.028198 C 549.57312 470.530029 549.353333 471.179932 549.631836 471.485474 Z"/>
        <path id="Path2984-381" fill="#ffffff" stroke="none" d="M 541.675476 478.717957 L 549.731812 487.578186 C 550.010376 487.883728 550.680237 487.727478 551.230286 487.225586 C 551.780273 486.723755 551.99884 486.073853 551.721497 485.767151 L 543.665161 476.906921 C 543.386597 476.601318 542.716736 476.757629 542.166687 477.25946 C 541.616699 477.761292 541.398071 478.412415 541.675476 478.717957 Z"/>
        <path id="Path2988-382" fill="#e6e6e6" stroke="none" d="M 300.278625 429.733459 L 389.550781 429.733459 C 394.531982 429.727051 398.568054 425.68988 398.573212 420.70874 L 398.573212 302.501862 C 398.567383 297.52066 394.530762 293.4841 389.549652 293.478302 L 300.277466 293.478302 C 295.296295 293.4841 291.259735 297.52066 291.253906 302.501862 L 291.253906 420.70874 C 291.259735 425.690369 295.296997 429.727112 300.278625 429.7323 Z"/>
        <path id="Path2989-383" fill="#ffffff" stroke="none" d="M 306.554474 422.170715 L 383.276123 422.170715 C 387.699615 422.166199 391.284485 418.58136 391.289001 414.157837 L 391.289001 308.972778 C 391.284485 304.549286 387.699615 300.964447 383.276123 300.95993 L 306.554474 300.95993 C 302.131012 300.964447 298.546143 304.549286 298.541626 308.972778 L 298.541626 414.157837 C 298.546143 418.58136 302.131012 422.166199 306.554474 422.170715 Z"/>
        <path id="Path2990-384" fill="#7c86ff" stroke="none" d="M 314.207764 320.947449 L 375.622864 320.947449 C 376.729279 320.947449 377.626129 320.050598 377.626129 318.944214 C 377.626129 317.837891 376.729279 316.94101 375.622864 316.94101 L 314.207764 316.94101 C 313.101379 316.94101 312.204529 317.837891 312.204529 318.944214 C 312.204529 320.050598 313.101379 320.947449 314.207764 320.947449 Z"/>
        <path id="Path2991-385" fill="#7c86ff" stroke="none" d="M 314.207764 328.866272 L 375.622864 328.866272 C 376.729279 328.866272 377.626129 327.969421 377.626129 326.863098 C 377.626129 325.756714 376.729279 324.859833 375.622864 324.859833 L 314.207764 324.859833 C 313.101379 324.859833 312.204529 325.756714 312.204529 326.863098 C 312.204529 327.969421 313.101379 328.866272 314.207764 328.866272 Z"/>
        <path id="Path2992-386" fill="#7c86ff" stroke="none" d="M 349.001099 336.779297 L 375.622894 336.779297 C 376.729187 336.779297 377.626068 335.882416 377.626068 334.776031 C 377.626068 333.669708 376.729187 332.772827 375.622894 332.772827 L 349.001099 332.772827 C 347.894714 332.772827 346.997864 333.669708 346.997864 334.776031 C 346.997864 335.882416 347.894714 336.779297 349.001099 336.779297 Z"/>
        <path id="Path2993-387" fill="#e4e4e4" stroke="none" d="M 314.207764 353.35144 L 375.622864 353.35144 C 376.729279 353.35144 377.626129 352.45459 377.626129 351.348267 C 377.626129 350.241882 376.729279 349.345032 375.622864 349.345032 L 314.207764 349.345032 C 313.101379 349.345032 312.204529 350.241882 312.204529 351.348267 C 312.204529 352.45459 313.101379 353.35144 314.207764 353.35144 Z"/>
        <path id="Path2994-388" fill="#e4e4e4" stroke="none" d="M 314.207764 361.266785 L 375.622864 361.266785 C 376.729279 361.266785 377.626129 360.369934 377.626129 359.26358 C 377.626129 358.157227 376.729279 357.260376 375.622864 357.260376 L 314.207764 357.260376 C 313.101379 357.260376 312.204529 358.157227 312.204529 359.26358 C 312.204529 360.369934 313.101379 361.266785 314.207764 361.266785 Z"/>
        <path id="Path2995-389" fill="#e4e4e4" stroke="none" d="M 349.001099 369.182129 L 375.622894 369.182129 C 376.729187 369.182129 377.626068 368.285217 377.626068 367.178894 C 377.626068 366.072571 376.729187 365.175659 375.622894 365.175659 L 349.001099 365.175659 C 347.894714 365.175659 346.997864 366.072571 346.997864 367.178894 C 346.997864 368.285217 347.894714 369.182129 349.001099 369.182129 Z"/>
        <path id="Path2999-390" fill="#a7a7a7" stroke="none" d="M 604.0672 272.190918 L 364.5755 67.343323 L 364.195892 67.343323 L 364.195892 70.350769 L 363.464905 70.350769 L 602.111572 274.474426 Z"/>
        <path id="Path3010-398" fill="#e6e6e6" stroke="none" d="M 287.129944 117.02243 L 376.402039 117.02243 C 381.382813 117.015259 385.418152 112.978333 385.423309 107.99765 L 385.423309 26.317627 C 385.417511 21.336426 381.38089 17.299866 376.39975 17.294067 L 287.127594 17.294067 C 282.146393 17.299866 278.109833 21.336426 278.104004 26.317627 L 278.104004 107.99765 C 278.109833 112.978851 282.146393 117.015381 287.127594 117.02121 Z"/>
        <path id="Path3011-399" fill="#ffffff" stroke="none" d="M 293.404602 109.500793 L 370.126221 109.500793 C 374.549713 109.496277 378.134552 105.911407 378.139069 101.487915 L 378.139069 32.827332 C 378.134552 28.40387 374.549713 24.819031 370.126221 24.814514 L 293.404602 24.814514 C 288.98111 24.819031 285.39624 28.40387 285.391724 32.827332 L 285.391724 101.489075 C 285.39624 105.912628 288.98111 109.497406 293.404602 109.501923 Z"/>
        <path id="Path3012-400" fill="#7c86ff" stroke="none" d="M 301.057892 44.804321 L 362.472961 44.804321 C 363.579376 44.804321 364.476227 43.907471 364.476227 42.801147 C 364.476227 41.694763 363.579376 40.797913 362.472961 40.797913 L 301.057892 40.797913 C 299.951477 40.797913 299.054626 41.694763 299.054626 42.801147 C 299.054626 43.907471 299.951477 44.804321 301.057892 44.804321 Z"/>
        <path id="Path3013-401" fill="#7c86ff" stroke="none" d="M 301.057892 52.723206 L 362.472961 52.723206 C 363.579376 52.723206 364.476227 51.826294 364.476227 50.719971 C 364.476227 49.613647 363.579376 48.716797 362.472961 48.716797 L 301.057892 48.716797 C 299.951477 48.716797 299.054626 49.613647 299.054626 50.719971 C 299.054626 51.826294 299.951477 52.723206 301.057892 52.723206 Z"/>
        <path id="Path3014-402" fill="#7c86ff" stroke="none" d="M 335.851227 60.636169 L 362.472992 60.636169 C 363.579315 60.636169 364.476196 59.739258 364.476196 58.632996 C 364.476196 57.52655 363.579315 56.6297 362.472992 56.6297 L 335.851227 56.6297 C 334.744812 56.6297 333.847961 57.52655 333.847961 58.632996 C 333.847961 59.739258 334.744812 60.636169 335.851227 60.636169 Z"/>
        <path id="Path3015-403" fill="#e4e4e4" stroke="none" d="M 301.057892 77.208435 L 362.472961 77.208435 C 363.579376 77.208435 364.476227 76.311523 364.476227 75.205139 C 364.476227 74.098816 363.579376 73.201965 362.472961 73.201965 L 301.057892 73.201965 C 299.951477 73.201965 299.054626 74.098816 299.054626 75.205139 C 299.054626 76.311523 299.951477 77.208435 301.057892 77.208435 Z"/>
        <path id="Path3016-404" fill="#e4e4e4" stroke="none" d="M 301.057892 85.123718 L 362.472961 85.123718 C 363.579376 85.123718 364.476227 84.226868 364.476227 83.120544 C 364.476227 82.01416 363.579376 81.11731 362.472961 81.11731 L 301.057892 81.11731 C 299.951477 81.11731 299.054626 82.01416 299.054626 83.120544 C 299.054626 84.226868 299.951477 85.123718 301.057892 85.123718 Z"/>
        <path id="Path3017-405" fill="#e4e4e4" stroke="none" d="M 335.851227 93.039001 L 362.472992 93.039001 C 363.579315 93.039001 364.476196 92.142151 364.476196 91.035828 C 364.476196 89.929443 363.579315 89.032593 362.472992 89.032593 L 335.851227 89.032593 C 334.744812 89.032593 333.847961 89.929443 333.847961 91.035828 C 333.847961 92.142151 334.744812 93.039001 335.851227 93.039001 Z"/>
        <path id="Path4190-406" fill="#7c86ff" stroke="none" d="M 331.031464 375.863464 L 312.205139 394.455933 L 331.031464 413.047241 L 335.262421 408.816345 L 321.025391 394.578186 L 335.379913 380.222412 Z"/>
        <path id="Path4191-407" fill="#7c86ff" stroke="none" d="M 358.800323 375.863464 L 377.62674 394.455933 L 358.800323 413.047241 L 354.569427 408.816345 L 368.806458 394.578186 L 354.442474 380.217712 Z"/>
        <g id="Group248">
            <path id="Rectangle895-Outline-408" fill="#7c86ff" stroke="none" d="M 552.403503 269.23349 C 551.200195 268.032928 549.252197 268.032928 548.048889 269.23349 L 506.198303 311.084045 C 504.997772 312.287354 504.997772 314.235382 506.198303 315.43866 L 508.480316 317.720673 C 509.683594 318.921234 511.631622 318.921234 512.8349 317.720673 L 554.684692 275.870911 C 555.885193 274.667603 555.885193 272.719574 554.684692 271.516357 L 552.40271 269.234283 M 554.579956 267.057007 L 556.861938 269.33902 C 559.267395 271.744446 559.267395 275.64444 556.861938 278.049896 L 515.013 319.898804 C 512.607605 322.30426 508.707611 322.30426 506.302185 319.898804 L 504.020172 317.616791 C 501.614746 315.211365 501.614746 311.311371 504.020172 308.906006 L 545.869934 267.056213 C 548.275391 264.650757 552.175354 264.650757 554.58075 267.056213 Z"/>
            <path id="Path4210-409" fill="#7c86ff" stroke="none" d="M 549.112427 285.008209 C 548.713806 285.008667 548.330688 284.853912 548.044128 284.576904 L 539.019348 275.875336 C 538.407288 275.284698 538.389954 274.309662 538.980591 273.697571 C 539.571228 273.085541 540.546265 273.068207 541.158325 273.658844 L 550.181946 282.355652 C 550.633972 282.791565 550.77594 283.458313 550.540771 284.040558 C 550.305603 284.622803 549.740417 285.003845 549.112427 285.003571 Z"/>
            <path id="Path4211-410" fill="#7c86ff" stroke="none" d="M 520.281128 279.047333 C 519.430847 279.047333 518.741577 278.358063 518.741577 277.507751 C 518.738281 274.750519 516.503967 272.516205 513.746704 272.512909 C 512.896423 272.512909 512.207153 271.823639 512.207153 270.973328 C 512.207153 270.123108 512.896423 269.433777 513.746704 269.433777 C 516.503967 269.430542 518.738281 267.196167 518.741577 264.438934 C 518.741577 263.588715 519.430847 262.899353 520.281128 262.899353 C 521.131409 262.899353 521.820679 263.588715 521.820679 264.438934 C 521.823975 267.196167 524.058289 269.430542 526.815552 269.433777 C 527.665833 269.433777 528.355103 270.123108 528.355103 270.973328 C 528.355103 271.823639 527.665833 272.512909 526.815552 272.512909 C 524.058289 272.516205 521.823975 274.750519 521.820679 277.507751 C 521.820679 278.358063 521.131409 279.047333 520.281128 279.047333 Z M 518.484131 270.973328 C 519.173584 271.475037 519.779968 272.081726 520.281128 272.771515 C 520.782654 272.081665 521.389465 271.474884 522.079285 270.973328 C 521.389526 270.472168 520.782776 269.865814 520.281128 269.176392 C 519.779846 269.865723 519.173462 270.472076 518.484131 270.973328 Z"/>
            <path id="Path4212-411" fill="#7c86ff" stroke="none" d="M 552.951965 311.719391 C 552.101685 311.719391 551.412415 311.030029 551.412415 310.17981 C 551.40918 307.422577 549.174805 305.188202 546.417603 305.184998 C 545.567261 305.184998 544.877991 304.495636 544.877991 303.645416 C 544.877991 302.795105 545.567261 302.105743 546.417603 302.105743 C 549.174805 302.102539 551.40918 299.868164 551.412415 297.110931 C 551.412415 296.260712 552.101685 295.57135 552.951965 295.57135 C 553.802246 295.57135 554.491577 296.260712 554.491577 297.110931 C 554.494812 299.868164 556.729187 302.102539 559.486389 302.105743 C 560.33667 302.105743 561.026001 302.795105 561.026001 303.645416 C 561.026001 304.495636 560.33667 305.184998 559.486389 305.184998 C 556.729187 305.188202 554.494812 307.422577 554.491577 310.17981 C 554.491577 311.030029 553.802246 311.719391 552.951965 311.719391 Z M 551.155029 303.645416 C 551.844421 304.147034 552.450806 304.753815 552.951965 305.443512 C 553.453552 304.753662 554.060303 304.146942 554.750122 303.645416 C 554.060852 303.144073 553.454468 302.53772 552.953125 301.848389 C 552.451538 302.537811 551.844727 303.144226 551.155029 303.645416 Z"/>
        </g>
    </g>
</svg>
