<?xml version="1.0" encoding="UTF-8"?>
<!-- Generated by Pixelmator Pro 3.7 -->
<svg width="844" height="595" viewBox="0 0 844 595" xmlns="http://www.w3.org/2000/svg">
    <path id="Trazado" fill="#7b85fc" stroke="none" d="M 477.392822 547.738464 C 477.392822 573.143555 456.797913 593.738464 431.392822 593.738464 C 405.987701 593.738464 385.392822 573.143555 385.392822 547.738464 C 385.392822 522.333374 405.987701 501.738464 431.392822 501.738464 C 456.797913 501.738464 477.392822 522.333374 477.392822 547.738464 Z"/>
    <path id="path1" fill="#7b85fc" stroke="none" d="M 706.199463 591.154053 C 731.93396 583.425415 759.293274 575.366211 779.702576 556.993042 C 797.940247 540.574951 810.252808 515.504028 802.697327 490.881622 C 795.157349 466.309723 772.57312 449.925323 749.255676 441.776276 C 736.030701 437.154388 722.194824 434.590179 708.364258 432.575897 C 693.329407 430.386261 678.228088 428.592194 663.133972 426.865814 C 602.015808 419.875366 540.667847 415.605042 479.090057 414.054779 C 448.705536 413.28952 418.326508 413.307953 387.937653 413.749115 C 360.798248 414.143097 332.215485 414.13327 307.038635 402.598602 C 287.460175 393.628815 269.690643 377.309784 264.235352 355.865051 C 257.93808 331.110382 269.553345 305.901245 286.215271 287.973053 C 294.997925 278.522949 305.262573 270.569214 315.851501 263.255646 C 327.338898 255.321472 339.226898 247.949188 351.372345 241.067505 C 375.293427 227.520264 400.302277 215.990845 426.139008 206.598999 C 438.884552 201.964539 451.819489 197.966187 464.866608 194.277557 C 475.883636 191.162872 486.934967 188.043762 497.582489 183.800079 C 518.166016 175.596375 537.74353 161.700256 542.977173 138.918671 C 547.937378 117.327209 539.574097 93.888 524.91217 77.848083 C 507.94931 59.291077 482.37265 51.156311 457.852081 49.840088 C 430.323639 48.362427 403.429596 55.252075 377.555267 63.995972 C 349.958527 73.32196 322.956757 84.045197 294.777008 91.599152 C 266.832825 99.082581 238.348068 104.377441 209.581284 107.43573 C 195.499008 108.935242 180.991104 110.628448 166.825027 109.480469 C 154.95256 108.518372 143.140762 105.026733 134.390945 96.60083 C 126.888443 89.376068 122.419113 79.446838 123.955643 68.968445 C 124.234756 67.065247 127.12587 67.87439 126.848495 69.765991 C 124.978104 82.521118 133.648392 94.274597 144.332657 100.295258 C 156.680801 107.253601 171.706711 107.263062 185.454453 106.467285 C 215.263351 104.666901 244.870529 100.386871 273.968933 93.671661 C 302.561462 87.141052 330.132782 77.805298 357.672882 67.832581 C 383.828827 58.361023 410.569489 49.11676 438.51297 47.065308 C 462.759064 45.285217 488.264618 48.817505 509.387177 61.488403 C 527.951111 72.62439 541.602051 91.195648 545.951721 112.506561 C 550.202209 133.331177 544.31543 154.291565 528.551758 168.8237 C 512.230286 183.870026 489.851044 190.302795 468.995148 196.227386 C 442.542938 203.74173 416.657928 212.525452 391.602692 223.930481 C 366.206146 235.458191 341.849518 249.151459 318.802582 264.858521 C 296.556335 280.060791 274.601898 299.189117 267.56601 326.309784 C 264.288605 338.942902 264.893738 352.341888 270.377594 364.274384 C 275.253662 374.884308 283.28418 383.809113 292.639282 390.692902 C 314.960022 407.11734 343.091949 410.489594 370.053497 410.825043 C 400.33493 411.201813 430.61734 410.17984 460.9086 410.677032 C 522.641174 411.690216 584.247375 415.447754 645.727234 421.949677 C 661.132568 423.580322 676.518433 425.38269 691.884827 427.356781 C 705.706421 429.132782 719.574524 430.897369 733.16333 434.051422 C 757.325562 439.659637 780.837219 450.443085 795.855103 470.929413 C 802.520447 479.809296 806.649719 490.332245 807.802185 501.375397 C 808.853516 512.89917 806.032349 524.444702 800.822021 534.696167 C 789.289734 557.386597 767.688416 571.819031 744.748657 581.300903 C 732.461853 586.379456 719.71698 590.226868 706.99707 594.046997 C 705.144043 594.603455 704.352173 591.708984 706.199524 591.154114 Z"/>
    <path id="path2" fill="#7b85fc" stroke="none" d="M 149.892807 69.238464 C 149.892807 82.493286 139.147644 93.238464 125.892807 93.238464 C 112.637978 93.238464 101.892807 82.493286 101.892807 69.238464 C 101.892807 55.983643 112.637978 45.238464 125.892807 45.238464 C 139.147644 45.238464 149.892807 55.983643 149.892807 69.238464 Z"/>
    <path id="path3" fill="#7b85fc" stroke="none" d="M 316.392822 114.738464 C 316.392822 127.993286 305.647644 138.738464 292.392822 138.738464 C 279.13797 138.738464 268.392822 127.993286 268.392822 114.738464 C 268.392822 101.483612 279.13797 90.738464 292.392822 90.738464 C 305.647644 90.738464 316.392822 101.483612 316.392822 114.738464 Z"/>
    <path id="path4" fill="#7b85fc" stroke="none" d="M 275.392822 300.738464 C 275.392822 313.993286 264.647644 324.738464 251.392807 324.738464 C 238.13797 324.738464 227.392807 313.993286 227.392807 300.738464 C 227.392807 287.483643 238.13797 276.738464 251.392807 276.738464 C 264.647644 276.738464 275.392822 287.483643 275.392822 300.738464 Z"/>
    <path id="path5" fill="#7b85fc" stroke="none" d="M 607.392822 439.738464 C 607.392822 452.993286 596.647644 463.738464 583.392822 463.738464 C 570.138 463.738464 559.392822 452.993286 559.392822 439.738464 C 559.392822 426.483643 570.138 415.738464 583.392822 415.738464 C 596.647644 415.738464 607.392822 426.483643 607.392822 439.738464 Z"/>
    <path id="path6" fill="#7b85fc" stroke="none" d="M 808.392822 428.738464 C 808.392822 441.993286 797.647644 452.738464 784.392822 452.738464 C 771.138 452.738464 760.392822 441.993286 760.392822 428.738464 C 760.392822 415.483643 771.138 404.738464 784.392822 404.738464 C 797.647644 404.738464 808.392822 415.483643 808.392822 428.738464 Z"/>
    <path id="path7" fill="#7b85fc" stroke="none" d="M 426.465302 67.741882 C 354.573456 68.249695 295.709198 126.671753 294.687958 198.558228 C 294.678497 199.221924 294.674133 203.888702 294.674713 209.992432 C 294.67569 228.628601 309.78241 243.736298 328.418579 243.738434 L 328.418671 243.738434 C 337.378387 243.736481 345.970123 240.173859 352.302155 233.83493 C 358.634247 227.495972 362.187531 218.900452 362.179779 209.940704 C 362.176361 205.788574 362.174286 202.914856 362.174286 202.738434 C 362.167877 172.048431 383.947906 145.674042 414.085419 139.876892 C 444.222931 134.079773 474.233185 150.492004 485.612823 178.994263 C 496.992401 207.496552 486.537628 240.064545 460.69455 256.617828 L 460.706268 256.63205 C 460.706268 256.63205 412.677948 287.551605 398.03537 329.967499 L 398.047821 329.97049 C 395.473053 338.65976 394.168365 347.67572 394.174286 356.738434 C 394.174286 360.463837 394.393463 393.059784 394.816925 419.516083 C 395.124969 438.508881 410.611725 453.742889 429.606964 453.738434 L 429.607086 453.738434 C 438.872467 453.738068 447.755096 450.042389 454.286346 443.470428 C 460.817657 436.898468 464.458099 427.993073 464.400909 418.727814 C 464.253815 394.498688 464.174286 366.286163 464.174286 364.238434 C 464.174286 338.193695 489.29953 312.243683 509.937958 295.321014 C 533.703857 275.834076 550.805908 249.278107 557.675049 219.32193 C 559.195068 213.15451 560.033142 206.838837 560.174316 200.488434 C 560.174316 165.114746 546.056213 131.20401 520.953064 106.281555 C 495.849884 81.35907 461.838043 67.486328 426.465302 67.741882 Z"/>
    <path id="path8" fill="#2f2e41" stroke="none" d="M 658.448853 242.734344 C 658.448853 259.302917 645.017395 272.734375 628.448853 272.734375 C 611.88031 272.734375 598.448853 259.302917 598.448853 242.734344 C 598.448853 226.165802 611.88031 212.734344 628.448853 212.734344 C 645.017395 212.734344 658.448853 226.165802 658.448853 242.734344 Z"/>
    <path id="path9" fill="#a0616a" stroke="none" d="M 573.012024 581.867493 L 560.752991 581.867493 L 554.919983 534.579468 L 573.015015 534.579468 L 573.012024 581.867493 Z"/>
    <path id="path10" fill="#2f2e41" stroke="none" d="M 551.995544 578.364075 L 575.639404 578.364075 L 575.639404 578.364075 L 575.639404 593.250977 L 575.639404 593.250977 L 537.108704 593.250977 L 537.108704 593.250977 L 537.108704 593.250977 C 537.108704 589.302734 538.677124 585.516174 541.468933 582.724365 C 544.260742 579.932495 548.047302 578.364075 551.995544 578.364075 Z"/>
    <path id="path11" fill="#a0616a" stroke="none" d="M 668.012024 581.867493 L 655.752991 581.867493 L 649.919983 534.579468 L 668.015015 534.579468 L 668.012024 581.867493 Z"/>
    <path id="path12" fill="#2f2e41" stroke="none" d="M 646.995544 578.364075 L 670.639404 578.364075 L 670.639404 578.364075 L 670.639404 593.250977 L 670.639404 593.250977 L 632.108704 593.250977 L 632.108704 593.250977 L 632.108704 593.250977 C 632.108704 589.302734 633.677124 585.516174 636.468933 582.724365 C 639.260742 579.932495 643.047302 578.364075 646.995544 578.364075 Z"/>
    <path id="path13" fill="#a0616a" stroke="none" d="M 648.450806 248.348541 C 648.450806 261.913208 637.454468 272.909576 623.889771 272.909576 C 610.325134 272.909576 599.328735 261.913208 599.328735 248.348541 C 599.328735 234.783844 610.325134 223.787506 623.889771 223.787506 C 637.454468 223.787506 648.450806 234.783844 648.450806 248.348541 Z"/>
    <path id="path14" fill="#2f2e41" stroke="none" d="M 638.528931 352.144318 L 649.518677 326.894318 C 654.988831 314.754944 652.203125 300.485107 642.56897 291.294342 C 641.603455 290.339844 640.577942 289.448029 639.498657 288.624329 C 634.076172 284.382263 627.393555 282.070221 620.508911 282.054321 C 615.879944 282.072296 611.309326 283.088745 607.109009 285.034332 C 606.748657 285.194336 606.399048 285.364319 606.038696 285.534332 C 605.348755 285.864319 604.669067 286.224335 604.008911 286.59433 C 595.278259 291.6073 589.450195 300.471771 588.308716 310.474335 L 583.458618 351.114319 C 582.238892 354.304321 538.718872 469.504303 553.939087 557.454285 C 554.271423 559.38208 555.819397 560.869324 557.758911 561.124329 L 573.189087 563.224304 C 575.526489 563.544006 577.713501 562.00293 578.198853 559.694275 L 604.088989 436.284332 C 604.420959 434.70639 605.78717 433.558807 607.398743 433.504303 C 609.010315 433.449799 610.450989 434.502411 610.888794 436.054352 L 647.468872 565.83429 C 648.004639 567.7724 649.768188 569.114502 651.778931 569.114319 C 652.07074 569.112488 652.361816 569.085693 652.649048 569.034302 L 671.498657 565.404297 C 673.769836 564.979858 675.343567 562.894836 675.129028 560.594299 C 672.359009 529.704346 657.638794 374.974335 638.528931 352.144318 Z"/>
    <path id="path15" fill="#a0616a" stroke="none" d="M 528.439392 268.78833 C 528.094299 271.744202 529.076233 274.701111 531.120972 276.863403 C 533.16571 279.025665 536.063171 280.171204 539.033691 279.99173 L 552.762634 312.9841 L 563.147644 297.589783 L 548.51825 268.619781 C 547.871887 263.537872 543.526611 259.742615 538.403992 259.785614 C 533.281311 259.828613 529.000366 263.696259 528.439331 268.7883 Z"/>
    <path id="path16" fill="#a0616a" stroke="none" d="M 622.527954 385.364777 C 625.482849 385.011566 628.129578 383.367706 629.75592 380.875458 C 631.382263 378.383148 631.821106 375.298553 630.954468 372.45163 L 659.839783 351.413147 L 642.449463 344.900909 L 617.685547 365.877777 C 612.894165 367.690521 610.21582 372.800446 611.451233 377.772125 C 612.686707 382.743744 617.445374 386.005646 622.527954 385.364777 Z"/>
    <path id="path17" fill="#2f2e41" stroke="none" d="M 575.439575 334.979462 C 574.332214 334.978394 573.227539 334.869507 572.141235 334.654297 C 566.805725 333.638794 562.326111 330.033264 560.193726 325.038086 L 540.959351 301.58493 C 540.136719 300.581757 539.786987 299.2724 539.999817 297.992645 C 540.212646 296.71286 540.967407 295.587189 542.070435 294.904297 L 555.754761 286.433594 C 556.775208 285.801758 558.005798 285.60376 559.172974 285.883575 C 560.340088 286.163422 561.347107 286.897919 561.970093 287.923798 L 575.526489 310.257813 L 601.487915 291.071228 C 605.76062 288.831024 611.029785 290.063171 613.866089 293.965698 C 616.702332 297.868256 616.247559 303.260437 612.797729 306.632782 L 586.885864 330.269501 C 583.841003 333.28775 579.726868 334.980652 575.439575 334.979462 Z"/>
    <path id="path18" fill="#2f2e41" stroke="none" d="M 645.589722 370.251923 C 645.554565 370.251923 645.519165 370.251923 645.484009 370.250946 C 644.207825 370.219879 643.0047 369.6492 642.173218 368.680634 L 630.006958 354.487274 C 629.168762 353.509521 628.789673 352.219482 628.965637 350.943726 C 629.141602 349.667938 629.855774 348.528717 630.927368 347.814392 L 653.708862 332.626892 L 633.070435 307.814392 C 630.588806 303.677307 631.516724 298.346069 635.250305 295.290802 C 638.983887 292.235535 644.393311 292.380676 647.957642 295.631805 L 673.041138 320.14447 C 677.048523 323.805298 679.002625 329.200623 678.268921 334.578583 C 677.535278 339.956543 674.207336 344.631287 669.365845 347.0849 L 648.864624 368.838837 C 648.013733 369.740082 646.829224 370.25119 645.589722 370.251923 Z"/>
    <path id="path19" fill="#e6e6e6" stroke="none" d="M 617.644775 317.95282 C 617.449524 317.952759 617.254456 317.940369 617.060791 317.91571 C 615.330688 317.705353 613.881531 316.506775 613.350342 314.846863 L 604.208008 286.817566 C 603.734314 285.352142 604.414856 283.761993 605.802002 283.092957 L 606.098633 282.95282 C 606.367615 282.82489 606.634033 282.698425 606.906006 282.577332 C 611.169189 280.60022 615.809692 279.56897 620.508972 279.554321 C 626.609497 279.565582 632.574036 281.357819 637.670349 284.71106 C 639.091858 285.657074 639.49292 287.56778 638.571716 289.005493 L 621.421631 315.87323 C 620.604309 317.170013 619.177673 317.955536 617.644775 317.95282 Z"/>
    <path id="path20" fill="#2f2e41" stroke="none" d="M 661.917786 219.524628 C 661.917786 224.946228 657.522705 229.341309 652.101074 229.341309 C 646.679504 229.341309 642.284424 224.946228 642.284424 219.524628 C 642.284424 214.103027 646.679504 209.707947 652.101074 209.707947 C 657.522705 209.707947 661.917786 214.103027 661.917786 219.524628 Z"/>
    <path id="path21" fill="#2f2e41" stroke="none" d="M 618.448853 208.734375 L 618.448853 208.734375 C 604.089478 208.734375 592.448914 220.374908 592.448853 234.734314 L 592.448853 245.734375 L 605.978149 245.734375 L 612.448853 234.734375 L 614.390259 245.734375 L 655.448853 245.734375 L 644.448853 234.734314 C 644.448853 220.374908 632.808228 208.734375 618.448853 208.734375 Z"/>
    <path id="path22" fill="#2f2e41" stroke="none" d="M 657.146545 212.800446 C 659.387512 205.793427 666.338379 201.408997 673.627319 202.404877 C 679.883362 203.450714 684.829651 208.479401 687.776794 214.095947 C 690.723938 219.712463 692.084839 225.998444 694.066162 232.023865 C 696.047424 238.049286 698.857361 244.107483 703.859192 248.007874 C 708.861023 251.908234 716.536438 252.966248 721.448853 248.953918 C 720.297974 257.529205 713.793213 264.408264 705.295593 266.03656 C 696.798035 267.664825 688.211121 263.677612 683.971802 256.135162 C 681.379761 251.523438 680.710571 246.118347 679.941895 240.884186 C 679.173218 235.650024 678.1745 230.234375 675.079834 225.943756 C 671.985107 221.653107 666.192078 218.8508 661.276062 220.805145 Z"/>
    <path id="path23" fill="#3f3d56" stroke="none" d="M 337.946503 227.776794 L 337.946503 227.776794 C 319.310303 227.774658 304.203461 212.666992 304.202362 194.030792 C 304.201874 187.927032 304.206268 183.260284 304.215546 182.596588 C 304.499878 161.689972 309.765106 141.152496 319.574432 122.687836 C 303.457977 144.750732 294.596375 171.276886 294.215546 198.596588 C 294.206268 199.260284 294.201874 203.927032 294.202362 210.030792 C 294.203461 228.666992 309.310303 243.774658 327.946503 243.776794 L 327.946503 243.776794 C 343.057587 243.771057 356.325836 233.728088 360.434296 219.186218 C 354.255524 224.72702 346.245758 227.786804 337.946503 227.776794 Z"/>
    <path id="path24" fill="#3f3d56" stroke="none" d="M 428.752655 138.847717 C 449.754486 139.850769 468.924103 151.104797 480.035553 168.954651 C 491.147003 186.804474 492.782867 208.973236 484.411835 228.260712 C 500.705048 209.125427 504.290009 182.224915 493.57663 159.49054 C 482.86319 136.756195 459.83493 122.396942 434.705658 122.781647 C 409.576447 123.166351 386.998505 138.223816 376.986053 161.275482 C 389.825897 146.170929 408.95163 137.884735 428.752655 138.847717 Z"/>
    <path id="path25" fill="#3f3d56" stroke="none" d="M 439.134491 437.776764 L 439.134491 437.776764 C 420.139313 437.781036 404.65274 422.547089 404.344513 403.554413 C 403.921173 377.098114 403.701935 344.502136 403.701935 340.776794 C 403.696014 331.71405 405.000702 322.69812 407.57547 314.00885 L 407.563263 314.005829 C 409.083649 309.644379 410.919891 305.399506 413.057404 301.304962 C 406.495758 310.049194 401.273712 319.722382 397.563263 330.005829 L 397.57547 330.00885 C 395.000702 338.69812 393.696014 347.71405 393.701935 356.776794 C 393.701935 360.502106 393.921173 393.098114 394.344513 419.554413 C 394.65274 438.547089 410.139313 453.781036 429.134491 453.776764 L 429.134491 453.776764 C 444.596466 453.774078 458.202728 443.570587 462.536346 428.728302 C 456.139435 434.561127 447.791412 437.788971 439.134491 437.776764 Z"/>
    <path id="path26" fill="#ffb8b8" stroke="none" d="M 126.541 582.323486 L 138.800003 582.322449 L 144.632996 535.034485 L 126.538002 535.035461 L 126.541 582.323486 Z"/>
    <path id="path27" fill="#2f2e41" stroke="none" d="M 162.444656 593.705933 L 123.913956 593.707642 L 123.913956 593.707642 L 123.913269 578.82074 L 123.913269 578.82074 L 147.557129 578.819702 C 155.7789 578.819336 162.444275 585.484131 162.444656 593.705872 L 162.444656 593.705872 L 162.444656 593.705933 Z"/>
    <path id="path28" fill="#ffb8b8" stroke="none" d="M 82.541 582.323486 L 94.800003 582.322449 L 100.633003 535.034485 L 82.538002 535.035461 L 82.541 582.323486 Z"/>
    <path id="path29" fill="#2f2e41" stroke="none" d="M 118.444656 593.705933 L 79.913956 593.707642 L 79.913956 593.707642 L 79.913269 578.82074 L 79.913269 578.82074 L 103.557129 578.819702 C 111.7789 578.819336 118.444275 585.484131 118.444656 593.705872 L 118.444656 593.705872 L 118.444656 593.705933 Z"/>
    <path id="path30" fill="#2f2e41" stroke="none" d="M 93.254288 567.779907 L 81.279282 567.150024 C 80.032028 567.084412 78.86293 566.522339 78.032806 565.589172 C 77.202682 564.656006 76.780609 563.429382 76.860779 562.182983 L 91.173447 403.717072 L 157.084457 421.502716 L 163.434677 419.770294 L 143.57637 560.055054 C 143.22789 562.228943 141.41597 563.868896 139.218216 563.999634 L 126.309311 564.601074 C 125.004318 564.673523 123.728592 564.196289 122.79158 563.285095 C 121.854568 562.373901 121.341843 561.112 121.377823 559.805542 L 123.716812 475.609161 C 123.739487 474.802094 123.141953 474.11142 122.340042 474.017792 C 121.538132 473.924103 120.797531 474.458527 120.633621 475.249054 L 98.076706 564.061462 C 97.637619 566.234436 95.724411 567.794373 93.507553 567.786987 C 93.423691 567.786987 93.339218 567.784973 93.254288 567.779907 Z"/>
    <path id="path31" fill="#ffb8b8" stroke="none" d="M 153.303055 249.497253 C 153.303055 263.061951 142.306702 274.058289 128.74202 274.058289 C 115.177338 274.058289 104.180992 263.061951 104.180992 249.497253 C 104.180992 235.932556 115.177338 224.936218 128.74202 224.936218 C 142.306702 224.936218 153.303055 235.932556 153.303055 249.497253 Z"/>
    <path id="path32" fill="#cccccc" stroke="none" d="M 87.849625 321.656158 L 90.550186 379.923615 L 91.526443 401.122162 C 91.606033 403.009918 92.821762 404.661041 94.600754 405.297516 L 157.936752 428.240936 C 158.44838 428.431122 158.990463 428.526154 159.536301 428.521393 C 160.796799 428.527435 162.0056 428.020844 162.885117 427.117889 C 163.764603 426.214874 164.239243 424.993195 164.199997 423.733246 L 161.603378 318.966125 C 161.251572 301.234436 148.344833 286.256561 130.859695 283.288971 C 130.247055 283.195526 129.623764 283.10202 129.000504 283.018921 C 118.361008 281.698212 107.682632 285.154999 99.835495 292.460144 C 91.709488 299.93399 87.319046 310.628479 87.849594 321.656128 Z"/>
    <path id="path33" fill="#ffb8b8" stroke="none" d="M 188.192215 416.614349 C 185.154678 415.671783 182.741501 413.348785 181.683914 410.349335 C 180.626328 407.349884 181.048874 404.027069 182.823441 401.387787 L 161.345444 372.827789 L 179.879684 371.680695 L 197.434067 398.977631 C 201.313095 401.976654 202.481339 407.32663 200.205521 411.669647 C 197.929733 416.012726 192.865891 418.097015 188.192245 416.614349 Z"/>
    <path id="path34" fill="#cccccc" stroke="none" d="M 173.091019 396.219452 C 171.941666 395.75296 171.026688 394.8461 170.549942 393.700958 L 138.191696 316.606628 C 136.46434 312.500092 137.060287 307.783813 139.754837 304.235992 C 142.449387 300.688202 146.832718 298.84845 151.252182 299.41037 C 155.671646 299.97229 159.455124 302.850464 161.176071 306.959717 L 193.534286 384.055023 C 194.530075 386.435028 193.411484 389.171967 191.033798 390.173248 L 176.668381 396.20224 C 175.526108 396.68576 174.237839 396.691986 173.090958 396.219513 Z"/>
    <path id="path35" fill="#3f3d56" stroke="none" d="M 120.845444 393.500092 L 151.924698 333.991272 C 153.172623 331.608368 156.113907 330.685303 158.499619 331.927856 L 203.61116 355.487946 C 205.994064 356.73587 206.91713 359.677155 205.674576 362.062897 L 174.595322 421.571686 C 173.347397 423.95462 170.406082 424.877655 168.02037 423.635162 L 122.90889 400.075043 C 120.525986 398.827118 119.60289 395.885834 120.845444 393.500092 Z"/>
    <path id="path36" fill="#ffb8b8" stroke="none" d="M 141.688309 366.312042 C 140.567978 363.33548 138.106552 361.06369 135.049911 360.185089 C 131.993301 359.306458 128.701218 359.924469 126.17131 361.851776 L 96.392868 342.097687 L 96.342239 360.667328 L 124.628098 376.579254 C 127.850967 380.274384 133.260574 381.124664 137.461655 378.596405 C 141.662735 376.068085 143.444351 370.889984 141.688309 366.312042 Z"/>
    <path id="path37" fill="#cccccc" stroke="none" d="M 104.038284 370.488068 L 79.701523 351.210297 C 74.357285 349.415833 70.235031 345.111328 68.673294 339.694489 C 67.111542 334.277679 68.309479 328.439301 71.878098 324.075134 L 93.975235 295.115601 C 97.149338 291.236877 102.68837 290.273865 106.985336 292.853699 C 111.282333 295.433533 113.036179 300.775085 111.104843 305.399963 L 93.621017 333.999969 L 119.314987 346.186829 C 120.523575 346.759979 121.428665 347.823547 121.801102 349.108246 C 122.173569 350.392944 121.977737 351.775665 121.263138 352.906403 L 110.891403 369.320465 C 110.182358 370.440826 109.03154 371.207977 107.724686 371.431549 C 107.69902 371.436066 107.673203 371.440033 107.647385 371.443878 C 106.363968 371.637787 105.05751 371.291779 104.038284 370.488068 Z"/>
    <path id="path38" fill="#2f2e41" stroke="none" d="M 110.18306 265.943695 C 109.969498 265.318939 110.057022 264.630524 110.420151 264.079071 C 110.783279 263.527649 111.381119 263.175262 112.039413 263.124664 C 113.383652 263.197754 114.639542 263.817352 115.515518 264.8396 C 116.404404 265.864471 117.439194 266.753021 118.586685 267.476715 C 119.774796 268.075592 121.386215 267.990265 122.063522 266.84848 C 122.69957 265.776276 122.263748 264.340485 121.878708 263.095001 C 120.89888 259.926361 120.350632 256.640106 120.248795 253.325012 C 120.137863 249.624695 120.659927 245.763 122.708511 242.876923 C 125.352371 239.152191 130.079941 237.738098 134.55394 237.840637 C 139.027969 237.943176 143.429428 239.324249 147.861069 240.197296 C 149.391006 240.498657 151.189346 240.652771 152.212601 239.467041 C 153.300674 238.206207 152.901047 236.165619 152.438248 234.463287 C 151.237289 230.045837 149.963242 225.478668 147.172989 221.911041 C 144.156021 218.203918 139.846451 215.777679 135.112167 215.12088 C 130.567001 214.557861 125.95311 215.081696 121.649826 216.649261 C 114.638687 218.8591 108.469376 223.156891 103.966965 228.967865 C 99.325668 235.147614 97.320114 242.913727 98.38887 250.568054 C 99.432999 257.23468 102.965622 263.257568 108.274673 267.422668 Z"/>
    <path id="path39" fill="#3f3d56" stroke="none" d="M 421.258087 582.518433 C 408.009979 576.748413 398.243744 565.087769 394.887665 551.032776 C 391.531586 536.977844 394.975861 522.16272 404.187775 511.029633 C 389.807343 521.529297 382.778412 539.385376 386.142975 556.870178 C 389.507477 574.355042 402.661102 588.327454 419.911163 592.74054 C 437.161224 597.153625 455.408783 591.214539 466.756683 577.493591 C 453.562042 587.137451 436.239227 589.050537 421.258087 582.518433 Z"/>
</svg>
