<?xml version="1.0" encoding="UTF-8"?>
<!-- Generated by Pixelmator Pro 3.7 -->
<svg width="926" height="600" viewBox="0 0 926 600" xmlns="http://www.w3.org/2000/svg">
    <path id="Trazado" fill="#f2f2f2" stroke="none" d="M 734.44751 511.151947 C 774.135193 480.923065 793.091003 430.126495 781.223877 381.669586 C 780.928996 380.465607 780.617757 379.264353 780.290161 378.065826 C 772.422791 349.302368 752.958496 321.96524 724.59021 312.774506 C 700.770447 305.057587 674.770569 310.991791 649.920837 307.923035 C 601.139465 301.898865 563.320251 262.429016 536.709656 221.103699 C 510.09906 179.778229 489.647827 133.520386 454.288086 99.379578 C 396.003296 43.104187 300.926178 30.988098 228.661407 67.619141 C 156.396698 104.250275 110.36483 185.519501 112.327965 266.514404 C 114.291191 347.50943 162.374298 424.946198 232.202881 466.031403 C 257.855103 481.12442 287.524261 491.81662 317.051147 488.075165 C 342.671265 484.828766 365.950226 471.062531 391.449768 466.975616 C 431.540894 460.549896 471.376648 478.676422 506.052429 499.799347 C 540.728149 520.92218 574.222534 545.959167 613.626831 555.751709 C 651.888306 565.260254 699.290466 537.929932 734.44751 511.151947 Z"/>
    <path id="path1" fill="#3f3d56" stroke="none" d="M 68.999969 448.290802 C 77.687225 458.58432 87.083458 468.257904 97.119972 477.240814 L 827.699951 478.240814 C 837.736511 469.257904 847.13269 459.58432 855.819946 449.290802 Z"/>
    <path id="path2" fill="#3f3d56" stroke="none" d="M 564.429932 355.591339 L 564.429932 441.295319 C 564.431702 443.569489 566.274841 445.412567 568.54895 445.414398 L 695.553467 445.414398 C 697.827637 445.412628 699.670715 443.569489 699.672546 441.295319 L 699.672546 355.591339 C 699.667114 353.319397 697.825378 351.479706 695.553467 351.476807 L 568.54895 351.476807 C 566.277039 351.479706 564.435303 353.319397 564.429932 355.591339 Z"/>
    <path id="path3" fill="#7c86ff" stroke="none" d="M 567.409363 356.657684 L 567.409363 440.238068 C 567.411438 441.453033 568.395813 442.437408 569.610779 442.439484 L 694.496216 442.439484 C 695.711182 442.437408 696.695557 441.453033 696.697632 440.238068 L 696.697632 356.657684 C 696.69751 355.441193 695.712708 354.454346 694.496216 354.451691 L 569.610779 354.451691 C 568.394287 354.454346 567.409485 355.441193 567.409363 356.657684 Z"/>
    <path id="path4" fill="#2f2e41" stroke="none" d="M 561.773743 458.009857 C 562.245117 458.600922 562.961182 458.943512 563.717163 458.939728 L 699.709167 458.939728 C 700.462341 458.938751 701.175049 458.598663 701.649475 458.013702 C 702.123962 457.428741 702.309692 456.661163 702.155212 455.924042 L 700.044189 445.89682 C 699.866455 445.065948 699.279968 444.381744 698.486084 444.078949 C 698.203186 443.967987 697.901978 443.911163 697.598083 443.911469 L 565.819824 443.911469 C 565.51593 443.911163 565.214722 443.967987 564.931824 444.078949 C 564.137939 444.381683 563.551453 445.065948 563.373718 445.89682 L 561.262695 455.924042 C 561.110596 456.660797 561.298279 457.426849 561.773743 458.009857 Z"/>
    <path id="path5" fill="#3f3d56" stroke="none" d="M 696.144043 448.230377 L 692.931946 448.230377 C 692.662292 448.230377 692.443726 448.01181 692.443726 447.742218 L 692.443726 446.205475 C 692.443726 445.935883 692.662292 445.717316 692.931946 445.717316 L 696.144043 445.717316 C 696.413635 445.717316 696.632202 445.935883 696.632202 446.205475 L 696.632202 447.742218 C 696.632202 448.01181 696.413635 448.230377 696.144043 448.230377 Z"/>
    <path id="path6" fill="#3f3d56" stroke="none" d="M 687.76709 448.230377 L 684.554993 448.230377 C 684.2854 448.230377 684.066833 448.01181 684.066833 447.742218 L 684.066833 446.205475 C 684.066833 445.935883 684.2854 445.717316 684.554993 445.717316 L 687.76709 445.717316 C 688.036743 445.717316 688.25531 445.935883 688.25531 446.205475 L 688.25531 447.742218 C 688.25531 448.01181 688.036743 448.230377 687.76709 448.230377 Z"/>
    <path id="path7" fill="#3f3d56" stroke="none" d="M 679.390076 448.230377 L 676.177979 448.230377 C 675.908325 448.230377 675.689758 448.01181 675.689758 447.742218 L 675.689758 446.205475 C 675.689758 445.935883 675.908325 445.717316 676.177979 445.717316 L 679.390076 445.717316 C 679.659668 445.717316 679.878235 445.935883 679.878235 446.205475 L 679.878235 447.742218 C 679.878235 448.01181 679.659668 448.230377 679.390076 448.230377 Z"/>
    <path id="path8" fill="#3f3d56" stroke="none" d="M 671.013123 448.230377 L 667.801025 448.230377 C 667.531433 448.230377 667.312866 448.01181 667.312866 447.742218 L 667.312866 446.205475 C 667.312866 445.935883 667.531433 445.717316 667.801025 445.717316 L 671.013123 445.717316 C 671.282776 445.717316 671.501343 445.935883 671.501343 446.205475 L 671.501343 447.742218 C 671.501343 448.01181 671.282776 448.230377 671.013123 448.230377 Z"/>
    <path id="path9" fill="#3f3d56" stroke="none" d="M 662.636169 448.230377 L 659.424072 448.230377 C 659.154419 448.230377 658.935852 448.01181 658.935852 447.742218 L 658.935852 446.205475 C 658.935852 445.935883 659.154419 445.717316 659.424072 445.717316 L 662.636169 445.717316 C 662.905762 445.717316 663.124329 445.935883 663.124329 446.205475 L 663.124329 447.742218 C 663.124329 448.01181 662.905762 448.230377 662.636169 448.230377 Z"/>
    <path id="path10" fill="#3f3d56" stroke="none" d="M 654.259155 448.230377 L 651.047058 448.230377 C 650.777466 448.230377 650.558899 448.01181 650.558899 447.742218 L 650.558899 446.205475 C 650.558899 445.935883 650.777466 445.717316 651.047058 445.717316 L 654.259155 445.717316 C 654.528809 445.717316 654.747375 445.935883 654.747375 446.205475 L 654.747375 447.742218 C 654.747375 448.01181 654.528809 448.230377 654.259155 448.230377 Z"/>
    <path id="path11" fill="#3f3d56" stroke="none" d="M 645.882202 448.230377 L 642.670044 448.230377 C 642.400452 448.230377 642.181885 448.01181 642.181885 447.742218 L 642.181885 446.205475 C 642.181885 445.935883 642.400452 445.717316 642.670044 445.717316 L 645.882202 445.717316 C 646.151794 445.717316 646.370361 445.935883 646.370361 446.205475 L 646.370361 447.742218 C 646.370361 448.01181 646.151794 448.230377 645.882202 448.230377 Z"/>
    <path id="path12" fill="#3f3d56" stroke="none" d="M 637.505188 448.230377 L 634.293091 448.230377 C 634.023499 448.230377 633.804932 448.01181 633.804932 447.742218 L 633.804932 446.205475 C 633.804932 445.935883 634.023499 445.717316 634.293091 445.717316 L 637.505188 445.717316 C 637.774841 445.717316 637.993408 445.935883 637.993408 446.205475 L 637.993408 447.742218 C 637.993408 448.01181 637.774841 448.230377 637.505188 448.230377 Z"/>
    <path id="path13" fill="#3f3d56" stroke="none" d="M 629.128235 448.230377 L 625.916138 448.230377 C 625.646484 448.230377 625.427917 448.01181 625.427917 447.742218 L 625.427917 446.205475 C 625.427917 445.935883 625.646484 445.717316 625.916138 445.717316 L 629.128235 445.717316 C 629.397827 445.717316 629.616394 445.935883 629.616394 446.205475 L 629.616394 447.742218 C 629.616394 448.01181 629.397827 448.230377 629.128235 448.230377 Z"/>
    <path id="path14" fill="#3f3d56" stroke="none" d="M 620.751221 448.230377 L 617.539124 448.230377 C 617.269531 448.230377 617.050903 448.01181 617.050903 447.742218 L 617.050903 446.205475 C 617.050903 445.935883 617.269531 445.717316 617.539124 445.717316 L 620.751221 445.717316 C 621.020874 445.717316 621.239441 445.935883 621.239441 446.205475 L 621.239441 447.742218 C 621.239441 448.01181 621.020874 448.230377 620.751221 448.230377 Z"/>
    <path id="path15" fill="#3f3d56" stroke="none" d="M 612.374268 448.230377 L 609.162109 448.230377 C 608.892517 448.230377 608.67395 448.01181 608.67395 447.742218 L 608.67395 446.205475 C 608.67395 445.935883 608.892517 445.717316 609.162109 445.717316 L 612.374268 445.717316 C 612.64386 445.717316 612.862427 445.935883 612.862427 446.205475 L 612.862427 447.742218 C 612.862427 448.01181 612.64386 448.230377 612.374268 448.230377 Z"/>
    <path id="path16" fill="#3f3d56" stroke="none" d="M 603.997253 448.230377 L 600.785156 448.230377 C 600.515503 448.230377 600.296936 448.01181 600.296936 447.742218 L 600.296936 446.205475 C 600.296936 445.935883 600.515503 445.717316 600.785156 445.717316 L 603.997253 445.717316 C 604.266907 445.717316 604.485474 445.935883 604.485474 446.205475 L 604.485474 447.742218 C 604.485474 448.01181 604.266907 448.230377 603.997253 448.230377 Z"/>
    <path id="path17" fill="#3f3d56" stroke="none" d="M 595.620239 448.230377 L 592.408142 448.230377 C 592.13855 448.230377 591.919983 448.01181 591.919983 447.742218 L 591.919983 446.205475 C 591.919983 445.935883 592.13855 445.717316 592.408142 445.717316 L 595.620239 445.717316 C 595.889893 445.717316 596.108459 445.935883 596.108459 446.205475 L 596.108459 447.742218 C 596.108459 448.01181 595.889893 448.230377 595.620239 448.230377 Z"/>
    <path id="path18" fill="#3f3d56" stroke="none" d="M 587.243286 448.230377 L 584.031189 448.230377 C 583.761536 448.230377 583.542969 448.01181 583.542969 447.742218 L 583.542969 446.205475 C 583.542969 445.935883 583.761536 445.717316 584.031189 445.717316 L 587.243286 445.717316 C 587.512939 445.717316 587.731506 445.935883 587.731506 446.205475 L 587.731506 447.742218 C 587.731506 448.01181 587.512939 448.230377 587.243286 448.230377 Z"/>
    <path id="path19" fill="#3f3d56" stroke="none" d="M 578.866333 448.230377 L 575.654175 448.230377 C 575.384583 448.230377 575.166016 448.01181 575.166016 447.742218 L 575.166016 446.205475 C 575.166016 445.935883 575.384583 445.717316 575.654175 445.717316 L 578.866333 445.717316 C 579.135925 445.717316 579.354492 445.935883 579.354492 446.205475 L 579.354492 447.742218 C 579.354492 448.01181 579.135925 448.230377 578.866333 448.230377 Z"/>
    <path id="path20" fill="#3f3d56" stroke="none" d="M 570.489319 448.230377 L 567.277222 448.230377 C 567.007568 448.230377 566.789001 448.01181 566.789001 447.742218 L 566.789001 446.205475 C 566.789001 445.935883 567.007568 445.717316 567.277222 445.717316 L 570.489319 445.717316 C 570.758911 445.717316 570.977478 445.935883 570.977478 446.205475 L 570.977478 447.742218 C 570.977478 448.01181 570.758911 448.230377 570.489319 448.230377 Z"/>
    <path id="path21" fill="#3f3d56" stroke="none" d="M 696.243042 452.418884 L 693.030945 452.418884 C 692.761353 452.418884 692.542725 452.200317 692.542725 451.930664 L 692.542725 450.393982 C 692.542725 450.12439 692.761353 449.905762 693.030945 449.905762 L 696.243042 449.905762 C 696.512695 449.905762 696.731262 450.12439 696.731262 450.393982 L 696.731262 451.930664 C 696.731262 452.200317 696.512695 452.418884 696.243042 452.418884 Z"/>
    <path id="path22" fill="#3f3d56" stroke="none" d="M 687.866089 452.418884 L 684.653931 452.418884 C 684.384338 452.418884 684.165771 452.200317 684.165771 451.930664 L 684.165771 450.393982 C 684.165771 450.12439 684.384338 449.905762 684.653931 449.905762 L 687.866089 449.905762 C 688.135681 449.905762 688.354248 450.12439 688.354248 450.393982 L 688.354248 451.930664 C 688.354248 452.200317 688.135681 452.418884 687.866089 452.418884 Z"/>
    <path id="path23" fill="#3f3d56" stroke="none" d="M 679.489075 452.418884 L 676.276978 452.418884 C 676.007324 452.418884 675.788757 452.200317 675.788757 451.930664 L 675.788757 450.393982 C 675.788757 450.12439 676.007324 449.905762 676.276978 449.905762 L 679.489075 449.905762 C 679.758728 449.905762 679.977295 450.12439 679.977295 450.393982 L 679.977295 451.930664 C 679.977295 452.200317 679.758728 452.418884 679.489075 452.418884 Z"/>
    <path id="path24" fill="#3f3d56" stroke="none" d="M 671.112122 452.418884 L 667.899963 452.418884 C 667.630371 452.418884 667.411804 452.200317 667.411804 451.930664 L 667.411804 450.393982 C 667.411804 450.12439 667.630371 449.905762 667.899963 449.905762 L 671.112122 449.905762 C 671.381714 449.905762 671.600281 450.12439 671.600281 450.393982 L 671.600281 451.930664 C 671.600281 452.200317 671.381714 452.418884 671.112122 452.418884 Z"/>
    <path id="path25" fill="#3f3d56" stroke="none" d="M 662.735107 452.418884 L 659.52301 452.418884 C 659.253357 452.418884 659.03479 452.200317 659.03479 451.930664 L 659.03479 450.393982 C 659.03479 450.12439 659.253357 449.905762 659.52301 449.905762 L 662.735107 449.905762 C 663.0047 449.905762 663.223267 450.12439 663.223267 450.393982 L 663.223267 451.930664 C 663.223267 452.200317 663.0047 452.418884 662.735107 452.418884 Z"/>
    <path id="path26" fill="#3f3d56" stroke="none" d="M 654.358154 452.418884 L 651.145996 452.418884 C 650.876404 452.418884 650.657837 452.200317 650.657837 451.930664 L 650.657837 450.393982 C 650.657837 450.12439 650.876404 449.905762 651.145996 449.905762 L 654.358154 449.905762 C 654.627747 449.905762 654.846313 450.12439 654.846313 450.393982 L 654.846313 451.930664 C 654.846313 452.200317 654.627747 452.418884 654.358154 452.418884 Z"/>
    <path id="path27" fill="#3f3d56" stroke="none" d="M 645.98114 452.418884 L 642.769043 452.418884 C 642.49939 452.418884 642.280823 452.200317 642.280823 451.930664 L 642.280823 450.393982 C 642.280823 450.12439 642.49939 449.905762 642.769043 449.905762 L 645.98114 449.905762 C 646.250732 449.905762 646.46936 450.12439 646.46936 450.393982 L 646.46936 451.930664 C 646.46936 452.200317 646.250732 452.418884 645.98114 452.418884 Z"/>
    <path id="path28" fill="#3f3d56" stroke="none" d="M 637.604126 452.418884 L 634.392029 452.418884 C 634.122437 452.418884 633.90387 452.200317 633.90387 451.930664 L 633.90387 450.393982 C 633.90387 450.12439 634.122437 449.905762 634.392029 449.905762 L 637.604126 449.905762 C 637.873779 449.905762 638.092346 450.12439 638.092346 450.393982 L 638.092346 451.930664 C 638.092346 452.200317 637.873779 452.418884 637.604126 452.418884 Z"/>
    <path id="path29" fill="#3f3d56" stroke="none" d="M 629.227173 452.418884 L 626.015076 452.418884 C 625.745422 452.418884 625.526855 452.200317 625.526855 451.930664 L 625.526855 450.393982 C 625.526855 450.12439 625.745422 449.905762 626.015076 449.905762 L 629.227173 449.905762 C 629.496765 449.905762 629.715332 450.12439 629.715332 450.393982 L 629.715332 451.930664 C 629.715332 452.200317 629.496765 452.418884 629.227173 452.418884 Z"/>
    <path id="path30" fill="#3f3d56" stroke="none" d="M 620.85022 452.418884 L 617.638123 452.418884 C 617.36853 452.418884 617.149963 452.200317 617.149963 451.930664 L 617.149963 450.393982 C 617.149963 450.12439 617.36853 449.905762 617.638123 449.905762 L 620.85022 449.905762 C 621.119873 449.905762 621.33844 450.12439 621.33844 450.393982 L 621.33844 451.930664 C 621.33844 452.200317 621.119873 452.418884 620.85022 452.418884 Z"/>
    <path id="path31" fill="#3f3d56" stroke="none" d="M 612.473206 452.418884 L 609.261108 452.418884 C 608.991455 452.418884 608.772888 452.200317 608.772888 451.930664 L 608.772888 450.393982 C 608.772888 450.12439 608.991455 449.905762 609.261108 449.905762 L 612.473206 449.905762 C 612.742798 449.905762 612.961365 450.12439 612.961365 450.393982 L 612.961365 451.930664 C 612.961365 452.200317 612.742798 452.418884 612.473206 452.418884 Z"/>
    <path id="path32" fill="#3f3d56" stroke="none" d="M 604.096252 452.418884 L 600.884155 452.418884 C 600.614563 452.418884 600.395996 452.200317 600.395996 451.930664 L 600.395996 450.393982 C 600.395996 450.12439 600.614563 449.905762 600.884155 449.905762 L 604.096252 449.905762 C 604.365906 449.905762 604.584473 450.12439 604.584473 450.393982 L 604.584473 451.930664 C 604.584473 452.200317 604.365906 452.418884 604.096252 452.418884 Z"/>
    <path id="path33" fill="#3f3d56" stroke="none" d="M 595.719299 452.418884 L 592.507202 452.418884 C 592.237549 452.418884 592.018982 452.200317 592.018982 451.930664 L 592.018982 450.393982 C 592.018982 450.12439 592.237549 449.905762 592.507202 449.905762 L 595.719299 449.905762 C 595.988892 449.905762 596.207458 450.12439 596.207458 450.393982 L 596.207458 451.930664 C 596.207458 452.200317 595.988892 452.418884 595.719299 452.418884 Z"/>
    <path id="path34" fill="#3f3d56" stroke="none" d="M 587.342285 452.418884 L 584.130188 452.418884 C 583.860596 452.418884 583.642029 452.200317 583.642029 451.930664 L 583.642029 450.393982 C 583.642029 450.12439 583.860596 449.905762 584.130188 449.905762 L 587.342285 449.905762 C 587.611938 449.905762 587.830505 450.12439 587.830505 450.393982 L 587.830505 451.930664 C 587.830505 452.200317 587.611938 452.418884 587.342285 452.418884 Z"/>
    <path id="path35" fill="#3f3d56" stroke="none" d="M 578.965332 452.418884 L 575.753174 452.418884 C 575.483582 452.418884 575.265015 452.200317 575.265015 451.930664 L 575.265015 450.393982 C 575.265015 450.12439 575.483582 449.905762 575.753174 449.905762 L 578.965332 449.905762 C 579.234924 449.905762 579.453491 450.12439 579.453491 450.393982 L 579.453491 451.930664 C 579.453491 452.200317 579.234924 452.418884 578.965332 452.418884 Z"/>
    <path id="path36" fill="#3f3d56" stroke="none" d="M 570.588318 452.418884 L 567.376221 452.418884 C 567.106567 452.418884 566.888 452.200317 566.888 451.930664 L 566.888 450.393982 C 566.888 450.12439 567.106567 449.905762 567.376221 449.905762 L 570.588318 449.905762 C 570.857971 449.905762 571.076538 450.12439 571.076538 450.393982 L 571.076538 451.930664 C 571.076538 452.200317 570.857971 452.418884 570.588318 452.418884 Z"/>
    <path id="path37" fill="#3f3d56" stroke="none" d="M 656.033569 457.445068 L 623.502014 457.445068 C 623.232361 457.445068 623.013794 457.226501 623.013794 456.956848 L 623.013794 455.420166 C 623.013794 455.150513 623.232361 454.931946 623.502014 454.931946 L 656.033569 454.931946 C 656.303162 454.931946 656.521729 455.150513 656.521729 455.420166 L 656.521729 456.956848 C 656.521729 457.226501 656.303162 457.445068 656.033569 457.445068 Z"/>
    <path id="path38" fill="#ffffff" stroke="none" d="M 586.192139 372.737061 L 589.035828 372.737061 C 589.89801 372.737061 590.596924 373.435974 590.596924 374.298157 L 590.596924 374.298157 C 590.596924 375.160309 589.89801 375.859222 589.035828 375.859222 L 586.192139 375.859222 C 585.329956 375.859222 584.631042 375.160309 584.631042 374.298157 L 584.631042 374.298157 C 584.631042 373.435974 585.329956 372.737061 586.192139 372.737061 Z"/>
    <path id="path39" fill="#ffffff" stroke="none" d="M 618.715149 372.737061 L 621.558838 372.737061 C 622.421021 372.737061 623.119934 373.435974 623.119934 374.298157 L 623.119934 374.298157 C 623.119934 375.160309 622.421021 375.859222 621.558838 375.859222 L 618.715149 375.859222 C 617.852966 375.859222 617.154053 375.160309 617.154053 374.298157 L 617.154053 374.298157 C 617.154053 373.435974 617.852966 372.737061 618.715149 372.737061 Z"/>
    <path id="path40" fill="#ffffff" stroke="none" d="M 627.929993 372.737061 L 630.773682 372.737061 C 631.635864 372.737061 632.334778 373.435974 632.334778 374.298157 L 632.334778 374.298157 C 632.334778 375.160309 631.635864 375.859222 630.773682 375.859222 L 627.929993 375.859222 C 627.06781 375.859222 626.368896 375.160309 626.368896 374.298157 L 626.368896 374.298157 C 626.368896 373.435974 627.06781 372.737061 627.929993 372.737061 Z"/>
    <path id="path41" fill="#ffffff" stroke="none" d="M 595.038513 372.476807 L 612.712463 372.476807 C 613.574646 372.476807 614.27356 373.17572 614.27356 374.037872 L 614.27356 374.037872 C 614.27356 374.900055 613.574646 375.598969 612.712463 375.598969 L 595.038513 375.598969 C 594.176331 375.598969 593.477417 374.900055 593.477417 374.037872 L 593.477417 374.037872 C 593.477417 373.17572 594.176331 372.476807 595.038513 372.476807 Z"/>
    <path id="path42" fill="#ffffff" stroke="none" d="M 638.402527 372.476807 L 656.076477 372.476807 C 656.93866 372.476807 657.637573 373.17572 657.637573 374.037872 L 657.637573 374.037872 C 657.637573 374.900055 656.93866 375.598969 656.076477 375.598969 L 638.402527 375.598969 C 637.540344 375.598969 636.841431 374.900055 636.841431 374.037872 L 636.841431 374.037872 C 636.841431 373.17572 637.540344 372.476807 638.402527 372.476807 Z"/>
    <path id="path43" fill="#ffffff" stroke="none" d="M 594.864929 379.783722 L 597.708618 379.783722 C 598.570801 379.783722 599.269714 380.482635 599.269714 381.344818 L 599.269714 381.344818 C 599.269714 382.20697 598.570801 382.905884 597.708618 382.905884 L 594.864929 382.905884 C 594.002808 382.905884 593.303833 382.20697 593.303833 381.344818 L 593.303833 381.344818 C 593.303833 380.482635 594.002808 379.783722 594.864929 379.783722 Z"/>
    <path id="path44" fill="#ffffff" stroke="none" d="M 627.387939 379.783722 L 630.231628 379.783722 C 631.093811 379.783722 631.792725 380.482635 631.792725 381.344818 L 631.792725 381.344818 C 631.792725 382.20697 631.093811 382.905884 630.231628 382.905884 L 627.387939 382.905884 C 626.525818 382.905884 625.826843 382.20697 625.826843 381.344818 L 625.826843 381.344818 C 625.826843 380.482635 626.525818 379.783722 627.387939 379.783722 Z"/>
    <path id="path45" fill="#ffffff" stroke="none" d="M 636.602783 379.783722 L 639.446472 379.783722 C 640.308655 379.783722 641.007568 380.482635 641.007568 381.344818 L 641.007568 381.344818 C 641.007568 382.20697 640.308655 382.905884 639.446472 382.905884 L 636.602783 382.905884 C 635.740662 382.905884 635.041748 382.20697 635.041748 381.344818 L 635.041748 381.344818 C 635.041748 380.482635 635.740662 379.783722 636.602783 379.783722 Z"/>
    <path id="path46" fill="#ffffff" stroke="none" d="M 603.711304 379.523438 L 621.385254 379.523438 C 622.247437 379.523438 622.94635 380.222382 622.94635 381.084534 L 622.94635 381.084534 C 622.94635 381.946686 622.247437 382.645599 621.385254 382.645599 L 603.711304 382.645599 C 602.849121 382.645599 602.150208 381.946686 602.150208 381.084534 L 602.150208 381.084534 C 602.150208 380.222382 602.849121 379.523438 603.711304 379.523438 Z"/>
    <path id="path47" fill="#ffffff" stroke="none" d="M 647.075317 379.523438 L 664.749268 379.523438 C 665.61145 379.523438 666.310364 380.222382 666.310364 381.084534 L 666.310364 381.084534 C 666.310364 381.946686 665.61145 382.645599 664.749268 382.645599 L 647.075317 382.645599 C 646.213135 382.645599 645.514221 381.946686 645.514221 381.084534 L 645.514221 381.084534 C 645.514221 380.222382 646.213135 379.523438 647.075317 379.523438 Z"/>
    <path id="path48" fill="#ffffff" stroke="none" d="M 603.53772 386.830383 L 606.381409 386.830383 C 607.243591 386.830383 607.942505 387.529297 607.942505 388.391449 L 607.942505 388.391449 C 607.942505 389.253632 607.243591 389.952545 606.381409 389.952545 L 603.53772 389.952545 C 602.675598 389.952545 601.976685 389.253632 601.976685 388.391449 L 601.976685 388.391449 C 601.976685 387.529297 602.675598 386.830383 603.53772 386.830383 Z"/>
    <path id="path49" fill="#ffffff" stroke="none" d="M 636.06073 386.830383 L 638.904419 386.830383 C 639.766602 386.830383 640.465515 387.529297 640.465515 388.391449 L 640.465515 388.391449 C 640.465515 389.253632 639.766602 389.952545 638.904419 389.952545 L 636.06073 389.952545 C 635.198608 389.952545 634.499695 389.253632 634.499695 388.391449 L 634.499695 388.391449 C 634.499695 387.529297 635.198608 386.830383 636.06073 386.830383 Z"/>
    <path id="path50" fill="#ffffff" stroke="none" d="M 645.275635 386.830383 L 648.119324 386.830383 C 648.981445 386.830383 649.680359 387.529297 649.680359 388.391449 L 649.680359 388.391449 C 649.680359 389.253632 648.981445 389.952545 648.119324 389.952545 L 645.275635 389.952545 C 644.413452 389.952545 643.714539 389.253632 643.714539 388.391449 L 643.714539 388.391449 C 643.714539 387.529297 644.413452 386.830383 645.275635 386.830383 Z"/>
    <path id="path51" fill="#ffffff" stroke="none" d="M 612.384094 386.570099 L 630.058105 386.570099 C 630.920227 386.570099 631.619141 387.269043 631.619141 388.131195 L 631.619141 388.131195 C 631.619141 388.993347 630.920227 389.692261 630.058105 389.692261 L 612.384094 389.692261 C 611.521973 389.692261 610.823059 388.993347 610.823059 388.131195 L 610.823059 388.131195 C 610.823059 387.269043 611.521973 386.570099 612.384094 386.570099 Z"/>
    <path id="path52" fill="#ffffff" stroke="none" d="M 655.748108 386.570099 L 673.422119 386.570099 C 674.284241 386.570099 674.983154 387.269043 674.983154 388.131195 L 674.983154 388.131195 C 674.983154 388.993347 674.284241 389.692261 673.422119 389.692261 L 655.748108 389.692261 C 654.885986 389.692261 654.187012 388.993347 654.187012 388.131195 L 654.187012 388.131195 C 654.187012 387.269043 654.885986 386.570099 655.748108 386.570099 Z"/>
    <path id="path53" fill="#ffffff" stroke="none" d="M 612.210571 393.877045 L 615.05426 393.877045 C 615.916382 393.877045 616.615295 394.575958 616.615295 395.43811 L 616.615295 395.43811 C 616.615295 396.300262 615.916382 396.999176 615.05426 396.999176 L 612.210571 396.999176 C 611.348389 396.999176 610.649475 396.300262 610.649475 395.43811 L 610.649475 395.43811 C 610.649475 394.575958 611.348389 393.877045 612.210571 393.877045 Z"/>
    <path id="path54" fill="#ffffff" stroke="none" d="M 644.733582 393.877045 L 647.577271 393.877045 C 648.439392 393.877045 649.138306 394.575958 649.138306 395.43811 L 649.138306 395.43811 C 649.138306 396.300262 648.439392 396.999176 647.577271 396.999176 L 644.733582 396.999176 C 643.871399 396.999176 643.172485 396.300262 643.172485 395.43811 L 643.172485 395.43811 C 643.172485 394.575958 643.871399 393.877045 644.733582 393.877045 Z"/>
    <path id="path55" fill="#ffffff" stroke="none" d="M 653.948425 393.877045 L 656.792114 393.877045 C 657.654236 393.877045 658.35321 394.575958 658.35321 395.43811 L 658.35321 395.43811 C 658.35321 396.300262 657.654236 396.999176 656.792114 396.999176 L 653.948425 396.999176 C 653.086243 396.999176 652.387329 396.300262 652.387329 395.43811 L 652.387329 395.43811 C 652.387329 394.575958 653.086243 393.877045 653.948425 393.877045 Z"/>
    <path id="path56" fill="#ffffff" stroke="none" d="M 621.056885 393.61676 L 638.730896 393.61676 C 639.593018 393.61676 640.291931 394.315674 640.291931 395.177826 L 640.291931 395.177826 C 640.291931 396.040009 639.593018 396.738922 638.730896 396.738922 L 621.056885 396.738922 C 620.194763 396.738922 619.49585 396.040009 619.49585 395.177826 L 619.49585 395.177826 C 619.49585 394.315674 620.194763 393.61676 621.056885 393.61676 Z"/>
    <path id="path57" fill="#ffffff" stroke="none" d="M 618.715149 421.897522 L 621.558838 421.897522 C 622.421021 421.897522 623.119934 422.596436 623.119934 423.458588 L 623.119934 423.458588 C 623.119934 424.32074 622.421021 425.019684 621.558838 425.019684 L 618.715149 425.019684 C 617.852966 425.019684 617.154053 424.32074 617.154053 423.458588 L 617.154053 423.458588 C 617.154053 422.596436 617.852966 421.897522 618.715149 421.897522 Z"/>
    <path id="path58" fill="#ffffff" stroke="none" d="M 627.929993 421.897522 L 630.773682 421.897522 C 631.635864 421.897522 632.334778 422.596436 632.334778 423.458588 L 632.334778 423.458588 C 632.334778 424.32074 631.635864 425.019684 630.773682 425.019684 L 627.929993 425.019684 C 627.06781 425.019684 626.368896 424.32074 626.368896 423.458588 L 626.368896 423.458588 C 626.368896 422.596436 627.06781 421.897522 627.929993 421.897522 Z"/>
    <path id="path59" fill="#ffffff" stroke="none" d="M 638.402527 422.157776 L 656.076477 422.157776 C 656.93866 422.157776 657.637573 422.85672 657.637573 423.718872 L 657.637573 423.718872 C 657.637573 424.581024 656.93866 425.279938 656.076477 425.279938 L 638.402527 425.279938 C 637.540344 425.279938 636.841431 424.581024 636.841431 423.718872 L 636.841431 423.718872 C 636.841431 422.85672 637.540344 422.157776 638.402527 422.157776 Z"/>
    <path id="path60" fill="#ffffff" stroke="none" d="M 586.192139 421.897522 L 589.035828 421.897522 C 589.89801 421.897522 590.596924 422.596436 590.596924 423.458588 L 590.596924 423.458588 C 590.596924 424.32074 589.89801 425.019684 589.035828 425.019684 L 586.192139 425.019684 C 585.329956 425.019684 584.631042 424.32074 584.631042 423.458588 L 584.631042 423.458588 C 584.631042 422.596436 585.329956 421.897522 586.192139 421.897522 Z"/>
    <path id="path61" fill="#ffffff" stroke="none" d="M 595.038513 422.157776 L 612.712463 422.157776 C 613.574646 422.157776 614.27356 422.85672 614.27356 423.718872 L 614.27356 423.718872 C 614.27356 424.581024 613.574646 425.279938 612.712463 425.279938 L 595.038513 425.279938 C 594.176331 425.279938 593.477417 424.581024 593.477417 423.718872 L 593.477417 423.718872 C 593.477417 422.85672 594.176331 422.157776 595.038513 422.157776 Z"/>
    <path id="path62" fill="#ffffff" stroke="none" d="M 594.864929 414.850861 L 597.708618 414.850861 C 598.570801 414.850861 599.269714 415.549774 599.269714 416.411926 L 599.269714 416.411926 C 599.269714 417.274109 598.570801 417.973022 597.708618 417.973022 L 594.864929 417.973022 C 594.002808 417.973022 593.303833 417.274109 593.303833 416.411926 L 593.303833 416.411926 C 593.303833 415.549774 594.002808 414.850861 594.864929 414.850861 Z"/>
    <path id="path63" fill="#ffffff" stroke="none" d="M 627.387939 414.850861 L 630.231628 414.850861 C 631.093811 414.850861 631.792725 415.549774 631.792725 416.411926 L 631.792725 416.411926 C 631.792725 417.274109 631.093811 417.973022 630.231628 417.973022 L 627.387939 417.973022 C 626.525818 417.973022 625.826843 417.274109 625.826843 416.411926 L 625.826843 416.411926 C 625.826843 415.549774 626.525818 414.850861 627.387939 414.850861 Z"/>
    <path id="path64" fill="#ffffff" stroke="none" d="M 636.602783 414.850861 L 639.446472 414.850861 C 640.308655 414.850861 641.007568 415.549774 641.007568 416.411926 L 641.007568 416.411926 C 641.007568 417.274109 640.308655 417.973022 639.446472 417.973022 L 636.602783 417.973022 C 635.740662 417.973022 635.041748 417.274109 635.041748 416.411926 L 635.041748 416.411926 C 635.041748 415.549774 635.740662 414.850861 636.602783 414.850861 Z"/>
    <path id="path65" fill="#ffffff" stroke="none" d="M 603.711304 415.111145 L 621.385254 415.111145 C 622.247437 415.111145 622.94635 415.810059 622.94635 416.672211 L 622.94635 416.672211 C 622.94635 417.534363 622.247437 418.233276 621.385254 418.233276 L 603.711304 418.233276 C 602.849121 418.233276 602.150208 417.534363 602.150208 416.672211 L 602.150208 416.672211 C 602.150208 415.810059 602.849121 415.111145 603.711304 415.111145 Z"/>
    <path id="path66" fill="#ffffff" stroke="none" d="M 603.53772 407.804199 L 606.381409 407.804199 C 607.243591 407.804199 607.942505 408.503143 607.942505 409.365295 L 607.942505 409.365295 C 607.942505 410.227448 607.243591 410.926361 606.381409 410.926361 L 603.53772 410.926361 C 602.675598 410.926361 601.976685 410.227448 601.976685 409.365295 L 601.976685 409.365295 C 601.976685 408.503143 602.675598 407.804199 603.53772 407.804199 Z"/>
    <path id="path67" fill="#ffffff" stroke="none" d="M 636.06073 407.804199 L 638.904419 407.804199 C 639.766602 407.804199 640.465515 408.503143 640.465515 409.365295 L 640.465515 409.365295 C 640.465515 410.227448 639.766602 410.926361 638.904419 410.926361 L 636.06073 410.926361 C 635.198608 410.926361 634.499695 410.227448 634.499695 409.365295 L 634.499695 409.365295 C 634.499695 408.503143 635.198608 407.804199 636.06073 407.804199 Z"/>
    <path id="path68" fill="#ffffff" stroke="none" d="M 645.275635 407.804199 L 648.119324 407.804199 C 648.981445 407.804199 649.680359 408.503143 649.680359 409.365295 L 649.680359 409.365295 C 649.680359 410.227448 648.981445 410.926361 648.119324 410.926361 L 645.275635 410.926361 C 644.413452 410.926361 643.714539 410.227448 643.714539 409.365295 L 643.714539 409.365295 C 643.714539 408.503143 644.413452 407.804199 645.275635 407.804199 Z"/>
    <path id="path69" fill="#ffffff" stroke="none" d="M 612.384094 408.064484 L 630.058105 408.064484 C 630.920227 408.064484 631.619141 408.763397 631.619141 409.625549 L 631.619141 409.625549 C 631.619141 410.487732 630.920227 411.186646 630.058105 411.186646 L 612.384094 411.186646 C 611.521973 411.186646 610.823059 410.487732 610.823059 409.625549 L 610.823059 409.625549 C 610.823059 408.763397 611.521973 408.064484 612.384094 408.064484 Z"/>
    <path id="path70" fill="#ffffff" stroke="none" d="M 612.210571 400.757538 L 615.05426 400.757538 C 615.916382 400.757538 616.615295 401.456482 616.615295 402.318634 L 616.615295 402.318634 C 616.615295 403.180786 615.916382 403.8797 615.05426 403.8797 L 612.210571 403.8797 C 611.348389 403.8797 610.649475 403.180786 610.649475 402.318634 L 610.649475 402.318634 C 610.649475 401.456482 611.348389 400.757538 612.210571 400.757538 Z"/>
    <path id="path71" fill="#ffffff" stroke="none" d="M 644.733582 400.757538 L 647.577271 400.757538 C 648.439392 400.757538 649.138306 401.456482 649.138306 402.318634 L 649.138306 402.318634 C 649.138306 403.180786 648.439392 403.8797 647.577271 403.8797 L 644.733582 403.8797 C 643.871399 403.8797 643.172485 403.180786 643.172485 402.318634 L 643.172485 402.318634 C 643.172485 401.456482 643.871399 400.757538 644.733582 400.757538 Z"/>
    <path id="path72" fill="#ffffff" stroke="none" d="M 653.948425 400.757538 L 656.792114 400.757538 C 657.654236 400.757538 658.35321 401.456482 658.35321 402.318634 L 658.35321 402.318634 C 658.35321 403.180786 657.654236 403.8797 656.792114 403.8797 L 653.948425 403.8797 C 653.086243 403.8797 652.387329 403.180786 652.387329 402.318634 L 652.387329 402.318634 C 652.387329 401.456482 653.086243 400.757538 653.948425 400.757538 Z"/>
    <path id="path73" fill="#ffffff" stroke="none" d="M 621.056885 401.017822 L 638.730896 401.017822 C 639.593018 401.017822 640.291931 401.716736 640.291931 402.578918 L 640.291931 402.578918 C 640.291931 403.441071 639.593018 404.139984 638.730896 404.139984 L 621.056885 404.139984 C 620.194763 404.139984 619.49585 403.441071 619.49585 402.578918 L 619.49585 402.578918 C 619.49585 401.716736 620.194763 401.017822 621.056885 401.017822 Z"/>
    <path id="path74" fill="#ffb6b6" stroke="none" d="M 573.917236 504.481598 L 560.567688 483.379974 L 602.469727 449.977142 L 619.765015 430.816071 C 624.33783 425.750031 631.26001 423.498505 637.938049 424.90506 C 644.61615 426.311615 650.042114 431.16391 652.183044 437.644012 L 652.183044 437.644012 C 655.423523 447.452362 650.305847 458.064056 640.612915 461.634979 L 613.264099 471.710358 Z"/>
    <path id="path75" fill="#2f2e41" stroke="none" d="M 260.689972 351.480804 L 260.689972 454.040802 L 332.539978 454.040802 L 332.539978 351.480804 C 332.54248 349.966553 331.556732 348.627869 330.109985 348.180817 C 329.777802 348.071106 329.429779 348.017029 329.079987 348.020813 L 264.159973 348.020813 C 263.240845 348.019012 262.358734 348.38266 261.707886 349.031647 C 261.057037 349.680603 260.690857 350.561676 260.689972 351.480804 Z M 288.72998 386.720795 C 288.769012 382.512543 292.191528 379.121613 296.399963 379.121613 C 300.608429 379.121613 304.030945 382.512543 304.069977 386.720795 L 304.069977 398.620819 C 304.048431 402.841522 300.620758 406.25174 296.399963 406.25174 C 292.179169 406.25174 288.751526 402.841522 288.72998 398.620819 Z"/>
    <path id="path76" fill="#3f3d56" stroke="none" d="M 260.470032 450.760895 L 260.470032 460.650848 C 260.473389 461.71701 261.333923 462.582001 262.400024 462.590851 L 330.830048 462.590851 C 331.897614 462.585541 332.760193 461.718475 332.76004 460.650848 L 332.76004 450.760895 Z"/>
    <path id="path77" fill="#3f3d56" stroke="none" d="M 147.659973 196.960876 L 147.659973 384.220795 C 147.66391 389.189728 151.69104 393.216888 156.659973 393.220795 L 434.159973 393.220795 C 439.128906 393.216888 443.156067 389.189728 443.159973 384.220795 L 443.159973 196.960876 C 443.148132 191.996826 439.124023 187.977173 434.159973 187.970886 L 156.659973 187.970886 C 151.695923 187.977203 147.671814 191.996857 147.659973 196.960876 Z"/>
    <path id="path78" fill="#ffffff" stroke="none" d="M 154.169983 199.290802 L 154.169983 381.910797 C 154.174561 384.565399 156.325378 386.716217 158.97998 386.720795 L 431.849976 386.720795 C 434.504578 386.716217 436.655396 384.565399 436.659973 381.910797 L 436.659973 199.290802 C 436.659729 196.632813 434.507996 194.476593 431.849976 194.470795 L 158.97998 194.470795 C 156.321991 194.476593 154.170258 196.632813 154.169983 199.290802 Z"/>
    <path id="path79" fill="#2f2e41" stroke="none" d="M 204.809967 461.920807 C 205.372681 462.626373 206.227509 463.03537 207.129974 463.030792 L 369.469971 463.030792 C 370.36908 463.029694 371.219879 462.623627 371.786255 461.925385 C 372.352661 461.227081 372.574402 460.310822 372.389984 459.430817 L 369.869965 447.460785 C 369.657745 446.469025 368.957642 445.652191 368.009979 445.290802 C 367.672302 445.158356 367.312714 445.090485 366.949982 445.090851 L 209.639984 445.090851 C 209.277222 445.090485 208.917664 445.158295 208.579987 445.290802 C 207.632294 445.652191 206.932159 446.469025 206.719971 447.460785 L 204.199982 459.430817 C 204.018402 460.310333 204.242432 461.224823 204.809967 461.920807 Z"/>
    <path id="path80" fill="#3f3d56" stroke="none" d="M 422.994507 219.627533 L 167.671112 219.627533 C 167.119141 219.615295 166.67807 219.164307 166.67807 218.612183 C 166.67807 218.060059 167.119141 217.6091 167.671112 217.596832 L 422.994507 217.596832 C 423.546448 217.6091 423.987549 218.060059 423.987549 218.612183 C 423.987549 219.164307 423.546448 219.615295 422.994507 219.627533 Z"/>
    <path id="path81" fill="#3f3d56" stroke="none" d="M 191.00174 206.329651 C 191.00174 209.689209 188.337631 212.412659 185.0513 212.412659 C 181.764969 212.412659 179.100876 209.689209 179.100876 206.329651 C 179.100876 202.970062 181.764969 200.246582 185.0513 200.246582 C 188.337631 200.246582 191.00174 202.970062 191.00174 206.329651 Z"/>
    <path id="path82" fill="#3f3d56" stroke="none" d="M 211.557755 206.329651 C 211.557755 209.689209 208.893661 212.412659 205.60733 212.412659 C 202.320999 212.412659 199.656906 209.689209 199.656906 206.329651 C 199.656906 202.970062 202.320999 200.246582 205.60733 200.246582 C 208.893661 200.246582 211.557755 202.970062 211.557755 206.329651 Z"/>
    <path id="path83" fill="#3f3d56" stroke="none" d="M 232.113785 206.329651 C 232.113785 209.689209 229.449692 212.412659 226.163361 212.412659 C 222.877029 212.412659 220.212936 209.689209 220.212936 206.329651 C 220.212936 202.970062 222.877029 200.246582 226.163361 200.246582 C 229.449692 200.246582 232.113785 202.970062 232.113785 206.329651 Z"/>
    <path id="path84" fill="#3f3d56" stroke="none" d="M 410.616333 201.750885 L 396.016357 201.750885 C 395.416077 201.764862 394.936768 202.255463 394.936768 202.855865 C 394.936768 203.456268 395.416077 203.946899 396.016357 203.960876 L 410.616333 203.960876 C 411.22052 203.952362 411.705872 203.460144 411.705872 202.855865 C 411.705872 202.251617 411.22052 201.759399 410.616333 201.750885 Z"/>
    <path id="path85" fill="#3f3d56" stroke="none" d="M 410.616333 205.900879 L 396.016357 205.900879 C 395.415588 205.914154 394.935486 206.404968 394.935486 207.00589 C 394.935486 207.606781 395.415588 208.097595 396.016357 208.11087 L 410.616333 208.11087 C 411.221436 208.103607 411.70813 207.611023 411.70813 207.00589 C 411.70813 206.400757 411.221436 205.908142 410.616333 205.900879 Z"/>
    <path id="path86" fill="#3f3d56" stroke="none" d="M 410.616333 210.050812 L 396.016357 210.050812 C 395.416077 210.064789 394.936768 210.55542 394.936768 211.155823 C 394.936768 211.756226 395.416077 212.246826 396.016357 212.260803 L 410.616333 212.260803 C 411.22052 212.252289 411.705872 211.760071 411.705872 211.155823 C 411.705872 210.551575 411.22052 210.059326 410.616333 210.050812 Z"/>
    <path id="path87" fill="#2f2e41" stroke="none" d="M 762.595703 455.101227 C 763.499573 457.732941 765.996704 459.482025 768.778809 459.432281 L 795.27063 458.750458 C 798.076294 458.695831 800.510864 456.80014 801.251526 454.093475 L 805.000366 414.006256 C 806.330444 414.608795 807.778442 414.906342 809.238342 414.877045 C 814.572449 414.743134 818.788025 410.310455 818.654175 404.976288 C 818.520264 399.642181 814.087524 395.426544 808.753418 395.560455 C 808.169922 395.558624 807.587891 395.61911 807.017212 395.741058 C 805.762329 394.383331 803.991882 393.619476 802.143188 393.638031 L 761.3927 394.690338 C 761.054626 394.702789 760.718323 394.744537 760.387512 394.815155 C 758.579407 395.152191 757.005554 396.254913 756.071411 397.839203 C 755.137207 399.423492 754.934082 401.334503 755.514282 403.079742 Z M 805.769165 411.284393 L 808.436829 401.731659 C 808.740295 400.628204 808.747314 399.464142 808.457153 398.357086 C 808.586609 398.356781 808.700806 398.29538 808.830261 398.295074 C 812.638611 398.216339 815.792542 401.234222 815.881714 405.042328 C 815.970886 408.850433 812.96167 412.012604 809.153809 412.112213 C 807.971313 412.1492 806.801147 411.863007 805.769165 411.284393 Z"/>
    <path id="path88" fill="#3f3d56" stroke="none" d="M 760.387512 394.815094 C 761.255676 399.779205 771.016602 403.268951 782.753357 402.662384 C 793.546021 402.165131 802.370789 398.375397 803.987549 393.883881 C 803.389221 393.70694 802.766968 393.623993 802.143188 393.638031 L 761.3927 394.690277 C 761.054626 394.702789 760.718323 394.744537 760.387512 394.815094 Z"/>
    <path id="path89" fill="#7c86ff" stroke="none" d="M 784.904358 433.073029 C 784.958008 433.059479 785.009033 433.037018 785.055237 433.006622 L 790.808411 429.240936 C 790.949707 429.148834 791.034912 428.991608 791.035034 428.822906 C 791.035095 428.654266 790.949951 428.496979 790.808716 428.404755 L 784.828979 424.488068 C 784.679626 424.389252 784.488892 424.377899 784.328857 424.458282 C 784.168884 424.538605 784.064087 424.698456 784.054199 424.877228 C 784.044373 425.056 784.130859 425.22641 784.281006 425.323944 L 789.621948 428.822113 L 784.507935 432.170013 C 784.303467 432.303741 784.225586 432.565643 784.323792 432.789398 C 784.421997 433.013092 784.66748 433.133026 784.904297 433.073029 Z"/>
    <path id="path90" fill="#7c86ff" stroke="none" d="M 775.817566 433.492096 C 776.015137 433.442047 776.162537 433.277191 776.190247 433.075348 C 776.217957 432.873505 776.120422 432.675018 775.943665 432.573639 L 770.640625 429.533295 L 775.766235 425.726105 C 775.987732 425.561493 776.033813 425.248505 775.869263 425.027008 C 775.704651 424.805573 775.391724 424.75943 775.170227 424.923981 L 769.43158 429.186676 C 769.296143 429.287018 769.220459 429.449005 769.230347 429.61734 C 769.240295 429.785675 769.334473 429.937592 769.480774 430.021393 L 775.446045 433.441071 C 775.558533 433.505707 775.691833 433.523956 775.817566 433.492096 Z"/>
    <path id="path91" fill="#7c86ff" stroke="none" d="M 784.332153 436.373016 C 784.380493 436.360931 784.426697 436.341461 784.469116 436.315216 C 784.58252 436.246368 784.66394 436.135223 784.695313 436.006317 C 784.726746 435.877472 784.705627 435.741364 784.636658 435.628021 L 776.48114 422.219696 C 776.337158 421.984283 776.029785 421.909943 775.794128 422.053558 C 775.558472 422.197113 775.483582 422.504364 775.62677 422.740265 L 783.782227 436.14859 C 783.896484 436.335907 784.119446 436.426849 784.332153 436.373016 Z"/>
    <path id="path92" fill="#7c86ff" stroke="none" d="M 281.648712 274.827118 L 325.839539 274.827118 C 327.642273 274.827118 329.103699 276.288544 329.103699 278.091309 L 329.103699 282.408661 C 329.103699 284.211426 327.642273 285.672821 325.839539 285.672821 L 281.648712 285.672821 C 279.845978 285.672821 278.384552 284.211426 278.384552 282.408661 L 278.384552 278.091309 C 278.384552 276.288544 279.845978 274.827118 281.648712 274.827118 Z"/>
    <path id="path93" fill="#e6e6e6" stroke="none" d="M 255.890182 296.518524 L 351.598053 296.518524 C 353.400818 296.518524 354.862244 297.97995 354.862244 299.782684 L 354.862244 304.100037 C 354.862244 305.902802 353.400818 307.364227 351.598053 307.364227 L 255.890182 307.364227 C 254.087433 307.364227 252.626007 305.902802 252.626007 304.100037 L 252.626007 299.782684 C 252.626007 297.97995 254.087433 296.518524 255.890182 296.518524 Z"/>
    <path id="path94" fill="#e6e6e6" stroke="none" d="M 255.890182 318.2099 L 351.598053 318.2099 C 353.400818 318.2099 354.862244 319.671326 354.862244 321.474091 L 354.862244 325.791443 C 354.862244 327.594177 353.400818 329.055603 351.598053 329.055603 L 255.890182 329.055603 C 254.087433 329.055603 252.626007 327.594177 252.626007 325.791443 L 252.626007 321.474091 C 252.626007 319.671326 254.087433 318.2099 255.890182 318.2099 Z"/>
    <path id="path95" fill="#3f3d56" stroke="none" d="M 359.711212 390.845856 L 359.927948 391.530304 L 359.939362 391.553131 L 366.464508 411.391144 L 373.970795 434.252106 L 388.093506 477.213409 L 388.230347 483.886871 L 388.230347 483.909698 L 389.279846 537.594177 L 386.370911 544.872253 L 389.644897 556.804626 C 389.644897 556.804626 388.139099 538.767639 380.0625 549.125793 C 375.488037 555.012207 370.137848 561.0354 365.74585 566.682251 C 372.145589 569.27181 378.64797 571.614176 385.252991 573.709351 C 386.679016 574.165649 388.116333 574.599182 389.553711 575.032654 C 389.861654 575.123922 390.169657 575.215169 390.477722 575.306396 C 412.372437 581.781372 435.007629 585.419678 457.828552 586.132324 C 459.014954 586.166565 460.178589 586.18927 461.307922 586.212158 C 461.707214 586.223572 462.095032 586.234985 462.48291 586.234985 C 463.760559 586.246399 465.026794 586.257751 466.304443 586.257751 C 468.882568 586.257751 471.4493 586.219747 474.004639 586.143738 C 492.917847 585.610657 511.720764 583.067688 530.09613 578.557556 C 529.970642 570.971497 529.628418 562.107727 529.137878 552.639404 C 528.909729 547.99646 523.78772 542.965698 523.479675 538.106018 C 523.262939 534.455566 527.860229 531.021851 527.620667 527.314331 C 526.069214 504.48764 524.129944 513.250183 522.692566 497.085541 C 522.54425 495.499888 522.407349 493.982676 522.28186 492.533905 C 521.35791 482.152924 520.719055 475.661896 520.719055 475.661896 L 526.856384 436.978546 L 536.49585 376.24411 L 535.754333 375.023468 L 534.921631 374.612823 L 484.077576 349.44751 L 481.316956 342.374725 C 479.671326 338.206085 475.657166 335.456207 471.175537 335.427429 L 437.682617 335.290558 C 434.156128 335.274658 430.838562 336.961029 428.773193 339.819427 L 419.704163 352.379211 Z"/>
    <path id="path96" fill="#3f3d56" stroke="none" d="M 395.816528 467.653656 L 388.230347 483.886871 L 383.051392 494.975067 L 374.141998 541.621094 L 369.681549 546.355225 L 365.859985 529.595825 L 325.862244 538.476807 C 324.550354 531.187256 325.511047 538.723389 324.70108 530.726685 C 324.92926 530.498535 325.168762 530.270325 325.408356 530.042175 C 326.04718 529.448975 326.583344 528.890015 326.57196 528.353882 C 326.115631 500.770172 327.484558 453.827606 338.91507 425.388275 C 340.705292 420.744843 343.065735 416.341949 345.942139 412.280853 C 346.170319 411.97287 346.387085 411.664825 346.603821 411.356842 C 351.874176 403.976044 355.20517 396.709381 359.927979 391.541779 L 359.927979 391.530365 C 359.957367 391.506622 359.984131 391.479828 360.007843 391.45047 C 360.024994 391.441925 360.040466 391.430328 360.053436 391.416229 L 392.496826 374.21347 L 393.888611 413.318939 L 394.881104 441.42746 Z"/>
    <path id="path97" fill="#3f3d56" stroke="none" d="M 512.801392 472.264374 L 522.277344 492.539337 L 525.584778 499.60025 L 534.491577 546.241882 L 538.937378 550.964478 L 542.767761 534.20929 L 544.567566 533.840088 L 577.026062 527.117676 L 586.486633 557.16394 C 590.882446 549.839661 589.51947 540.433716 583.225403 534.658386 C 582.579346 534.073853 582.040955 533.5047 582.056274 532.966309 C 582.594727 500.523224 580.610291 441.282684 562.688965 416.900421 C 556.997131 409.162689 553.582153 401.455719 548.613342 396.071625 C 548.5979 396.056305 548.5979 396.040924 548.582642 396.040924 L 536.491394 376.242767 L 535.752991 375.027435 L 534.922363 374.612152 Z"/>
    <path id="a657ec4b-47ce-4d2a-9c58-81a811696ca9" fill="#ffb6b6" stroke="none" d="M 499.954773 281.200531 C 499.954773 305.809357 480.005341 325.758789 455.396515 325.758789 C 430.787659 325.758789 410.838226 305.809357 410.838226 281.200531 C 410.838226 256.591675 430.787659 236.642273 455.396515 236.642273 C 480.005341 236.642273 499.954773 256.591675 499.954773 281.200531 Z"/>
    <path id="path98" fill="#2f2e41" stroke="none" d="M 515.622253 250.076782 C 514.924438 249.331238 513.953308 248.901642 512.932251 248.88678 L 513.602234 247.026794 C 514.047485 245.833984 513.81543 244.493774 512.995056 243.520111 C 512.174683 242.546417 510.893311 242.090363 509.642273 242.326782 L 507.202271 242.796783 L 507.432251 241.166779 C 507.611694 239.931702 507.126404 238.693542 506.155396 237.909363 C 505.184448 237.125214 503.871887 236.911377 502.702271 237.346771 C 501.643005 237.763702 500.451965 237.679138 499.462219 237.116791 C 498.469177 236.57193 497.766724 235.617035 497.542236 234.506744 L 496.692261 230.406738 L 496.602234 230.186737 C 492.462219 223.286743 484.502258 218.266724 474.762268 216.426727 C 466.092163 214.776733 457.202271 215.61673 448.632263 216.406738 C 445.232239 216.726746 441.392273 217.086731 438.192261 219.046722 C 435.472229 220.726746 433.172241 224.086731 433.642273 227.476746 C 425.192261 224.886749 416.132263 230.056732 411.642273 236.576721 C 406.322266 244.336731 405.452271 254.056732 405.312256 261.656738 C 404.932251 279.636749 408.642273 294.346741 416.312256 305.386749 C 416.872253 306.186737 417.012268 307.85675 418.122253 308.416748 L 417.892273 308.046722 C 419.132263 308.666748 420.392273 309.666748 419.922241 310.736725 C 418.572266 313.816742 427.542236 320.62674 433.862244 322.87674 C 445.392273 326.986725 460.722229 326.636749 471.502258 325.156738 L 471.882263 322.60675 C 475.772217 322.076721 478.512268 321.066742 479.282227 319.486725 C 480.642273 318.326721 481.802246 317.286743 482.812256 316.326721 L 482.822266 316.316742 C 482.842224 316.296722 482.882263 316.266724 482.902222 316.246735 C 487.772217 311.576721 488.902222 308.916779 489.412231 304.866791 C 489.902222 300.89679 489.032227 296.866791 488.142273 293.236786 C 506.882263 296.13681 480.762268 273.276794 498.222229 268.856781 C 498.422485 268.795074 498.62616 268.744995 498.832214 268.706787 C 499.342224 268.586792 499.852234 268.466797 500.342224 268.326782 C 502.704224 267.685669 504.96582 266.719788 507.062256 265.456787 C 511.942261 262.486786 513.552246 258.546783 516.072266 254.106781 C 516.818542 252.809357 516.636353 251.177673 515.622253 250.076782 Z"/>
    <path id="path99" fill="#2f2e41" stroke="none" d="M 612.992249 475.436798 C 612.982239 477.186798 612.962219 479.636749 612.882263 482.666779 C 612.872253 483.086782 612.862244 483.516774 612.852234 483.956757 C 612.722229 489.526764 612.592224 494.196747 612.382263 499.386749 C 612.372253 499.746796 612.362244 500.096771 612.342224 500.456757 C 612.062256 507.696747 611.622253 516.12677 610.862244 529.476746 C 609.452271 554.136719 606.992249 532.86676 604.522217 541.516724 C 604.402222 541.946716 604.272217 542.456726 604.152222 543.056763 C 603.778198 545.233704 603.147156 547.358582 602.272217 549.386719 C 600.962219 550.166748 599.612244 550.916748 598.282227 551.666748 C 594.492249 553.776733 590.642273 555.806702 586.762268 557.736755 C 584.582214 558.816772 582.392273 559.87677 580.192322 560.896729 C 579.842285 561.056763 579.502319 561.216736 579.162292 561.36676 C 567.896423 566.577698 556.285767 571.008118 544.412292 574.62677 C 542.092285 575.326721 539.782288 576.006775 537.442322 576.636719 C 535.002319 577.316772 532.562317 577.956726 530.092285 578.556763 C 511.717529 583.067749 492.915161 585.612061 474.002319 586.146729 C 471.452271 586.226746 468.882263 586.256775 466.302307 586.256775 C 465.022278 586.256775 463.762268 586.246765 462.4823 586.236755 C 462.092285 586.236755 461.702271 586.226746 461.312317 586.216736 C 460.182312 586.186768 459.012268 586.166748 457.832275 586.136719 C 435.01123 585.424927 412.376099 581.785156 390.4823 575.306763 L 389.552307 575.036743 C 388.112305 574.596741 386.682312 574.166748 385.252319 573.706726 C 378.652262 571.61672 372.148916 569.276733 365.742279 566.686768 C 360.852285 564.716756 356.018951 562.603414 351.242279 560.346741 C 351.1987 560.334961 351.157898 560.314575 351.122284 560.286743 C 350.122284 559.826721 349.112305 559.346741 348.112305 558.85675 C 347.9823 558.786743 347.842285 558.716736 347.702301 558.646729 C 343.97226 556.826742 340.282257 554.920085 336.632294 552.926758 C 333.562286 545.876709 329.242279 544.526733 326.562286 538.326721 C 325.782288 536.484802 325.218536 534.558594 324.882294 532.586731 C 324.882294 532.566772 324.872284 532.546753 324.872284 532.516724 C 325.152283 536.236755 323.682281 525.916748 324.862305 532.476746 C 324.852295 532.35675 324.842285 532.226746 324.832306 532.076721 C 324.802307 531.716736 324.76236 531.276733 324.702362 530.726746 C 321.272339 497.236786 321.49234 458.936798 320.00235 427.376801 C 319.902313 425.336802 319.798981 423.383453 319.692352 421.516754 C 319.662354 420.896759 319.622345 420.286774 319.582306 419.686798 C 319.652313 419.506805 319.7323 419.316803 319.822296 419.136749 C 319.841461 419.08493 319.864868 419.03476 319.892303 418.986786 C 319.921783 418.924713 319.9552 418.864594 319.99231 418.806793 C 320.012299 418.776764 320.042297 418.736786 320.062317 418.706757 C 320.076935 418.672455 320.093628 418.639069 320.112305 418.606781 C 320.202301 418.466766 320.302307 418.316803 320.412292 418.176788 C 320.462311 418.116791 320.502289 418.066742 320.552307 418.016754 C 320.586823 417.965668 320.627106 417.918732 320.672302 417.876801 C 320.702972 417.828705 320.73999 417.785004 320.782318 417.746796 C 320.822296 417.706757 320.862305 417.656769 320.912292 417.606842 C 320.933685 417.575348 320.960815 417.548187 320.99231 417.526825 C 321.071381 417.435944 321.158386 417.352264 321.252289 417.276825 C 321.6091 416.948517 321.990173 416.647675 322.392303 416.376801 C 322.532257 416.286835 322.682312 416.196808 322.822296 416.096832 C 323.830078 415.493988 324.891235 414.985138 325.99231 414.576813 C 326.372314 414.436798 326.752289 414.306854 327.162292 414.16684 C 327.312317 414.126801 327.452301 414.076813 327.602295 414.026825 C 327.822296 413.956818 328.042297 413.88681 328.272308 413.836823 C 329.412292 413.496796 330.642303 413.206818 331.97229 412.936798 C 332.132294 412.90683 332.302307 412.876801 332.47229 412.836823 C 332.712311 412.786835 332.962311 412.746796 333.212311 412.706818 C 333.552307 412.64682 333.902313 412.586823 334.252289 412.526825 C 337.22229 412.056854 340.592316 411.706818 344.312317 411.476837 C 344.662313 411.456818 345.012309 411.436818 345.362305 411.41684 C 345.772308 411.39682 346.182312 411.376801 346.602295 411.356842 C 346.952301 411.336823 347.312317 411.326813 347.672302 411.316803 C 348.022308 411.296844 348.382294 411.286835 348.752289 411.276825 C 349.762299 411.246796 350.802307 411.216827 351.862305 411.196808 C 354.882294 411.13681 358.062317 411.15683 361.402313 411.226837 C 362.952301 411.266815 364.532318 411.306854 366.152313 411.376801 C 366.26236 411.376801 366.362305 411.38681 366.462311 411.38681 C 367.872314 411.436798 369.292297 411.496796 370.752289 411.576813 C 371.772308 411.626801 372.802307 411.676849 373.832245 411.736847 C 374.802246 411.796844 375.782227 411.856842 376.772278 411.926849 C 377.542236 411.966827 378.312256 412.026825 379.092224 412.076813 C 379.752258 412.126801 380.412231 412.176849 381.072266 412.216827 L 381.972229 412.276825 C 382.46228 412.316803 382.952271 412.346832 383.452271 412.39682 C 384.552246 412.486847 385.652283 412.576813 386.772278 412.66684 C 387.882263 412.766815 389.012268 412.866852 390.142273 412.966827 C 391.272278 413.066803 392.412231 413.176849 393.552246 413.286835 C 393.672241 413.296844 393.782227 413.306854 393.892273 413.316803 C 394.932251 413.426849 395.972229 413.526825 397.022278 413.63681 C 397.262268 413.65683 397.512268 413.676849 397.752258 413.706818 C 398.753357 413.807404 399.773987 413.92514 400.784241 414.032501 C 401.094299 414.065948 401.40271 414.098358 401.713684 414.132355 C 402.505066 414.218536 403.285217 414.293243 404.082153 414.38681 C 405.132141 414.506805 406.202209 414.616791 407.242188 414.756805 C 408.052185 414.846832 408.862183 414.936798 409.67218 415.036835 C 410.942139 415.186798 412.232178 415.346832 413.522156 415.516815 C 414.012146 415.576813 414.502136 415.63681 414.992188 415.706818 C 418.67218 416.16684 422.392151 416.676788 426.17218 417.206818 C 431.902161 418.016815 437.722168 418.89682 443.582153 419.846832 C 449.45223 420.796824 455.35557 421.800161 461.292175 422.856842 C 462.792175 423.126801 464.292175 423.39682 465.802185 423.676788 C 466.482157 423.806753 467.16215 423.936737 467.842163 424.066742 C 469.002136 424.276764 470.16217 424.496796 471.322144 424.716766 C 472.482178 424.936737 473.642151 425.156769 474.802185 425.386749 C 476.18219 425.656769 477.572144 425.926788 478.952148 426.196747 C 488.042175 427.996796 497.082092 429.916779 505.902161 431.926788 C 507.352173 432.256744 508.802185 432.596771 510.242188 432.926788 C 513.122152 433.596792 515.975484 434.276784 518.802185 434.966766 C 519.582153 435.146759 520.352173 435.336761 521.122192 435.526764 C 523.042175 436.006744 524.962158 436.486786 526.852173 436.976776 L 527.18219 437.066742 C 528.572144 437.406769 529.93219 437.756744 531.292175 438.116791 C 534.502177 438.956757 537.658834 439.806753 540.762146 440.666779 C 542.822164 441.236766 544.858846 441.813426 546.872192 442.396759 C 549.882141 443.266754 552.832153 444.146759 555.702148 445.036774 C 556.41217 445.256744 557.122192 445.476776 557.822144 445.686737 C 559.92218 446.336761 561.992188 446.996796 564.002136 447.656769 C 565.602173 448.176788 567.16217 448.706757 568.702148 449.236786 C 570.242147 449.766774 571.752157 450.296763 573.232178 450.826752 C 574.18219 451.166779 575.122192 451.526764 576.062134 451.866791 C 577.41217 452.366791 578.742188 452.866791 580.042175 453.366791 C 580.442139 453.516754 580.832153 453.676788 581.222168 453.826752 C 581.472168 453.936737 581.712158 454.026764 581.952148 454.12674 C 582.42218 454.316742 582.902161 454.496796 583.362183 454.686737 C 583.832153 454.866791 584.292175 455.056793 584.752136 455.256744 C 585.202148 455.436737 585.66217 455.62674 586.102173 455.816742 C 586.552185 455.996796 586.992188 456.186737 587.43219 456.386749 C 587.802185 456.536774 588.16217 456.696747 588.512146 456.856781 C 589.222168 457.166779 589.93219 457.476776 590.622192 457.796783 C 590.962158 457.956757 591.302185 458.106781 591.642151 458.266754 L 592.42218 458.62674 C 592.532166 458.686737 592.642151 458.736786 592.752136 458.786774 C 593.002136 458.906769 593.262146 459.036774 593.512146 459.156769 C 594.092102 459.426788 594.66217 459.716766 595.222168 459.986786 C 595.972168 460.366791 596.702148 460.746796 597.402161 461.116791 C 598.112183 461.496735 598.802185 461.87674 599.462158 462.246735 C 599.572144 462.306732 599.67218 462.366791 599.782166 462.426788 C 599.93219 462.506744 600.082153 462.596771 600.232178 462.676788 C 600.742188 462.966766 601.232178 463.266754 601.722168 463.556732 C 602.68219 464.146698 603.592163 464.726715 604.442139 465.306732 C 604.632141 465.436676 604.812134 465.566681 605.002136 465.686676 C 605.632141 466.136688 606.232178 466.576691 606.792175 467.026703 C 606.792175 467.036713 606.792175 467.036713 606.802185 467.036713 C 606.992188 467.176727 607.17218 467.326691 607.352173 467.466705 C 607.502136 467.60672 607.66217 467.726715 607.812134 467.86673 C 608.332153 468.316681 608.812134 468.746674 609.252136 469.186676 C 609.399658 469.322479 609.539856 469.466034 609.67218 469.61673 C 609.730408 469.664948 609.783936 469.718475 609.832153 469.776703 C 610.032166 469.976715 610.212158 470.176727 610.382141 470.376678 C 610.408508 470.404205 610.432007 470.434357 610.452148 470.466705 C 610.692139 470.746735 610.91217 471.026703 611.122192 471.306732 C 611.222168 471.446686 611.332153 471.5867 611.42218 471.726715 C 611.542175 471.896698 611.66217 472.076691 611.762146 472.246735 C 611.852173 472.386688 611.93219 472.536713 612.012146 472.676788 C 612.224365 473.03714 612.40509 473.415192 612.552185 473.806732 C 612.664551 474.072174 612.754883 474.346405 612.822144 474.626678 C 612.897949 474.892365 612.954773 475.163055 612.992249 475.436798 Z"/>
    <path id="path100" fill="#000000" stroke="none" opacity="0.2" d="M 612.992249 475.436798 C 612.982239 477.186798 612.962219 479.636749 612.882263 482.666779 C 612.872253 483.086761 612.852234 483.516754 612.842224 483.956757 C 612.742249 488.206757 612.592224 493.456757 612.382263 499.386749 C 612.372253 499.746796 612.362244 500.096771 612.342224 500.456757 C 612.062256 507.696747 611.622253 516.12677 610.862244 529.476746 C 609.452271 554.136719 606.992249 532.86676 604.522217 541.516724 C 597.662231 537.296753 590.142273 532.87677 582.102234 528.336731 C 580.652242 527.516744 579.188904 526.69342 577.712219 525.86676 C 561.632263 516.896729 543.672241 507.496735 524.922241 498.186798 C 524.182251 497.816803 523.432251 497.446747 522.692261 497.086761 C 479.742249 475.856781 432.862244 455.206757 394.882263 441.426788 C 387.552246 438.766754 380.552246 436.366791 373.972229 434.256744 C 360.112244 429.826752 348.132233 426.726715 338.912231 425.386749 C 329.312256 423.986725 322.682251 424.486725 320.002258 427.37674 C 319.902201 425.336741 319.798859 423.383413 319.69223 421.516754 C 319.652191 420.896718 319.612193 420.286713 319.572235 419.686737 C 319.633942 419.522125 319.714142 419.365021 319.791779 419.206573 C 319.802917 419.183441 319.810791 419.159576 319.822235 419.136749 C 319.8414 419.084869 319.864807 419.034698 319.892242 418.986725 C 319.921722 418.924652 319.955139 418.864532 319.992249 418.806732 C 320.02475 418.73587 320.065002 418.668793 320.112244 418.60672 C 320.20224 418.466705 320.302246 418.316742 320.412231 418.176727 C 320.493134 418.071869 320.579956 417.971649 320.672241 417.876678 C 320.702911 417.828644 320.739929 417.784882 320.782257 417.746674 C 320.822235 417.706696 320.862244 417.656708 320.912231 417.60672 C 320.933624 417.575287 320.960754 417.548126 320.992249 417.526764 C 321.07132 417.435883 321.158356 417.352203 321.252258 417.276764 C 321.609039 416.948456 321.990112 416.647614 322.392242 416.37674 C 322.532196 416.286713 322.682251 416.196747 322.822235 416.09671 C 323.830017 415.493866 324.891174 414.985077 325.992249 414.576752 C 326.372253 414.436737 326.752258 414.306732 327.162231 414.166718 C 327.312256 414.12674 327.45224 414.076752 327.602234 414.026764 C 327.822235 413.956757 328.042236 413.886749 328.272247 413.836761 C 329.412231 413.496735 330.642242 413.206757 331.972229 412.936737 C 332.372253 412.85672 332.792236 412.776764 333.21225 412.706757 C 333.552246 412.646759 333.902252 412.586761 334.252258 412.526764 C 337.222229 412.056732 340.592255 411.706757 344.312256 411.476715 C 344.662252 411.456736 345.012248 411.436737 345.362244 411.416718 C 345.772247 411.396759 346.182251 411.37674 346.602234 411.35672 C 346.95224 411.336761 347.312256 411.326752 347.672241 411.316742 C 348.022247 411.296722 348.382233 411.286713 348.752258 411.276764 C 349.762238 411.246735 350.802246 411.216705 351.862244 411.196747 C 354.882233 411.146759 358.062256 411.166718 361.402252 411.236725 C 362.95224 411.266754 364.532257 411.316742 366.152252 411.386749 C 366.252258 411.386749 366.362244 411.396759 366.46225 411.396759 C 367.872253 411.436737 369.302246 411.506744 370.752258 411.576752 C 371.772247 411.62674 372.802246 411.676727 373.832184 411.736725 C 374.802185 411.796722 375.782166 411.85672 376.772217 411.926727 C 377.542175 411.966705 378.312195 412.026764 379.092163 412.076752 C 379.752197 412.12674 380.41217 412.176727 381.072205 412.216705 C 381.862183 412.276764 382.652222 412.336761 383.452209 412.396759 C 384.552185 412.486725 385.652222 412.576752 386.772217 412.666718 C 387.882202 412.766754 389.012207 412.86673 390.142212 412.966705 C 391.272217 413.066742 392.41217 413.176727 393.552185 413.286713 C 393.67218 413.296722 393.782166 413.306732 393.892212 413.316742 C 394.93219 413.426788 395.972168 413.526764 397.022217 413.636749 C 402.842204 414.226756 408.832194 414.916758 414.992188 415.706757 C 418.672201 416.176727 422.398865 416.680044 426.17218 417.216705 C 431.902222 418.026764 437.722168 418.906708 443.582214 419.84671 C 449.45225 420.796743 455.35557 421.800079 461.292175 422.85672 C 462.792175 423.12674 464.292175 423.396759 465.802185 423.676727 C 467.642192 424.016693 469.482198 424.363352 471.322205 424.716705 C 472.482178 424.936737 473.642212 425.156708 474.802185 425.386749 C 476.18219 425.656708 477.572205 425.926727 478.952209 426.196747 C 488.042175 427.996735 497.082153 429.916718 505.902222 431.926727 C 507.352173 432.256683 508.802185 432.59671 510.242188 432.926727 C 513.122192 433.596731 515.975525 434.276723 518.802185 434.966705 C 519.582214 435.156708 520.352173 435.34671 521.122192 435.536713 C 523.052205 436.016734 524.962199 436.496735 526.852173 436.976715 L 526.852173 436.986725 C 526.962219 437.006744 527.072205 437.036713 527.18219 437.066742 C 528.562195 437.416718 529.93219 437.766754 531.292175 438.12674 C 534.502177 438.966746 537.658854 439.813405 540.762207 440.666718 C 542.822205 441.246674 544.862183 441.816742 546.872192 442.396759 C 549.882202 443.276764 552.832214 444.156708 555.702209 445.036713 C 556.41217 445.256744 557.122192 445.476715 557.822205 445.686737 C 559.92218 446.346731 561.982178 447.003387 564.002197 447.656708 C 565.602173 448.176727 567.16217 448.706757 568.702209 449.236725 C 570.242208 449.766713 571.752197 450.296722 573.232178 450.826752 C 574.1922 451.166718 575.132202 451.516754 576.062195 451.85672 C 577.42218 452.35672 578.742188 452.85672 580.042175 453.36673 C 580.4422 453.516754 580.832214 453.676727 581.222168 453.826752 C 581.952209 454.10672 582.66217 454.396759 583.362183 454.686737 C 583.832214 454.86673 584.292175 455.056732 584.752197 455.256744 C 585.202209 455.436737 585.66217 455.62674 586.102173 455.816742 C 586.552185 455.996735 586.992188 456.186737 587.43219 456.386749 C 587.802185 456.536713 588.16217 456.696747 588.512207 456.85672 C 589.222168 457.166718 589.93219 457.476715 590.622192 457.796722 C 590.962219 457.956757 591.302185 458.10672 591.642212 458.266754 L 592.42218 458.62674 C 592.532166 458.686737 592.642212 458.736725 592.752197 458.786713 C 593.602173 459.186737 594.42218 459.586761 595.222168 459.986725 C 595.972168 460.36673 596.702209 460.746735 597.402222 461.11673 C 598.232178 461.556671 599.022217 461.986725 599.782166 462.426727 C 599.93219 462.506683 600.082214 462.59671 600.232178 462.676727 C 600.742188 462.966705 601.232178 463.266754 601.722168 463.556671 C 602.68219 464.146698 603.592163 464.726654 604.4422 465.306671 C 605.282166 465.886688 606.062195 466.456696 606.792175 467.026703 C 606.792175 467.036652 606.792175 467.036652 606.802185 467.036652 C 607.152222 467.316681 607.492188 467.596649 607.812195 467.866669 C 608.332214 468.316681 608.812195 468.746613 609.252197 469.186676 C 609.399719 469.322479 609.539917 469.466034 609.67218 469.616669 C 609.730408 469.664886 609.783997 469.718475 609.832214 469.776703 C 610.042175 470.006683 610.252197 470.236664 610.452271 470.466705 C 610.692261 470.746674 610.912231 471.026703 611.122253 471.306671 C 611.222229 471.446686 611.332275 471.5867 611.422241 471.726654 C 611.542236 471.896698 611.662231 472.076691 611.762268 472.246674 C 611.852234 472.386688 611.932251 472.536652 612.012268 472.676727 C 612.224487 473.03714 612.405151 473.415192 612.552246 473.806671 C 612.661682 474.073212 612.751892 474.34726 612.822266 474.626678 C 612.89801 474.892365 612.954773 475.163055 612.992249 475.436798 Z"/>
</svg>
