<?xml version="1.0" encoding="UTF-8"?>
<svg width="800" height="554" viewBox="0 0 800 554" xmlns="http://www.w3.org/2000/svg">
    <g id="Agrupar">
        <g id="g1">
            <path id="Trazado" fill="#ed9da0" stroke="none" d="M 711.963989 306.785004 L 695.187988 306.325012 L 702.955017 284.725006 L 716.570984 289.615997 Z"/>
            <path id="path1" fill="#ed9da0" stroke="none" d="M 723.926025 276.42099 C 723.926025 285.199554 716.80957 292.31601 708.031006 292.31601 C 699.252441 292.31601 692.135986 285.199554 692.135986 276.42099 C 692.135986 267.642426 699.252441 260.526001 708.031006 260.526001 C 716.80957 260.526001 723.926025 267.642426 723.926025 276.42099 Z"/>
            <g id="g2">
                <path id="path2" fill="#ed9da0" stroke="none" d="M 710.830017 524.468994 L 723.281982 524.468994 L 723.281982 542.13501 L 710.830017 542.13501 Z"/>
                <path id="path3" fill="#2f2e43" stroke="none" d="M 712.218018 552.259033 C 714.349976 552.459045 725.002991 553.296021 725.531006 550.850037 C 725.815674 549.213684 725.701477 547.532837 725.197998 545.949951 C 724.171021 535.756958 723.789001 535.650024 723.564026 535.581055 C 723.202026 535.473022 722.145996 535.972046 720.424011 537.087036 L 720.315979 537.155029 L 720.296021 537.281982 C 720.267029 537.437988 719.504028 541.182007 715.895996 540.608032 C 713.421021 540.217041 712.619019 539.668945 712.36499 539.407959 C 712.631042 539.291382 712.858276 539.101318 713.02002 538.859985 C 713.293701 538.373413 713.343689 537.792236 713.156982 537.265991 C 712.65094 535.776978 712.009216 534.337646 711.23999 532.965942 L 711.083008 532.682007 L 696.929016 542.229004 L 688.194031 544.723022 C 687.536316 544.907593 686.99939 545.383301 686.737 546.014038 L 686.737 546.014038 C 686.368591 546.89624 686.595703 547.914856 687.304016 548.557007 C 688.888977 549.985046 692.047974 552.421021 695.354004 552.734009 C 696.234009 552.812012 697.39801 552.851013 698.708984 552.851013 C 704.177002 552.851013 712.148987 552.284058 712.208984 552.274048 Z"/>
            </g>
            <g id="g3">
                <path id="path4" fill="#ed9da0" stroke="none" d="M 760.262024 522.052002 L 772.477417 519.611389 L 775.939941 536.941772 L 763.724548 539.382324 Z"/>
                <path id="path5" fill="#2f2e43" stroke="none" d="M 767.036011 549.031006 C 769.158997 548.80603 779.772034 547.531006 779.820984 545.040039 C 779.777466 543.377991 779.334717 541.750854 778.530029 540.296021 C 775.530029 530.504028 775.135986 530.465027 774.890991 530.445984 C 774.51001 530.416992 773.570007 531.111023 772.103027 532.539001 L 772.015015 532.627014 L 772.015015 532.754028 C 772.015015 532.920044 772.005005 536.734985 768.356995 536.882019 C 765.856995 536.981995 764.963013 536.608032 764.656982 536.393005 C 764.894165 536.225098 765.080322 535.994995 765.195007 535.728027 C 765.374451 535.196716 765.309998 534.613342 765.018982 534.134033 C 764.22998 532.773621 763.320007 531.487061 762.299988 530.290039 L 762.095032 530.045044 L 750.095032 542.184021 L 742.015015 546.351013 C 741.407532 546.663757 740.975464 547.236084 740.841003 547.906006 L 740.841003 547.906006 C 740.653076 548.84491 741.075867 549.800537 741.897034 550.29303 C 743.736023 551.379028 747.30603 553.158997 750.612976 552.807007 C 751.492981 552.707031 752.638 552.514038 753.919006 552.259033 C 759.278992 551.182983 766.987 549.070007 767.046021 549.051025 Z"/>
            </g>
            <path id="path6" fill="#2f2e43" stroke="none" d="M 692.135986 382.105988 L 750.518982 375.787018 L 777.38501 522.886963 L 758.695984 525.251953 L 727.169006 428.373016 L 728.729004 528.02002 L 708.487 528.02002 Z"/>
            <path id="path7" fill="#dfdfe0" stroke="none" d="M 695.997009 296.975006 L 726.460022 293.375 L 756.559998 396.975037 C 756.559998 396.975037 741.328003 393.81604 732.034973 404.096008 C 722.742004 414.376038 690.752014 402.696045 690.752014 402.696045 L 695.997009 296.964996 Z"/>
            <path id="path8" fill="#ed9da0" stroke="none" d="M 663.445984 406.666992 C 662.565979 411.01001 664.179993 414.981995 667.054993 415.528992 C 669.929993 416.075989 672.973022 413.005005 673.85498 408.651978 C 674.232483 406.920166 674.171997 405.121521 673.679016 403.419006 L 677.171021 384.960999 L 668.141968 383.53302 L 665.656982 401.883972 C 664.539001 403.271606 663.783081 404.9151 663.45697 406.666992 L 663.45697 406.666992 Z"/>
            <path id="path9" fill="#dfdfe0" stroke="none" d="M 706.398987 296.299011 L 693.95697 297.522003 C 687.963013 298.795898 683.29364 303.50061 682.065002 309.503967 L 663.964966 397.510986 L 676.201965 397.510986 L 706.40802 296.289001 Z"/>
            <path id="path10" fill="#2f2e43" stroke="none" d="M 716.924011 286.321014 L 715.359009 285.607025 C 716.013977 282.653015 716.611023 279.327026 714.947998 276.807007 C 714.028992 275.417999 712.463013 274.322021 712.268005 272.669006 C 712.10199 271.300018 712.968018 269.901001 712.591003 268.569 C 712.190979 267.169006 710.625 266.525024 709.245972 266.055023 C 707.122375 265.224701 704.887451 264.713806 702.614014 264.539001 C 700.307678 264.389435 698.056152 265.283752 696.481018 266.975006 C 696.049561 267.527527 695.672791 268.120636 695.356018 268.746002 C 694.211975 270.820007 692.236023 274.830017 692.236023 274.830017 C 692.236023 274.830017 692.314026 273.911011 692.304016 272.081024 C 691.581482 270.538025 691.065063 268.906708 690.768005 267.229004 C 690.713257 265.162018 691.361633 263.137604 692.606995 261.487 C 695.255005 257.560455 699.570313 255.07959 704.296021 254.766998 C 708.952026 254.552002 713.21698 254.875 715.573975 258.89502 C 715.96637 259.677032 716.421143 260.426147 716.934021 261.13501 C 717.960999 262.387024 719.515991 263.052002 720.778015 264.059998 C 723.725952 266.533783 725.409668 270.198853 725.366028 274.046997 C 725.166016 277.647003 723.849976 281.070007 722.539001 284.425018 C 721.414001 287.325012 719.096008 290.265015 716.161011 291.282013 C 716.473999 289.72702 716.776978 288.171021 717.090027 286.615997"/>
            <g id="g4">
                <path id="path11" fill="#dfdfe0" stroke="none" d="M 706.768982 298.187012 L 706.955017 298.440979 L 712.609009 306.169006 L 719.132996 315.099976 L 720.599976 317.10498 L 725.97998 324.471008 C 727.403381 326.098694 728.925598 327.637268 730.538025 329.078003 L 730.596985 329.127014 C 731.614014 330.046021 732.768982 331.026978 734.039978 332.002991 C 741.22998 337.539001 752.047974 342.948975 761.440002 335.680969 C 773.364014 326.447021 747.207031 305.865967 733.893982 296.476013 C 729.521484 293.388 723.946106 292.549927 718.859009 294.216003 L 706.768982 298.187012 Z"/>
                <path id="path12" fill="#ed9da0" stroke="none" d="M 707.072998 309.044983 C 708.281189 309.843201 709.638977 310.387573 711.064026 310.64502 C 711.387024 310.703979 711.710022 310.752991 712.041992 310.781982 L 718.810974 315.781982 L 720.601013 317.103027 L 726.940002 321.788025 L 732.211975 314.315002 L 722.479004 307.888 L 716.531982 303.955994 C 715.648499 302.419495 714.398315 301.125671 712.893005 300.190002 C 711.241272 299.087708 709.312012 298.473816 707.327026 298.419006 L 707.317017 298.419006 C 707.195984 298.415649 707.07489 298.422302 706.955017 298.439026 C 705.486816 298.40625 704.095215 299.092834 703.227966 300.278015 C 701.614014 302.726013 703.346008 306.64801 707.072998 309.044983 Z"/>
                <path id="path13" fill="#dfdfe0" stroke="none" d="M 717.647034 318.289001 L 722.616028 307.567993 L 744.63501 315.785004 L 734.041016 332.002991 Z"/>
            </g>
        </g>
        <g id="g5">
            <path id="path14" fill="#e6e6e6" stroke="none" d="M 227.042007 77.233002 C 228.953995 73.384003 232.008987 70.188995 233.878006 66.319 C 235.746994 62.449005 236.110001 57.269989 232.996994 54.307983 C 230.353012 51.792999 226.21199 51.757996 223.05101 49.936005 C 214.995987 45.294983 215.005997 30.554993 205.797989 29.281006 C 201.319992 28.661987 197.268997 32.02002 194.561996 35.640015 C 191.854996 39.26001 189.69899 43.484985 185.945999 46.003998 C 181.697006 48.855988 176.203995 48.979004 171.486008 50.959991 C 162.439987 54.76001 157.697006 64.522003 153.73201 73.496002 C 151.176987 79.277008 148.564011 85.511993 149.749985 91.720001 C 147.173996 93.320007 148.322006 97.63501 150.893997 99.244995 C 153.465988 100.855011 156.693985 100.820007 159.647995 101.516998 C 165.854996 102.983002 170.936996 107.924011 173.348007 113.828979 C 175.225998 118.428986 175.610001 123.483978 175.972 128.441986 L 177.857986 154.247986 C 178.137985 158.074982 178.50499 162.141998 180.834 165.190979 C 183.16301 168.23999 188.207993 169.517975 190.826004 166.712982 C 193.326004 164.031982 192.201004 159.789001 192.150986 156.121979 C 192.100998 152.454987 195.414993 147.888977 198.539993 149.806976 L 199.639999 147.306976 C 214.220749 142.086304 224.398453 128.817596 225.662003 113.381989 C 226.460007 101.209991 221.616013 88.15799 227.042007 77.233002 Z"/>
            <path id="path15" fill="#e6e6e6" stroke="none" d="M 234.335007 154.424011 C 235.742966 153.097046 236.252487 151.073425 235.640793 149.237946 C 235.029129 147.402466 233.407516 146.08905 231.485001 145.872009 L 231.496994 146.285004 C 230.153336 147.069702 228.620865 147.472534 227.064987 147.450012 C 225.514694 147.425446 223.971878 147.669739 222.50499 148.171997 C 221.012283 148.714783 220.007278 150.119965 219.975998 151.708008 C 220.14949 152.913757 220.900558 153.958984 221.987991 154.507996 C 223.064529 155.038239 224.220383 155.389191 225.409988 155.546997 C 228.478989 156.123993 232.067001 156.562988 234.335007 154.424011 Z"/>
            <path id="path16" fill="#e6e6e6" stroke="none" d="M 294.122986 77.436981 C 295.406311 76.563477 296.495728 75.434601 297.322998 74.121002 C 298.143921 72.760468 298.044617 71.03537 297.072998 69.777985 C 296.106384 68.93927 294.862488 68.489807 293.583008 68.516998 C 290.108276 68.257568 286.616089 68.669373 283.296997 69.730011 L 293.520996 78.787994 Z"/>
            <path id="path17" fill="#e6e6e6" stroke="none" d="M 277.077972 85.289001 C 278.454987 86.80899 278.016022 89.167999 277.626007 91.182007 C 277.235992 93.195984 277.186005 95.712982 278.918976 96.811981 C 280.418976 97.764008 282.527985 96.987 283.626007 95.588989 C 284.607819 94.097443 285.205902 92.386414 285.366974 90.608002 C 285.906769 88.023376 286.150665 85.385742 286.094025 82.746002 C 286.02951 80.085541 285.091217 77.520233 283.423981 75.445984 C 280.998871 72.681213 277.083221 71.766205 273.68399 73.169983 L 275.266998 73.09198 C 274.115875 74.569946 273.243011 76.244843 272.69101 78.035004 C 272.152435 79.866211 272.650238 81.845428 273.990997 83.203979 C 274.933014 84.024994 276.241974 84.367004 277.077972 85.289001 Z"/>
            <path id="path18" fill="#e6e6e6" stroke="none" d="M 354.764008 59.790009 L 355.045013 58.923004 C 352.618927 60.326721 351.505585 63.236328 352.374969 65.901001 C 354.219086 64.446838 355.132904 62.109314 354.764008 59.790009 Z"/>
            <path id="path19" fill="#e6e6e6" stroke="none" d="M 339.459991 72.199005 C 342.499847 70.477448 344.544281 67.417358 344.970978 63.950012 C 345.133331 62.886932 345.010101 61.799805 344.613983 60.799988 C 344.201019 59.791748 343.311127 59.056854 342.243011 58.84201 L 341.601959 59.851013 C 340.681976 59.059998 339.13797 59.872986 338.751007 61.02301 C 338.501984 62.217194 338.606232 63.458069 339.050995 64.593994 C 339.494476 65.736877 339.474396 67.007721 338.994965 68.135986 C 338.478241 68.799469 337.897064 69.410095 337.259979 69.959015 C 336.618256 70.543518 336.479584 71.500336 336.928986 72.243011 C 337.532013 72.933014 338.660004 72.644012 339.459991 72.199005 Z"/>
            <path id="path20" fill="#e6e6e6" stroke="none" d="M 332.935028 66.561005 C 333.483856 65.573517 333.742828 64.451141 333.681976 63.322998 L 332.282013 62.882996 C 331.385651 63.246368 330.590668 63.821442 329.964996 64.55899 C 329.444183 65.079956 329.287628 65.862915 329.568085 66.544067 C 329.84848 67.22522 330.510956 67.671021 331.247589 67.674286 C 331.984161 67.677551 332.650543 67.23764 332.936981 66.55899 Z"/>
            <path id="path21" fill="#e6e6e6" stroke="none" d="M 401.472015 59.464996 C 401.59903 59.570984 401.725006 59.679993 401.85202 59.787994 C 401.96402 59.764984 402.069977 59.721985 402.18399 59.708008 Z"/>
            <path id="path22" fill="#e6e6e6" stroke="none" d="M 399.225006 71.770996 L 403.087006 68.644012 C 403.770538 68.161194 404.353424 67.549805 404.803009 66.843994 C 405.426605 65.483337 405.309235 63.89798 404.492035 62.644012 C 403.77951 61.550385 402.886871 60.585419 401.85202 59.790009 C 399.498627 60.346771 397.933319 62.575317 398.208038 64.977997 C 398.44101 66.455017 399.368011 68.033997 398.608002 69.322998 C 398.313019 69.822998 397.808014 70.166992 397.46701 70.639008 C 397.126007 71.110992 397.016998 71.864014 397.484039 72.212006 C 398.005035 72.595001 398.722992 72.178009 399.225006 71.770996 Z"/>
            <path id="path23" fill="#e6e6e6" stroke="none" d="M 402.040985 78.147003 C 403.009552 78.19873 403.952789 77.827271 404.626007 77.128998 C 406.346954 75.718872 407.85257 74.064697 409.095001 72.218994 L 400.410004 74.96701 L 401.309967 76.02301 C 400.509979 76.550995 401.100006 77.96701 402.040985 78.147003 Z"/>
            <path id="path24" fill="#e6e6e6" stroke="none" d="M 410.159973 84.109009 C 410.523132 85.037689 411.460999 85.61026 412.453003 85.509003 C 413.426086 85.379456 414.291809 84.825409 414.817017 83.996002 C 415.715942 82.674316 415.827393 80.969086 415.108154 79.541626 C 414.388916 78.114136 412.952148 77.189026 411.35498 77.125 L 412.154968 78.346985 C 412.357971 80.432007 409.52301 82.112 410.159973 84.109009 Z"/>
            <path id="path25" fill="#e6e6e6" stroke="none" d="M 466.419006 106.950012 C 468.028076 108.151001 470.236694 108.145691 471.839966 106.937012 C 472.86322 106.063019 473.475952 104.802124 473.530823 103.457581 C 473.585632 102.113007 473.077637 100.806396 472.128967 99.85199 L 470.650024 100.677979 C 468.944397 99.581787 466.677124 100.032135 465.52002 101.697021 C 464.488892 103.431335 464.870361 105.657806 466.419983 106.950012 Z"/>
            <path id="path26" fill="#e6e6e6" stroke="none" d="M 483.621979 108.899017 C 485.08725 108.473602 486.225861 107.316833 486.628021 105.845001 L 483.751984 105.46701 C 482.952057 104.862915 482.020782 104.456238 481.033966 104.279999 C 480.012909 104.128082 479.024994 104.712128 478.665985 105.679993 C 478.541351 106.491119 478.846466 107.308807 479.472015 107.839996 C 480.575836 108.892822 482.147736 109.295837 483.621979 108.904022 Z"/>
            <path id="path27" fill="#e6e6e6" stroke="none" d="M 471.744965 114.654022 C 471.848358 115.608887 472.493927 116.418121 473.402008 116.731018 C 474.396759 117.202667 475.578583 117.019562 476.384003 116.269012 C 476.736481 115.871002 476.874969 115.32724 476.755951 114.809113 C 476.636871 114.290955 476.274872 113.862213 475.783966 113.65802 L 473.626984 113.266022 C 472.79599 112.831024 471.730988 113.712006 471.744965 114.654022 Z"/>
            <path id="path28" fill="#e6e6e6" stroke="none" d="M 346.593018 129.81601 L 344.924011 128.291992 C 345.368042 128.910736 345.936523 129.42984 346.593018 129.81601 Z"/>
            <path id="path29" fill="#e6e6e6" stroke="none" d="M 333.843018 120.839996 C 334.870972 125.613007 340.010986 129.501007 344.677979 128.066986 L 344.924011 128.291992 C 343.437988 126.257996 343.185974 123.248993 343.532959 120.632996 C 344.841736 111.520538 350.707764 103.704926 359.09198 99.903015 C 360.221863 99.550903 361.232361 98.893372 362.011963 98.002991 C 362.677002 97.029999 362.429016 95.362 361.282959 95.088013 C 360.660278 95.016968 360.032104 95.162445 359.503967 95.5 L 350.830994 99.769012 C 346.450989 101.924988 341.982971 104.143005 338.541992 107.606995 C 335.101013 111.070984 332.815002 116.066986 333.843018 120.839996 Z"/>
            <path id="path30" fill="#e6e6e6" stroke="none" d="M 193.844009 284.960999 C 185.763412 279.176208 176.912888 274.551025 167.550003 271.220001 C 161.794998 269.174011 155.611984 267.613007 149.615005 268.774994 C 142.946945 270.155426 137.337509 274.634064 134.514999 280.830994 C 131.798721 287.065674 132.067734 294.197693 135.245987 300.209991 C 138.011002 305.391998 142.798996 309.518005 144.400009 315.169006 C 145.478989 318.979004 144.968002 323.035004 144.448013 326.959991 L 141.262985 351.023987 C 140.297012 358.324005 139.354996 365.923981 141.66301 372.923981 C 143.970993 379.923981 150.573013 386.084015 157.903 385.340973 L 159.354996 385.232025 C 154.507004 381.931976 153.147995 375.110016 154.590988 369.431976 C 156.034012 363.753998 159.698013 358.932007 163.275986 354.285004 L 195.124008 312.929993 C 199.423996 307.352997 203.96199 300.458984 201.672012 293.803009 C 200.370987 290.014008 197.097 287.290985 193.844009 284.960999 Z"/>
            <path id="path31" fill="#e6e6e6" stroke="none" d="M 121.497009 250.113983 C 120.421997 249.75 119.286011 250.55899 118.653992 251.501984 C 118.142975 252.514465 117.542603 253.479279 116.859985 254.384979 C 115.205994 256.084991 112.192993 255.750977 110.408997 254.184998 C 108.625 252.618988 107.852997 250.190979 107.509003 247.84198 C 107.093994 245.02298 107.27301 241.877991 109.134003 239.718994 C 111.049011 237.496979 114.197998 236.901001 117.095001 236.438995 C 120.087006 235.961975 123.440002 235.565002 125.894989 237.345978 C 127.438995 238.467987 128.338989 240.277985 129.769989 241.54599 C 131.200989 242.813995 133.744995 243.287994 134.821991 241.711975 C 135.39389 240.578033 135.374481 239.235931 134.769989 238.118988 C 134.164825 237.022858 133.80072 235.810181 133.701996 234.561981 C 133.773987 232.829987 135.165009 231.453003 136.588989 230.461975 C 138.013 229.470978 139.619995 228.617004 140.553986 227.155975 C 141.703003 225.355988 141.580994 223.043976 142.292999 221.033997 C 144.018005 216.167999 150.173004 214.003998 151.966003 209.162994 C 152.398071 208.144684 152.446716 207.004395 152.102997 205.953003 C 151.352997 204.024994 149.324005 204.402985 149.203003 202.046997 C 149.083984 199.792999 150.963989 197.582001 152.875 196.639984 C 155.509003 195.339996 158.580994 195.446991 161.515991 195.367981 C 164.450989 195.289001 167.615997 194.898987 169.769012 192.902985 C 171.17923 191.449158 171.902893 189.463135 171.758545 187.442841 C 171.614227 185.422546 170.61557 183.55957 169.013 182.320984 C 167.40799 181.211975 165.377991 180.826996 163.812988 179.65799 C 161.867004 178.201996 160.945984 175.776978 159.431 173.876984 C 158.170288 172.43042 156.727631 171.153137 155.139008 170.076996 L 151.238983 167.181976 C 148.888 165.437988 146.438995 163.648987 143.582001 163.027985 C 140.725006 162.406982 137.315002 163.28598 135.881989 165.838989 C 135.31839 166.976868 135.011169 168.224518 134.981995 169.493988 C 134.851563 172.483826 134.976349 175.47934 135.355011 178.447998 L 136.062988 185.617004 C 136.274994 187.759003 136.046997 190.582977 133.963013 191.138977 C 129.350006 192.371979 130.906006 185.550995 129.882996 183.461975 C 128.316986 180.261993 121.121002 178.72699 118.045013 177.393982 C 116.123993 176.560974 114.096008 175.641998 112.936005 173.898987 C 111.492004 171.72998 111.789001 168.776978 112.92099 166.429993 C 114.206848 164.160889 115.769836 162.060425 117.574005 160.177002 C 119.282013 158.142975 120.838013 155.985992 122.391998 153.830994 L 127.798004 146.330994 C 130.109009 143.130981 132.539001 139.214996 131.226013 135.487976 C 130.644257 134.46875 129.508331 133.897369 128.343201 134.037933 C 127.17807 134.178497 126.210632 135.003632 125.888 136.131989 C 125.312988 138.143982 126.847992 140.712982 125.378998 142.203979 C 124.340912 143.039856 122.853149 143.012054 121.846985 142.138 C 120.896057 141.259521 120.171783 140.164032 119.735992 138.944977 C 117.957001 134.992004 116.223999 131.013977 114.39801 127.082001 C 113.820984 125.838989 113.217987 123.710999 111.468994 123.919983 C 109.950012 124.10199 109.130005 126.319977 109.182983 127.599976 C 109.26001 129.470001 110.292999 131.139984 111.083008 132.835999 C 111.872986 134.531982 112.424988 136.569 111.557983 138.22699 C 110.458008 140.326996 107.678986 140.798004 105.311005 140.72699 C 100.847198 140.591827 96.473389 139.437744 92.523987 137.352997 L 92.213989 143.934998 L 82.783997 139.987976 L 80.953003 139.220978 C 78.302002 138.110992 75.647003 137 72.916992 136.098999 C 71.367004 135.587982 69.79599 135.144989 68.226013 134.698975 L 65.362 133.891998 C 63.477966 133.224152 61.479645 132.938934 59.484009 133.052979 C 57.384003 133.315979 55.518005 134.441986 53.57901 135.283997 C 49.252991 137.161987 43.65799 135.27298 39.022003 135.238983 C 35.285889 129.783051 29.035097 126.597382 22.425081 126.780518 C 15.815096 126.963654 9.750277 130.49054 6.321993 136.144989 C 5.507021 137.55481 4.781267 139.014313 4.149004 140.514984 L 2.261995 144.743988 C 1.339006 146.811981 0.395998 148.98999 0.578005 151.243988 C 0.759996 153.497986 2.490007 155.806976 4.754 155.78598 C -0.585005 158.203003 -1.695997 166.661987 2.837999 170.375977 C 4.093004 171.403992 5.632998 172.075989 6.763002 173.242004 C 8.510134 175.043427 8.988436 177.725281 7.971773 180.019623 C 6.95508 182.313965 4.647097 183.761169 2.138994 183.677002 C 8.652956 186.194305 16.042269 183.8797 19.955996 178.095978 C 21.894014 175.060974 22.737001 171.269989 25.373995 168.816986 C 28.865999 165.569 34.634003 165.816986 38.661987 168.375 C 42.690002 170.932983 45.238007 175.274994 46.98999 179.712982 C 49.290009 185.526001 50.756989 192.166992 55.649994 196.054993 C 58.015991 197.934998 61.011993 198.992004 63.102997 201.173981 C 66.080994 204.280975 66.596008 208.973999 66.528992 213.273987 C 66.462006 217.573975 65.997986 222.040985 67.56601 226.048981 C 69.134003 230.056976 73.626984 233.348999 77.657013 231.84198 C 75.280365 238.892975 78.061554 246.652924 84.376007 250.588989 L 82.175995 236.928986 C 85.834991 237.958984 88.205994 241.507996 89.575989 245.053986 C 90.945984 248.599976 91.669006 252.434998 93.654999 255.675995 C 96.781006 260.776001 102.441986 262.975983 108.200989 262.960999 C 114.421997 262.940002 116.783997 259.973999 120.884003 255.605988 C 121.707642 254.860779 122.332794 253.922211 122.703003 252.875 C 123.04364 251.782806 122.529755 250.606293 121.497009 250.113983 Z"/>
            <path id="path32" fill="#e6e6e6" stroke="none" d="M 139.112 249.886993 L 128.679993 248.247009 L 134.148987 251.535004 C 135.668945 252.54657 137.321625 253.342804 139.059998 253.901001 C 140.822327 254.455353 142.735626 254.254028 144.343994 253.345001 L 143.898987 252.493988 C 143.196991 250.721008 140.994995 250.183014 139.112 249.886993 Z"/>
            <path id="path33" fill="#e6e6e6" stroke="none" d="M 136.75 269.216003 L 136.774017 269.156006 C 136.343872 268.442657 135.523376 268.062286 134.701019 268.195007 C 133.899994 268.338074 133.081207 268.351227 132.276001 268.234009 C 131.238281 267.828186 130.461273 266.945007 130.19101 265.864014 C 129.845001 264.824005 129.743011 263.712006 129.348999 262.689026 C 128.769318 261.039642 127.315208 259.853516 125.583 259.617004 C 123.809441 259.475189 122.250603 260.783691 122.083 262.555023 C 122.150047 263.431549 122.428673 264.278778 122.895012 265.024017 L 124.019005 267.187012 C 124.335075 267.83374 124.698753 268.456116 125.106987 269.049011 C 126.453239 270.903809 128.595306 272.015167 130.886932 272.047852 C 133.178558 272.080536 135.35144 271.03067 136.75 269.215027 Z"/>
            <path id="path34" fill="#e6e6e6" stroke="none" d="M 116.44101 84.169006 C 119.088989 85.72998 122.404999 86.806 123.662994 89.609985 L 124.389008 89.843994 L 122.014008 92.794983 C 121.036011 94.010986 120.006989 95.36499 120.029999 96.925995 C 120.062012 99.074982 122.130005 100.695984 124.21701 101.203003 C 128.834656 102.154785 133.42218 99.452271 134.828003 94.951996 C 135.075989 94.04599 135.178986 93.106995 135.397003 92.192993 C 136.031677 90.02594 136.989807 87.967072 138.238983 86.085999 L 159.328003 50.597992 C 160.20401 49.125 161.105988 47.363007 160.447998 45.779999 C 159.728851 44.411041 158.249268 43.617218 156.710999 43.774994 C 155.210358 43.957336 153.762756 44.444305 152.457001 45.205994 C 151.279419 43.137665 149.161072 41.779663 146.790009 41.572998 C 144.454132 41.392822 142.104523 41.597534 139.834991 42.178986 C 134.707916 42.952759 129.764038 44.651337 125.243988 47.191986 C 122.770996 48.441986 120.049988 49.985992 119.332001 52.661987 C 118.449005 55.953979 121.294006 59.30899 124.567993 60.255981 C 127.84201 61.203003 131.337982 60.40799 134.652008 59.610992 C 135.422211 62.911011 133.923584 66.323608 130.972626 67.989532 C 128.021667 69.655426 124.325531 69.175415 121.89801 66.811005 C 119.522003 64.497986 118.359009 60.481995 115.097992 59.884979 C 111.837006 59.287994 109.263 62.757996 108.544983 65.984985 C 107.108124 73.103424 110.261597 80.362793 116.445007 84.17099 Z"/>
            <path id="path35" fill="#e6e6e6" stroke="none" d="M 157.220001 141.087006 C 155.654449 136.673981 153.596832 132.451385 151.085999 128.498993 C 149.182556 125.374786 146.833466 122.544983 144.113007 120.098999 C 141.626678 117.951965 138.768677 116.27774 135.679993 115.158997 C 132.679993 114.075012 129.343994 113.539001 126.312988 114.527985 C 123.282013 115.516998 120.703003 118.334991 120.764984 121.522003 C 120.833008 125.046997 123.916992 127.803009 127.131012 129.251007 C 130.345001 130.699005 133.919983 131.329987 136.951996 133.126984 C 141.138306 135.666107 143.788269 140.120422 144.022003 145.010986 L 144.786011 146.273987 C 143.055847 146.84729 141.442383 147.72583 140.022003 148.868011 C 138.59021 150.049683 137.900116 151.907104 138.213013 153.737 C 138.743011 155.871002 140.921997 157.096008 142.893005 158.071991 L 153.81601 163.481995 C 151.962006 157.95401 158.032013 152.80899 158.368011 146.988007 C 158.381256 144.964783 157.991669 142.959137 157.221985 141.088013 Z"/>
            <path id="path36" fill="#e6e6e6" stroke="none" d="M 65.665001 126.161011 C 67.874016 127.876007 71.265007 127.074005 73.292992 125.143982 C 75.321007 123.213989 76.301994 120.466003 77.221001 117.824982 C 76.885246 120.439209 76.916893 123.087555 77.314995 125.692993 C 77.734398 128.327301 79.238548 130.665314 81.461998 132.139008 C 82.460564 132.686737 83.53701 133.078583 84.654015 133.300995 C 89.84594 134.482513 95.271843 134.094788 100.243004 132.187012 L 100.287987 130.487 C 97.787987 130.772003 95.900993 128.03299 95.736015 125.524994 C 95.571007 123.016998 96.48101 120.557007 96.560997 118.044983 C 96.641014 115.53299 95.430016 112.596985 92.960991 112.149994 C 93.846977 113.930206 93.538872 116.072906 92.187157 117.531311 C 90.835442 118.989716 88.722252 119.459442 86.879997 118.710999 C 84.016991 117.546997 82.980003 114.05899 80.764 111.901001 C 77.96862 109.414734 73.953697 108.850128 70.580986 110.468994 C 67.284904 112.150665 64.892143 115.193329 64.034996 118.792999 C 63.359001 121.372986 63.558006 124.524994 65.665001 126.161011 Z"/>
            <path id="path37" fill="#e6e6e6" stroke="none" d="M 133.832993 108.26001 L 133.932999 108.093994 C 133.141556 106.339661 131.457626 105.155487 129.538986 105.003998 C 127.658463 104.879791 125.770248 104.942108 123.901993 105.190002 C 122.016312 105.433838 120.10463 105.012665 118.495987 103.998993 C 117.21199 103.039001 116.479996 101.528992 115.453995 100.299011 C 114.427994 99.069 112.766006 98.054993 111.274002 98.643005 C 109.659012 99.281006 109.228989 101.542999 110.012009 103.092987 C 110.935013 104.579803 112.327469 105.716431 113.969009 106.322998 C 120.185043 109.176483 127.179428 109.859344 133.830002 108.261993 Z"/>
            <path id="path38" fill="#e6e6e6" stroke="none" d="M 112.615013 113.597015 C 111.542961 114.383514 111.281914 115.875519 112.023216 116.979279 C 112.764519 118.083038 114.244408 118.405823 115.378014 117.710999 L 115.922997 118.249023 C 116.646996 116.949005 116.946007 115.21402 116.023003 114.049011 C 115.170555 113.054138 113.706627 112.858643 112.623009 113.595001 Z"/>
            <path id="path39" fill="#e6e6e6" stroke="none" d="M 106.241005 118.251007 C 106.256233 117.30249 105.687569 116.441895 104.808998 116.084015 C 104.218239 115.983246 103.611946 116.127869 103.130257 116.484406 C 102.648567 116.840973 102.333199 117.378571 102.256996 117.973022 C 102.166359 119.184662 102.582436 120.379639 103.406013 121.27301 C 103.885231 121.992859 104.649544 122.473297 105.505989 122.593018 C 106.359993 122.621002 107.229988 121.727997 106.88401 120.947021 L 105.583992 120.921997 C 105.985695 120.086304 106.210396 119.176636 106.243996 118.25 Z"/>
            <path id="path40" fill="#e6e6e6" stroke="none" d="M 80.750984 104.902008 L 82.186989 106.06601 C 83.016151 106.78302 83.911903 107.41925 84.862007 107.966003 C 86.523842 108.886505 88.478218 109.125641 90.312996 108.632996 C 92.153755 108.107941 93.599831 106.680695 94.148994 104.846985 C 94.720985 102.690002 93.788002 100.446991 92.874001 98.415009 C 92.666725 97.832611 92.323952 97.307861 91.874001 96.884003 C 91.397499 96.46167 90.6894 96.433655 90.181007 96.816986 C 89.817207 97.269714 89.713905 97.878601 89.907997 98.425995 C 90.104378 98.962463 90.194069 99.532135 90.172005 100.102997 C 90.081001 100.665985 89.489998 101.203003 88.971992 100.964996 L 88.888985 102.881012 C 86.402992 101.622986 85.088997 98.281006 82.323006 97.945984 C 81.057564 97.795258 79.813545 98.361847 79.096626 99.415466 C 78.379707 100.469055 78.309303 101.834229 78.914009 102.955994 C 79.394081 103.719482 80.020027 104.380768 80.755989 104.902008 Z"/>
            <path id="path41" fill="#e6e6e6" stroke="none" d="M 74.829987 96.628998 C 76.002411 95.825378 76.625763 94.432709 76.444 93.02298 C 76.304718 92.345062 75.87088 91.764313 75.260284 91.438416 C 74.649689 91.112549 73.925751 91.075378 73.285004 91.337006 C 72.574738 91.868011 72.075806 92.633728 71.877014 93.497986 L 69.911987 99.041992 L 71.011993 98.242004 C 72.374268 97.948608 73.669342 97.40213 74.829987 96.630981 Z"/>
            <path id="path42" fill="#e6e6e6" stroke="none" d="M 87.588005 85.289001 C 87.986412 84.786896 88.141991 84.134155 88.012871 83.506348 C 87.883751 82.87851 87.483208 82.340118 86.918999 82.036011 L 85.541985 81.907013 C 84.683037 82.124359 84.058311 82.865173 83.989128 83.748505 C 83.919914 84.631805 84.421623 85.460907 85.236259 85.809387 C 86.050865 86.157837 86.996971 85.94809 87.588005 85.287994 Z"/>
            <path id="path43" fill="#e6e6e6" stroke="none" d="M 100.254997 87.415009 C 101.540001 88.029999 103.166008 88.61499 104.283012 87.733002 C 104.956718 87.12326 105.25338 86.200073 105.060997 85.312012 C 104.860435 84.441345 104.472801 83.624786 103.925011 82.919006 C 102.215813 80.465088 100.044243 78.368256 97.532005 76.746002 L 96.911003 77.553009 C 96.042992 79.806 95.205986 82.436005 96.411003 84.523987 C 97.375725 85.84906 98.714287 86.855774 100.254997 87.415009 Z"/>
            <path id="path44" fill="#e6e6e6" stroke="none" d="M 109.82399 89.419006 L 112.224014 90.506012 C 111.741318 89.664917 110.774582 89.227051 109.82399 89.419006 Z"/>
            <path id="path45" fill="#e6e6e6" stroke="none" d="M 103.351013 96.977997 L 102.216003 97.35199 C 101.251007 98.937988 101.670013 100.966003 102.115997 102.768005 C 102.399994 103.906982 103.015991 105.307983 104.184998 105.256989 C 105.325989 105.207001 105.830994 103.822998 106.049988 102.701996 C 106.391785 101.484344 106.428894 100.201355 106.15799 98.966003 C 105.83905 97.70285 104.648407 96.859589 103.351013 96.977997 Z"/>
            <path id="path46" fill="#e6e6e6" stroke="none" d="M 85.245003 91.639008 L 86.084999 91.97699 C 86.487526 91.918396 86.800697 91.597107 86.849007 91.193237 C 86.897285 90.789368 86.668678 90.40329 86.291328 90.251434 C 85.913979 90.099609 85.481667 90.219727 85.236763 90.544495 C 84.991859 90.869263 84.995247 91.317932 85.245003 91.639008 Z"/>
            <path id="path47" fill="#e6e6e6" stroke="none" d="M 127.591995 155.864014 C 126.766464 155.882538 126.0009 156.299225 125.537094 156.982422 C 125.073318 157.665588 124.968582 158.530914 125.255997 159.304993 C 126.081009 161.080994 128.921005 161.088989 130.184006 159.59201 C 130.838394 158.731689 131.102676 157.636688 130.912643 156.572601 C 130.722641 155.508514 130.095718 154.572632 129.184006 153.992004 Z"/>
            <path id="path48" fill="#e6e6e6" stroke="none" d="M 168.50499 197.934998 C 167.837296 198.112732 167.270004 198.553223 166.932419 199.156097 C 166.594803 199.758942 166.515671 200.472809 166.712997 201.134979 L 169.070999 201.298981 L 171.470993 200.098999 C 171.373428 199.41568 171.003647 198.800873 170.445786 198.394409 C 169.887894 197.987946 169.189346 197.824432 168.509018 197.940979 Z"/>
            <path id="path49" fill="#e6e6e6" stroke="none" d="M 158.920013 200.852997 C 157.548401 201.827118 156.776154 203.439728 156.877014 205.118988 C 157.035156 206.809692 158.269043 208.203735 159.928009 208.56601 C 161.622223 208.831451 163.2323 207.738525 163.610992 206.06601 C 164.011017 203.627014 161.388 201.839996 160.446014 199.554993 Z"/>
            <path id="path50" fill="#e6e6e6" stroke="none" d="M 250.510986 184.742981 C 250.759979 186.574005 249.110992 188.177979 249.048981 190.024994 C 248.975983 192.216003 251.362 193.924988 253.544006 193.705994 C 255.739777 193.325653 257.630035 191.937378 258.649994 189.955994 L 258.696991 189.751007 L 255.507996 186.151001 C 254.203003 184.675995 252.819 182.996002 252.869995 181.026978 C 252.894989 180.056 253.277985 179.115997 253.255981 178.144989 C 253.204987 177.446686 253.049225 176.759979 252.794006 176.108002 C 252.505981 175.248993 252.113983 174.281006 251.255981 173.990997 C 250.182007 173.627991 249.097992 174.579987 248.584991 175.591003 C 247.64856 177.485016 247.718689 179.721375 248.772003 181.552979 C 249.393982 182.604004 250.346985 183.531006 250.510986 184.742981 Z"/>
            <path id="path51" fill="#e6e6e6" stroke="none" d="M 240.487015 191.184998 C 240.957016 191.439636 241.514816 191.476166 242.013992 191.285004 C 242.961075 191.123871 243.871292 190.793243 244.701004 190.309021 C 245.539719 189.804474 246.041824 188.887421 246.014999 187.908997 C 245.721481 186.673218 244.712143 185.736145 243.457993 185.535004 C 242.59346 185.230774 241.634171 185.377411 240.900009 185.926025 C 240.108017 186.669006 240.199997 187.926025 240.358017 189.005005 L 240.190994 189.285004 C 240.046005 189.942017 239.949997 190.770996 240.487015 191.184998 Z"/>
            <path id="path52" fill="#e6e6e6" stroke="none" d="M 407.783997 269.444 L 407.093994 267.729004 C 406.778992 268.506012 406.895996 269.299011 407.783997 269.444 Z"/>
            <path id="path53" fill="#e6e6e6" stroke="none" d="M 545.78302 149.197998 C 542.833008 145.998016 541.026001 144.152008 539.163025 140.184998 C 537.104309 135.740173 532.954468 132.623383 528.112 131.88501 C 521.992004 130.877014 515.737976 132.472992 509.54303 132.153015 C 499.620972 131.640991 490.674011 126.319 481.171997 123.416016 C 475.851746 121.925385 470.433899 120.807983 464.958008 120.071991 L 455.492004 118.571991 C 445.148987 116.936005 434.741028 115.29599 424.271973 115.513 C 421.252991 115.576019 417.047974 114.667999 417.289978 111.658997 C 417.590027 107.92099 424.315979 108.412018 425.609009 104.891998 C 426.408997 102.714996 424.494019 100.428009 422.393005 99.444 C 420.291992 98.459991 417.867981 98.162994 415.960999 96.843994 C 414.054016 95.524994 413.01001 92.458008 414.760986 90.937012 L 400.192017 98.406006 C 396.153992 100.475983 391.643005 103.169006 390.929993 107.649994 C 388.496765 108.292877 386.367554 109.772034 384.916016 111.828003 C 382.184021 111.84201 380.038025 114.464996 379.586975 117.158997 C 379.135986 119.852997 379.955017 122.580017 380.765015 125.188995 C 379.773987 123.289001 378.721985 121.321014 376.974976 120.082001 C 375.228027 118.843018 372.570007 118.608002 371.080994 120.145996 C 369.552979 121.725006 369.909973 124.373993 370.991028 126.286011 C 372.072021 128.197998 373.731995 129.743011 374.752014 131.686005 C 377.937012 137.764008 372.164978 146.321014 365.336975 145.644012 C 365.794983 139.368011 366.252991 133.09201 366.710999 126.81601 C 367.001282 124.885529 366.838989 122.914032 366.237 121.057007 C 365.492004 119.257019 363.585022 117.785004 361.687012 118.209015 C 358.273987 118.972015 358.565979 123.971008 359.987 127.166992 C 361.40802 130.363007 362.822021 134.807007 359.924011 136.766998 C 358.052002 138.031006 355.515015 137.25 353.494995 136.240997 C 351.474976 135.231995 349.312988 133.989014 347.104004 134.459991 C 344.89502 134.931 343.504028 138.307007 345.458008 139.444 L 335.75 137.757019 C 335.426147 139.683533 334.301392 141.382751 332.65448 142.433502 C 331.007507 143.484253 328.992615 143.788177 327.109009 143.27002 L 326.156006 139.320007 L 324.734985 138.920013 C 326.221008 139.334015 323.895996 145.602997 321.810974 150.390991 C 319.010986 150.062012 314.911011 149.998993 314.445007 149.19101 C 312.20697 145.345001 312.473022 136.18399 308.583984 134.02002 C 306.633993 132.934672 304.633993 131.946004 302.583984 131.054016 C 301.507263 130.541748 300.369873 130.168427 299.198975 129.942993 C 296.810974 129.567017 294.398987 130.307007 292.098999 131.042999 C 286.686462 132.079193 282.034058 135.510223 279.445007 140.375 L 266.094971 160.149017 C 264.768433 161.909576 263.724854 163.866486 263.002014 165.949005 C 262.311279 168.042236 262.566833 170.33252 263.702026 172.222015 C 264.920715 174.105652 267.271423 174.908905 269.388 174.165009 C 270.677979 173.606995 271.969971 172.341003 273.249023 172.925018 C 274.21698 173.368011 274.458984 174.640015 274.357971 175.700012 C 274.111816 176.73764 274.092346 177.816162 274.301025 178.862 C 274.882996 180.511993 277.122009 181.085999 278.718994 180.372009 C 280.272034 179.524841 281.43573 178.108063 281.965027 176.420013 C 283.504028 172.472992 283.346985 168.106018 283.72998 163.886993 C 284.112976 159.667999 285.265991 155.156006 288.593018 152.53302 C 289.593018 151.748016 291.051025 151.182007 292.075989 151.933014 C 292.862549 152.648102 293.108337 153.78363 292.687988 154.76001 C 292.259277 155.702332 291.7005 156.579865 291.028015 157.367004 C 288.730774 160.598938 287.879272 164.639893 288.677002 168.524017 L 289.356995 168.945007 C 291.950989 168.272003 295.421997 169.47702 298.86499 170.632019 C 296.368225 171.37384 294.169128 172.884552 292.580994 174.949005 C 288.601013 180.53302 285.719971 185.817993 277.846985 185.748993 C 275.979004 185.733002 274.127014 185.364014 272.26001 185.360016 C 270.37439 185.243134 268.516907 185.861816 267.078003 187.085999 C 265.661987 188.472992 265.223999 190.585999 264.013 192.152008 C 262.419983 194.21402 259.757996 195.052002 257.325989 195.98999 C 255.549011 196.675018 253.675995 197.597992 252.859009 199.317993 C 252.345825 200.72879 252.22757 202.25293 252.516998 203.726013 C 252.791016 206.330994 253.274994 209.294006 255.485992 210.701019 C 257.155579 211.572144 259.104797 211.737122 260.896973 211.158997 C 263.197021 210.600006 265.444031 209.546997 267.804993 209.70401 C 271.628113 210.167419 274.527405 213.373688 274.60498 217.223999 C 274.624023 219.104004 274.075012 221.261017 275.322021 222.669006 C 275.972412 223.267273 276.834045 223.582336 277.71698 223.54483 C 278.599915 223.507324 279.431641 223.12027 280.028992 222.468994 C 281.174194 221.081482 281.557007 219.216461 281.051025 217.48999 C 280.535828 215.796234 279.743469 214.199585 278.705994 212.765015 C 281.250244 212.10556 283.906311 213.333557 285.052002 215.699005 C 285.875 217.528015 285.609009 219.639008 285.872009 221.627991 C 286.13501 223.617004 287.346008 225.828003 289.348022 225.942017 C 290.699463 225.979919 291.885803 225.048767 292.169983 223.72702 C 292.190674 222.717621 292.135559 221.70813 292.005005 220.707001 C 292.146973 218.66095 293.861206 217.081421 295.911987 217.106995 C 294.655945 219.429138 295.222412 222.315826 297.263 223.990997 C 298.786987 225.170013 300.802002 225.43399 302.700012 225.764008 C 304.598022 226.093994 306.624023 226.61499 307.848999 228.10202 C 309.890015 230.57901 307.393005 231.695007 307.004028 233.792999 C 306.526978 236.369019 308.677979 240.173004 309.504028 242.636993 L 320.896973 258.575012 C 321.74469 259.86673 322.744507 261.05188 323.875 262.105011 C 327.896973 265.267731 333.615417 265.061401 337.398987 261.617004 C 340.975342 257.996063 341.773804 252.466827 339.367981 247.981995 C 337.145996 243.938019 332.744019 241.433014 330.567993 237.363007 C 334.186218 240.358368 338.628296 242.185181 343.307007 242.60202 C 351.584839 244.284088 359.449585 247.582367 366.450989 252.308014 C 366.780457 259.623749 369.588196 266.609955 374.413025 272.119019 C 375.280151 265.876495 378.190308 260.096924 382.689026 255.683014 C 385.61499 252.830017 389.612 250.528992 393.625977 251.296997 C 397.640015 252.065002 400.684998 257.183014 398.257019 260.470001 L 404.356995 260.924011 L 407.093994 267.723999 C 407.425781 266.743225 408.35907 266.094025 409.393982 266.123993 C 411.294006 266.412018 412.633972 268.183014 414.445984 268.838013 C 417.861023 270.071014 421.510986 266.654999 421.953003 263.050995 C 422.39502 259.446991 420.679993 255.968018 419.015015 252.742004 C 426.533569 254.134827 434.163391 250.94342 438.451111 244.612213 C 442.738831 238.281006 442.870728 230.011688 438.786987 223.546997 C 442.74585 219.388702 447.404724 215.958527 452.551025 213.412994 C 457.314026 211.059998 462.52301 209.445007 466.684998 206.14502 C 470.846985 202.845001 473.765991 197.113007 471.763977 192.192993 C 470.349976 188.71701 466.802002 186.358002 465.741028 182.759003 C 464.203979 177.549011 468.872986 172.158997 474.146973 170.859009 C 479.421021 169.55899 484.927979 171.158997 490.124023 172.744995 C 489.323975 167.399017 495.523987 162.388 500.583008 164.286011 L 506.942017 161.710999 C 504.484985 167.127991 499.161011 170.574005 495.242004 175.052002 C 491.322998 179.529999 488.995972 186.822998 493.085022 191.141998 L 510.669983 175.20401 L 529.062988 158.53302 L 528.184998 155.953003 C 533.987 153.757019 540.234009 151.934998 545.78302 149.197998 Z"/>
            <path id="path54" fill="#e6e6e6" stroke="none" d="M 241.330994 220.699005 C 240.845642 221.397583 240.850433 222.3255 241.342987 223.019012 C 241.992462 223.570587 242.942139 223.58316 243.605988 223.049011 C 244.235687 222.51178 244.727417 221.831421 245.040009 221.065002 C 245.663605 222.27182 246.9758 222.95932 248.322998 222.785004 C 249.63623 222.586853 250.88028 222.067871 251.945007 221.274017 C 252.789673 220.779053 253.535522 220.132172 254.144989 219.365997 C 254.756256 218.583282 254.961304 217.557587 254.697998 216.600006 C 254.381958 215.876068 253.8909 215.242065 253.269012 214.755005 L 248.615997 210.455017 L 248.089996 210.296997 C 247.537354 209.708862 246.768799 209.37149 245.961792 209.362793 C 245.154816 209.354126 244.37915 209.674866 243.813995 210.251007 C 242.851013 211.32901 242.846985 212.940002 242.993988 214.378021 C 243.140991 215.81601 243.369995 217.347992 242.730011 218.64502 C 242.362 219.390015 241.73999 219.979004 241.330994 220.699005 Z"/>
            <path id="path55" fill="#e6e6e6" stroke="none" d="M 331.319 269.639008 C 319.012665 266.899719 309.41983 257.258881 306.741974 244.938995 C 306.170013 242.091003 305.91098 238.980011 304.016998 236.779022 C 302.183014 234.64801 299.186981 233.878998 296.374969 233.878998 C 293.563019 233.878998 290.792023 234.526001 287.985016 234.701019 C 283.07901 235.007019 277.879974 233.710999 274.371002 230.268005 C 272.709991 228.637024 271.451996 226.568024 269.511017 225.281006 C 266.902985 223.553009 263.446014 223.554016 260.473969 224.53302 C 257.163971 225.624023 254.514984 228.609009 250.895996 228.197998 C 247.131989 227.770996 242.769989 226.440002 241.29599 231.39801 C 240.871002 232.825012 241.015991 234.390015 240.477997 235.778015 C 239.648987 237.917999 237.446991 239.124023 235.705994 240.618011 C 232.199005 243.628998 230.333984 248.201996 229.705994 252.781006 C 229.078003 257.360016 229.563995 262.011017 230.049988 266.606995 C 230.311981 269.085999 230.656982 271.753998 232.359985 273.575012 C 234.734009 276.113007 238.71698 276.015015 242.181 275.729004 L 254.252991 274.729004 C 256.421967 274.550018 258.894012 274.473999 260.438019 276.007996 C 261.363007 276.927002 261.754974 278.257019 262.569 279.276001 C 264.073578 281.061615 266.611115 281.573181 268.689972 280.51001 C 267.032257 283.470276 266.961273 287.062561 268.500702 290.086029 C 270.040131 293.109497 272.986908 295.165222 276.355988 295.56601 L 276.665985 295.766022 C 274.089996 300.177002 271.417023 305.130981 272.485016 310.127014 C 273.40097 314.409973 276.947968 317.843994 277.529022 322.185974 C 278.061005 326.169006 275.983002 330.242981 276.902008 334.154968 C 277.832977 338.117004 281.834015 340.878967 285.892975 341.174011 C 289.951996 341.468994 293.939972 339.667969 297.084015 337.083984 C 300.118683 334.366089 302.796967 331.274841 305.055023 327.883972 C 306.533966 325.852966 308.055023 323.737976 308.555023 321.276978 C 309.095001 318.65802 308.468964 315.755981 309.741974 313.404968 C 311.210968 310.692993 314.696991 309.677002 316.456024 307.14502 C 318.735016 303.865967 317.391998 299.399963 317.895966 295.438019 C 319.145966 285.627014 331.60202 279.516998 331.319 269.639008 Z"/>
            <path id="path56" fill="#e6e6e6" stroke="none" d="M 329.518982 303.106995 C 329.17804 304.638 327.744995 305.64502 326.379028 306.416016 C 325.013 307.187012 323.510986 307.963989 322.815002 309.369019 C 322.10199 310.807983 322.42804 312.523987 322.801025 314.085999 C 323.576335 317.335999 324.48999 320.548665 325.541992 323.723999 C 327.580322 319.872986 329.359924 315.890503 330.869019 311.802979 C 331.508118 310.281189 331.902649 308.667969 332.038025 307.02301 C 332.164551 305.35791 331.58075 303.717041 330.43103 302.505981 Z"/>
            <path id="path57" fill="#e6e6e6" stroke="none" d="M 413.340027 286.056 L 408.205017 280.128998 C 407.035034 278.777985 405.700012 277.334991 403.926025 277.108978 L 403.195984 277.574982 L 407.64801 288.174988 C 408.17334 289.788361 409.097961 291.242767 410.335999 292.402985 C 411.664001 293.446991 413.817993 293.647003 414.926025 292.371979 C 415.653137 291.398651 415.805603 290.111267 415.325989 288.994995 C 414.843079 287.904541 414.169556 286.908936 413.337036 286.054993 Z"/>
            <path id="path58" fill="#e6e6e6" stroke="none" d="M 429.923981 289.839996 C 431.232147 289.385651 432.288177 288.401093 432.832977 287.127991 C 433.363495 285.867004 433.713959 284.537659 433.873993 283.179016 L 434.751007 277.871002 L 434.368011 277.770996 C 433.599213 277.400085 432.67453 277.65683 432.207001 278.371002 C 431.77597 279.073517 431.44986 279.835236 431.238983 280.631989 C 431.019806 281.439301 430.443756 282.102203 429.675018 282.432007 C 428.300995 282.847015 427.000031 281.390991 425.56601 281.446991 C 424.374115 281.59848 423.444061 282.551758 423.321991 283.747009 C 423.239044 284.919891 423.571503 286.084564 424.261017 287.037018 C 425.483978 288.938995 427.753998 290.464996 429.923981 289.839996 Z"/>
            <path id="path59" fill="#e6e6e6" stroke="none" d="M 439.387024 293.194 L 443.330994 282.806 C 440.065552 285.174744 438.516418 289.254944 439.387024 293.194 Z"/>
            <path id="path60" fill="#e6e6e6" stroke="none" d="M 459.515991 284.824005 L 458.716003 284.858002 C 457.99353 286.287231 457.9776 287.971375 458.672974 289.414001 C 459.373108 290.832825 460.391602 292.070709 461.648987 293.031006 C 463.597473 294.639374 465.821472 295.881134 468.213013 296.695984 C 471.720215 297.718933 475.346497 298.277374 478.999023 298.356995 L 485.263 298.766998 C 486.257996 298.832001 487.544006 298.705994 487.820984 297.747986 C 488.049011 296.957001 487.375977 296.213989 486.747009 295.682983 C 481.22229 291.034271 474.525391 287.99472 467.388977 286.897003 C 464.684021 286.480988 461.812012 286.311981 459.515991 284.824005 Z"/>
            <path id="path61" fill="#e6e6e6" stroke="none" d="M 481.805023 312.390015 L 477.300018 308.020996 C 475.839996 306.605011 473.652008 305.104004 471.977997 306.26001 C 471.016022 306.924988 470.719025 308.221008 469.904022 309.059998 C 468.895111 309.963745 467.497833 310.296326 466.190033 309.944 C 464.907379 309.583527 463.694977 309.008759 462.604034 308.243988 L 458.878021 305.932007 L 455.021027 303.537994 L 452.121002 306.358002 C 452.24704 304.970001 450.397003 304.069 449.115997 304.617004 C 447.883698 305.308075 447.033112 306.522675 446.805023 307.916992 C 446.591522 309.294281 446.219391 310.642242 445.696014 311.93399 C 444.222992 314.755005 440.644989 315.589996 437.496002 316.062988 C 434.347015 316.536011 430.784027 317.200989 429.096039 319.901001 C 427.696014 322.149994 428.113007 325.036987 428.582001 327.645996 L 430.355988 337.515991 C 430.440216 338.711487 430.919708 339.845001 431.719025 340.738007 C 433.277008 342.113007 435.69101 341.277008 437.59201 340.437988 C 441.567352 338.526154 445.833405 337.289917 450.214996 336.779999 C 454.634552 336.284302 459.082733 337.422485 462.721039 339.980011 C 464.975983 341.696991 466.696014 344.075012 469.086029 345.600006 C 472.421539 347.606567 476.496246 347.96225 480.128998 346.563995 C 483.722931 345.133179 486.697235 342.481049 488.529022 339.074005 C 491.83725 332.962738 491.676056 325.559509 488.105011 319.597992 C 486.312042 316.943359 484.195831 314.522095 481.805023 312.390015 Z"/>
            <path id="path62" fill="#e6e6e6" stroke="none" d="M 477.376984 352.601013 C 476.637482 353.499084 476.569366 354.774231 477.209015 355.745972 C 477.863251 356.683655 478.860626 357.325684 479.985016 357.53302 C 481.098663 357.732483 482.233734 357.784607 483.360992 357.687988 L 483.394989 356.846008 C 483.094513 355.368408 482.412994 353.994995 481.417999 352.862 C 480.329987 351.827026 478.407013 351.508972 477.376984 352.601013 Z"/>
            <path id="path63" fill="#e6e6e6" stroke="none" d="M 516.046021 353.497009 L 515.507996 353.296997 L 511.664001 359.096985 C 510.973999 360.135986 510.255005 361.383972 510.675964 362.557983 C 511.175964 363.94696 513.013977 364.357971 514.44397 363.987 C 516.671875 363.38269 518.348389 361.543213 518.744019 359.268982 C 519.065674 356.980774 518.006958 354.718201 516.044006 353.499023 Z"/>
            <path id="path64" fill="#e6e6e6" stroke="none" d="M 525.815002 347.372986 L 522.276978 344.561035 C 522.229655 345.865682 522.182332 347.170349 522.13501 348.475037 L 522.002014 348.475037 C 522.817749 349.19043 523.587952 349.956299 524.307983 350.768005 C 525.135986 351.468018 526.524963 351.794006 527.232971 350.968018 C 527.666016 350.364319 527.695984 349.560181 527.30896 348.926025 C 526.918274 348.312073 526.408203 347.782959 525.80896 347.369995 Z"/>
            <path id="path65" fill="#e6e6e6" stroke="none" d="M 461.910034 225.021973 C 460.426025 224.975983 458.78302 224.884979 457.632019 225.821991 C 457.25354 226.160278 456.921631 226.547333 456.64502 226.972992 L 456.239014 227.540985 C 455.632202 228.335419 455.103088 229.18634 454.658997 230.082001 C 454.189575 230.931335 454.111145 231.942413 454.444031 232.853973 C 454.636475 233.289978 455.012573 233.618042 455.470642 233.749542 C 455.928711 233.881042 456.42157 233.80246 456.81604 233.534973 C 457.450012 232.946991 457.302002 231.880981 457.781982 231.161987 C 458.210144 230.612579 458.871582 230.296295 459.567993 230.307983 C 460.253479 230.325287 460.936035 230.402588 461.608032 230.538971 C 465.407471 231.059479 469.163208 229.325134 471.230835 226.095306 C 473.298462 222.865448 473.30127 218.728607 471.238037 215.495972 L 471.119019 215.130981 C 468.998657 215.05191 467.123901 216.497284 466.661011 218.567993 C 466.328979 220.297974 467.03302 222.306976 465.984009 223.721985 C 465.096985 224.916992 463.390991 225.069 461.910034 225.021973 Z"/>
            <path id="path66" fill="#e6e6e6" stroke="none" d="M 475.192993 206.687012 L 474.96698 206.667023 C 473.639771 206.908783 472.365601 207.382721 471.203003 208.067017 C 470.821472 208.244049 470.516724 208.55304 470.344971 208.937012 C 470.242676 209.350769 470.355408 209.788239 470.64502 210.101013 C 470.933716 210.405792 471.27179 210.659698 471.64502 210.85202 C 472.199829 211.22229 472.81311 211.49646 473.458984 211.663025 C 474.117432 211.825684 474.813538 211.646027 475.310974 211.184998 C 475.775818 210.546295 475.934631 209.734833 475.744995 208.968018 C 475.639038 208.190094 475.454773 207.424896 475.195007 206.684021 Z"/>
            <path id="path67" fill="#e6e6e6" stroke="none" d="M 452.315002 225.463013 C 452.669861 224.89444 452.922058 224.267914 453.059998 223.612 L 453.474976 222.084991 L 451.994995 221.184998 C 451.288208 221.553009 450.636292 222.017822 450.057983 222.56601 C 449.476135 223.124115 449.153809 223.899902 449.169006 224.705994 C 449.210999 225.526672 449.813171 226.210052 450.622009 226.355011 C 451.303833 226.375854 451.946594 226.037201 452.315002 225.463013 Z"/>
            <path id="path68" fill="#e6e6e6" stroke="none" d="M 291.125031 87.868011 C 290.540009 88.233002 290.704987 89.113983 290.943024 89.761993 L 291.761017 91.992004 L 292.141998 90.549011 C 292.477081 89.989349 292.624908 89.337433 292.563995 88.687988 C 292.431 88.053986 291.675018 87.524994 291.125031 87.868011 Z"/>
            <path id="path69" fill="#ffffff" stroke="none" d="M 660.549988 221.742004 L 413.070007 221.742004 C 400.649048 221.72879 390.583191 211.662933 390.570007 199.242004 L 390.570007 22.192993 C 390.583191 9.772095 400.649048 -0.293762 413.070007 -0.307007 L 660.549988 -0.307007 C 672.970886 -0.293762 683.036743 9.772095 683.049988 22.192993 L 683.049988 199.243011 C 683.037292 211.664154 672.97113 221.730316 660.549988 221.743011 Z"/>
            <path id="path70" fill="#3f3d56" stroke="none" d="M 660.549988 221.742004 L 413.070007 221.742004 C 400.649048 221.72879 390.583191 211.662933 390.570007 199.242004 L 390.570007 22.192993 C 390.583191 9.772095 400.649048 -0.293762 413.070007 -0.307007 L 660.549988 -0.307007 C 672.970886 -0.293762 683.036743 9.772095 683.049988 22.192993 L 683.049988 199.243011 C 683.037292 211.664154 672.97113 221.730316 660.549988 221.743011 Z M 413.070007 1.651001 C 401.731018 1.664795 392.542664 10.854004 392.529968 22.192993 L 392.529968 199.243011 C 392.543213 210.581604 401.731384 219.770233 413.070007 219.783997 L 660.549988 219.783997 C 671.889771 219.771332 681.079346 210.581787 681.09198 199.242004 L 681.09198 22.192993 C 681.079346 10.85321 671.889771 1.663696 660.549988 1.651001 Z"/>
            <path id="path71" fill="#cccccc" stroke="none" d="M 480.401978 26.65802 L 441.274963 26.65802 C 439.13855 26.62384 437.424561 24.882202 437.424561 22.745483 C 437.424561 20.608826 439.13855 18.867188 441.274963 18.833008 L 480.401978 18.833008 C 482.538391 18.867188 484.252441 20.608826 484.252441 22.745483 C 484.252441 24.882202 482.538391 26.62384 480.401978 26.65802 Z"/>
            <path id="path72" fill="#cccccc" stroke="none" d="M 565.503967 114.694 L 441.274963 114.694 C 439.13855 114.659851 437.424561 112.918182 437.424561 110.781494 C 437.424561 108.644806 439.13855 106.903168 441.274963 106.868988 L 565.503967 106.868988 C 567.640442 106.903168 569.354431 108.644806 569.354431 110.781494 C 569.354431 112.918182 567.640442 114.659851 565.503967 114.694 Z"/>
            <path id="path73" fill="#7C86FF" stroke="none" d="M 489.514008 63.753998 C 489.514008 78.242645 477.768646 89.988007 463.279999 89.988007 C 448.791351 89.988007 437.04599 78.242645 437.04599 63.753998 C 437.04599 49.26535 448.791351 37.52002 463.279999 37.52002 C 477.768646 37.52002 489.514008 49.26535 489.514008 63.753998 Z"/>
            <path id="path74" fill="#3f3d56" stroke="none" d="M 437.362 189.410004 L 443.230988 189.410004 L 443.230988 191.365997 L 437.362 191.365997 Z"/>
            <path id="path75" fill="#3f3d56" stroke="none" d="M 615.555969 191.366028 L 603.247009 191.366028 L 603.247009 189.410004 L 615.555969 189.410004 Z M 590.937988 191.366028 L 578.628967 191.366028 L 578.628967 189.410004 L 590.937988 189.410004 Z M 566.320007 191.366028 L 554.010986 191.366028 L 554.010986 189.410004 L 566.320007 189.410004 Z M 541.703003 191.366028 L 529.393982 191.366028 L 529.393982 189.410004 L 541.703003 189.410004 Z M 517.084961 191.366028 L 504.779999 191.366028 L 504.779999 189.410004 L 517.079956 189.410004 Z M 492.46701 191.366028 L 480.15799 191.366028 L 480.15799 189.410004 L 492.46701 189.410004 Z M 467.84903 191.366028 L 455.540009 191.366028 L 455.540009 189.410004 L 467.84903 189.410004 Z"/>
            <path id="path76" fill="#3f3d56" stroke="none" d="M 627.86499 189.410004 L 633.734009 189.410004 L 633.734009 191.365997 L 627.86499 191.365997 Z"/>
            <path id="path77" fill="#7C86FF" stroke="none" d="M 532.088013 154.794006 L 536.979004 154.794006 L 536.979004 188.052002 L 532.088013 188.052002 Z"/>
            <path id="path78" fill="#7C86FF" stroke="none" d="M 581.976013 154.794006 L 586.867004 154.794006 L 586.867004 188.052002 L 581.976013 188.052002 Z"/>
            <path id="path79" fill="#7C86FF" stroke="none" d="M 606.429993 173.380005 L 611.320984 173.380005 L 611.320984 188.053009 L 606.429993 188.053009 Z"/>
            <path id="path80" fill="#7C86FF" stroke="none" d="M 556.54303 140.121002 L 561.434021 140.121002 L 561.434021 188.052002 L 556.54303 188.052002 Z"/>
            <path id="path81" fill="#7C86FF" stroke="none" d="M 93.862999 215.44101 C 93.862999 218.682373 91.235359 221.309998 87.994003 221.309998 C 84.75264 221.309998 82.125 218.682373 82.125 215.44101 C 82.125 212.199646 84.75264 209.571991 87.994003 209.571991 C 91.235359 209.571991 93.862999 212.199646 93.862999 215.44101 Z"/>
            <path id="path82" fill="#7C86FF" stroke="none" d="M 109.514 187.074005 C 109.514 190.315369 106.88636 192.942993 103.644997 192.942993 C 100.403641 192.942993 97.776001 190.315369 97.776001 187.074005 C 97.776001 183.832642 100.403641 181.204987 103.644997 181.204987 C 106.88636 181.204987 109.514 183.832642 109.514 187.074005 Z"/>
            <path id="path83" fill="#7C86FF" stroke="none" d="M 281.674011 164.575989 C 281.674011 167.817352 279.046356 170.445007 275.804993 170.445007 C 272.563629 170.445007 269.936005 167.817352 269.936005 164.575989 C 269.936005 161.334656 272.563629 158.707001 275.804993 158.707001 C 279.046356 158.707001 281.674011 161.334656 281.674011 164.575989 Z"/>
        </g>
    </g>
</svg>
